<?xml version="1.0" encoding="UTF-8"?>
<svg id="Layer_1" xmlns="http://www.w3.org/2000/svg" version="1.1" viewBox="0 0 500 500">
  <!-- Generator: Adobe Illustrator 29.8.4, SVG Export Plug-In . SVG Version: 2.1.1 Build 6)  -->
  <defs>
    <style>
      .st0 {
        fill: #de4b55;
      }

      .st1 {
        fill: #f7eeef;
      }

      .st2 {
        fill: #3f70b7;
      }

      .st3 {
        fill: #3a4d6f;
      }

      .st4 {
        fill: #d3484e;
      }

      .st5 {
        fill: #cc3a4a;
      }

      .st6 {
        fill: #2d2d2e;
      }

      .st7 {
        fill: #53595e;
      }

      .st8 {
        fill: #ece4ea;
      }

      .st9 {
        fill: #52283a;
      }

      .st10 {
        fill: #f0ebec;
      }

      .st11 {
        fill: #326bb4;
      }

      .st12 {
        fill: #bdc0c2;
      }

      .st13 {
        fill: #d35357;
      }

      .st14 {
        fill: #f7f7f7;
      }

      .st15 {
        fill: #406ab0;
      }

      .st16 {
        fill: #e6d3d5;
      }

      .st17 {
        fill: #d15c66;
      }

      .st18 {
        fill: #aaadad;
      }

      .st19 {
        fill: #5570b6;
      }

      .st20 {
        fill: #7f8f9d;
      }

      .st21 {
        fill: #f4f1f1;
      }

      .st22 {
        fill: #4b4d54;
      }

      .st23 {
        fill: #2b3643;
      }

      .st24 {
        fill: #d9dee2;
      }

      .st25 {
        fill: #d85a64;
      }

      .st26 {
        fill: #383a3c;
      }

      .st27 {
        fill: #d0cbcd;
      }
    </style>
  </defs>
  <path class="st1" d="M122.99,214.86c5.49-.4,11.21.04,16.74,0,3.63-.03,7.83,3.2,10.04,3.35,1.31,1.8,2.02,5.45,3.35,6.69-2.73,6.37-12.12,5.44-10.04,13.39-3.14-1.52-15.46-7.84-16.72-6.69-.67,2.89.86,8.12-.02,10.04-.95,2.08-11.09,6.1-14.52,17.28-9.42,30.71,3.48,51.58,34.6,56.35-.52.76.51,2.55,0,3.35-2.8,4.38-3.73,9.53-8.24,13.49-7.6,6.67-18.49,3.46-15.19,16.63-3.75-.92-7.68-1.17-11.1-3.19-2.46-1.78-2.14-4.25-2.28-6.85-.02-.3,4.9.37,3.32-4.95-.91-3.08-18.9-11.13-23.65-23.26-10.24-26.17-.2-78.68,33.74-78.92l-10.06-10.02c.44-.36-1.05-4.64.55-6.12,3.02-1.69,6.36-.35,9.49-.58Z"/>
  <path class="st23" d="M256.88,208.16c-.54,1.15.17,4.59,0,6.69-.75,9.13,3.26,15.47,3.35,20.08.05,2.9-5.76,11.14-3.35,16.72,17.38,2.33,30.81-2,46.87-6.68,10.12-2.95,15.74-5.52,25.07-10.07,3.85.05.52,7.7,1.7,10.07-12.67-3.15-19.68,10.51-30.12,16.74-7.67.67-15.7-.26-23.43,0-1.11.04-2.24-.06-3.35,0-2.2.13-4.73-.36-6.69,0-2.64.48-6.69-.87-6.69,3.35,0,1.12-.01,2.23,0,3.35.02,2.31,2.29,11.34,3.35,13.39-10.71,5.29-23.28,1.72-33.47,3.35.35-3.06-3.44-8.41-3.35-10.04.1-1.79,3.07-4.76,3.35-6.69.3-2.14-.14-4.5.01-6.68-2.06-1.7-29.75,1.33-36.83-.02-2.09-.4-13.03-6.36-13.39-10.01l44.68,2.99c6.16-2.04,5.53-8,5.52-13.06-.04-23.97-22.05-5.54-33.47-20.08,11.06,1.99,22.08,4.47,33.49,3.37l-.02-16.75c8.9-.28,17.87.19,26.78,0Z"/>
  <path class="st2" d="M357.29,121.14c6.85,4.08,32.93,15.55,36.03,20.96,1.66,2.89-.1,7.61.99,9.85,1.63,3.38,6.28,2.46,6.39,4.76s-3.46,5.19-2.46,7.4c.3.67,5.71.23,5.96,2.45.23,2.03-1.75,38.73-2.19,40.84-3.91,18.51-20.6,30.21-24.63,40.93-.84,2.22.57,7.11,0,10.04-3.26-.39-6.74.26-10.04,0-3.45-3.21-8.61-6-13.39-6.69.09-2.13.24-4.61,0-6.69,15.12-1.7,25.91-17.31,31.79-30.13,16.65-36.35,8.02-60.65-25.09-80.32-.52-1.55-1.76-2.97-3.35-3.35-.98-.23-2.2.12-3.35,0l3.35-10.04Z"/>
  <path class="st22" d="M330.51,335.35c3.3,1.69,11.7,5.49,13.39,6.69.39.27,5.68,5.59,6.69,6.69,3.93,4.27,7.79,17.47,10.46,21.28,2.05,2.92,15.79,20.86,16.99,21.52,8.15,4.52,52.64-4.69,40.44,17.44-5.23,9.49-24,8.04-32.22,3.45-3.62-2.02-.98-7.4-4.34-10.35-5.48-4.82-15.76-6.18-24.13-15.36-9.69-10.63-15.92-36.34-17.55-37.67s-12.08.37-17.32-1.09c-5.36-1.49-8.42-6.21-12.5-9.26l3.35-6.69c4.08,2.45,13.71,1.8,16.74,3.35Z"/>
  <path class="st25" d="M149.77,107.75c1,2.83-.91,1.23,3.35,10.04,1.02,2.11.34,7.81,2.6,12.3,11.06,21.93,22.65,52.33,44.26,64.68.05,2.23-.04,4.46,0,6.69-6.01-1.21-7.71-.91-16.74-3.35-20.49-19.9-27.56-48.29-40.32-71.13-2.04-3.65-6.37-2.19-6.54-2.5-4.7-8.5-3.99-6.16-6.69-10.04-.73-1.05-9.61-21.53-10.04-23.43-.65-2.82.44-6.89,0-10.04,5.55,3.67,28.53,22.27,30.12,26.78Z"/>
  <path class="st6" d="M149.77,107.75c13.62-.34,30.11,6.33,40.01,15.34.57.52,8.98,11.75,9.29,12.46,1.38,3.2-1.57,7.34-.19,11.55,1.18,3.62,6.56,3.96,7.59,6.72,6.53,17.53,7.18,37.68,16.94,54.34-17.9.12-12.52-4.5-23.43-6.69-.04-2.23.05-4.47,0-6.69-.74-30.05-10.95-73.59-46.86-76.98-4.25-8.82-2.35-7.21-3.35-10.04Z"/>
  <path class="st24" d="M333.86,124.48c-.22,2.34-2.53,9.2-3.35,13.39-27.88,1.67-43.22,39.76-46.86,63.59-4.23,2.84-8.11,4.84-10.04,10.04-5.53,1.17-11.36,1.27-16.74,3.35.17-2.1-.54-5.54,0-6.69.33-.71,6.53-3.12,8.23-6.68,13.07-27.25,33.09-79.32,68.75-77Z"/>
  <path class="st4" d="M112.95,221.55l10.06,10.02c-33.94.24-43.97,52.75-33.74,78.92,4.75,12.13,22.74,20.18,23.65,23.26,1.57,5.32-3.34,4.65-3.32,4.95-37.25-7.3-40.52-59.83-26.29-88.21,7.11-14.19,18.76-20,29.64-28.93Z"/>
  <path class="st11" d="M353.94,70.93c.54,5.63,1,18.49,0,23.43l-3.35,3.35c-.52,1.06-2.63,2.04-3.35,3.35-6.29,11.42-1.99,18.5-3.35,30.12-.13,1.1.13,2.25,0,3.35l-3.35,10.04c-4.23,3.9-8.09,25.75-15.01,23.4-8.13-2.77-2.11-7.66-1.13-11.04,1.87-6.48,4.77-12.25,6.1-19.05.82-4.19,3.13-11.05,3.35-13.39.69-7.26.08-15.92,0-23.43l-3.35-6.69c-.09-7.37-.81-16.42,0-23.43h23.43Z"/>
  <path class="st17" d="M223.41,275.1h3.35c-.09,1.63,3.69,6.99,3.35,10.04-18.44,2.94-30.31,28.62-41.88,40.12-8.71,8.66-25.79,19.71-38.45,20.13,1.04-4.21,1.78-7.78,3.35-13.39,15.89-1.54,23.57-16.84,33.47-26.78,9.99-10.03,18.74-21.36,30.12-30.12,2.2-.21,4.48.14,6.69,0Z"/>
  <path class="st13" d="M119.65,91.01c-17.85-4.65-33.14-3.43-46.8-18.41l10.11-18.32c2.43-2.21,28.47,9.12,29.42,10.63,3,4.76-3.71,8.8,7.27,16.06.44,3.15-.65,7.22,0,10.04Z"/>
  <path class="st15" d="M183.24,198.12c9.02,2.44,10.72,2.14,16.74,3.35,10.91,2.2,5.53,6.81,23.43,6.69,2.23-.01,4.47.07,6.69,0l.02,16.75c-11.41,1.1-22.43-1.38-33.49-3.37-1.08-.19-2.28.22-3.35,0-.23-.05-1.17-2.84-3.35-3.35-1.09-.25-2.36.3-3.35,0-2.34-7.36-10.82-8.69-14.92-13.56-1.82-2.16-1.21-5.84-1.81-6.52,4.04.65,9.9-.94,13.39,0Z"/>
  <path class="st20" d="M143.08,368.82c.17.74,4.94,4.03,6.02,8.88,3.93,17.78-.82,25.17-17.48,31.22-9.39-7.16-10.97-23.87-7.92-34.53,1.12-3.91,5.88-5.17,6-5.57h13.39Z"/>
  <path class="st18" d="M377.37,248.33l43.1.42c8.6,20.68-.05,27.4-21.4,23.05-10.1-2.06-4.71-11.4-21.71-13.42.57-2.93-.84-7.82,0-10.04Z"/>
  <path class="st22" d="M367.33,258.37c4.13,3.85,12.03,25.47,16.44,31.97.09,7.42,1.55,16.17.23,23.34-1.32,7.15-6.01,7.14-6.63,8.29l-6.69-3.35c7.29-17.22-1.04-47.14-20.08-53.55,2.13-5.17,3.09-7.47,3.35-13.39,4.78.7,9.94,3.48,13.39,6.69Z"/>
  <path class="st7" d="M287,281.8c-.2,2.01-.24,4.71,0,6.69,1.48,12.12,17.07,37.68,26.78,43.51l-3.35,6.69c-10.12-7.59-41.12-45.76-46.86-56.9-1.06-2.05-3.33-11.08-3.35-13.39l26.78,13.39Z"/>
  <path class="st12" d="M116.3,141.22c.55.24.35,7.38,6.69,10.04l-3.35,20.08c-7.33-3.91-19.32-3.41-28.51-13.31-16.49-17.77,11.87-22.69,25.16-16.81Z"/>
  <path class="st27" d="M153.12,321.96c.4,1.04.39,8.66,0,10.04-1.57,5.6-2.31,9.18-3.35,13.39-.75,3.04-10.89,5.67-6.69,23.43h-13.39c1.48-5.08.73-14.09,3.33-20.06-3.16-.5-7.26.65-10.03-.02-3.3-13.17,7.58-9.96,15.19-16.63,4.51-3.96,5.45-9.12,8.24-13.49,1.48,1.21,6.39,2.56,6.69,3.35Z"/>
  <path class="st26" d="M129.69,151.26c1.36,14,13.44,22.48,13.39,33.47-.02,4.28-3.31,6.32-3.35,6.69-2.21.15-4.5-.23-6.69,0-.69-5.74-9.16-17.82-13.39-20.08l3.35-20.08c1.46.61,4.66-.41,6.69,0Z"/>
  <path class="st6" d="M129.69,114.44c2.7,3.88,1.99,1.54,6.69,10.04-7.27,7.6-7.68,16.64-6.69,26.78-2.03-.41-5.23.61-6.69,0-6.34-2.66-6.14-9.8-6.69-10.04.35-9.74,4.65-21.53,13.39-26.78Z"/>
  <path class="st7" d="M377.37,321.96c-6.02,11.06-15.19,23.11-26.78,26.78-1.01-1.1-6.31-6.42-6.69-6.69-.2-2.18.3-4.56,0-6.69,10.13,3.12,23.25-8.41,26.78-16.74l6.69,3.35Z"/>
  <path class="st12" d="M330.51,70.93c.4-3.5,3.53-19.99,5.28-20.28l14.62.37c-.61,6.87,2.93,13.73,3.52,19.9h-23.43Z"/>
  <path class="st8" d="M133.03,191.43c2.19-.23,4.49.15,6.69,0-.66,7.52-2.66,14.04,0,23.43-5.53.04-11.24-.4-16.74,0l3.83-23.05c1.31-1.35,4.32-.18,6.21-.38Z"/>
  <path class="st19" d="M347.25,101.05c-1.75,17.12-.89,13.57,10.04,20.08l-3.35,10.04c-3.28-.35-6.73.23-10.04,0,1.36-11.63-2.94-18.7,3.35-30.12Z"/>
  <rect class="st22" x="417.55" y="415.71" width="6.66" height="3.28"/>
  <path class="st12" d="M333.86,101.05c0-.37-3.27-.75-3.35-6.69l3.35,6.69Z"/>
  <path class="st12" d="M350.59,97.71l3.35-3.35c-.32,1.6-2.98,2.59-3.35,3.35Z"/>
  <path class="st27" d="M143.08,238.29c.67.32,1.33,4.08,3.45,5.05,9.92,4.56,16.58-1.43,23.33-8.4,6.98,2.28,35.83,9.36,36.82,0,7.47,2.71,15.77,4.45,23.43,6.69,0,5.06.64,11.02-5.52,13.06l-44.68-2.99c.36,3.64,11.29,9.61,13.39,10.01-1.2,2.18-2.07,4.57-3.35,6.69-21.27.25-39.25-9.54-56.9-20.08-1.29-.77-3.16-6.21-6.69-6.69.87-1.92-.65-7.15.02-10.04,1.26-1.15,13.58,5.18,16.72,6.69Z"/>
  <path class="st24" d="M193.28,261.71c7.08,1.35,34.77-1.68,36.83.02-.15,2.17.29,4.53-.01,6.68h-6.69s0,6.69,0,6.69c-2.21.14-4.5-.21-6.69,0-21.3,2.03-33.5,17.74-46.86,33.47-.43.51,1.15,4.05-.69,5.88-2.2,2.19-12.83,2.83-16.04,7.5-.3-.78-5.22-2.14-6.69-3.35.51-.8-.52-2.59,0-3.35,2.25-3.3,4.44-6.84,6.69-10.04,10.78-15.3,29.01-23.82,36.82-36.82,1.28-2.13,2.15-4.52,3.35-6.69Z"/>
  <path class="st26" d="M133.03,248.33c-20.72,21.69-11.53,55.29,20.08,56.9-2.25,3.2-4.44,6.74-6.69,10.04-31.12-4.77-44.02-25.64-34.6-56.35,3.43-11.18,13.57-15.2,14.52-17.28,3.53.48,5.41,5.93,6.69,6.69Z"/>
  <path class="st3" d="M169.85,198.12c.6.68,0,4.37,1.81,6.52,4.1,4.87,12.58,6.2,14.92,13.56-3.42-1.03-6.72-1.98-10.01-3.34l-.03,6.69c-20.3-9.42-15.11-2.58-26.78-3.35-2.21-.15-6.41-3.37-10.04-3.35-2.66-9.39-.66-15.91,0-23.43.03-.37,3.33-2.41,3.35-6.69,14.52-1.7,18.6,4.2,26.78,13.39Z"/>
  <path class="st5" d="M176.55,221.55c8.5,3.95,21.6,10.3,30.12,13.39-.98,9.36-29.84,2.28-36.82,0-4.38-1.43-13.4-6.92-16.74-10.04-1.33-1.25-2.03-4.9-3.35-6.69,11.67.77,6.48-6.07,26.78,3.35Z"/>
  <path class="st22" d="M169.85,234.94c-6.75,6.97-13.41,12.96-23.33,8.4-2.12-.97-2.78-4.73-3.45-5.05-2.08-7.95,7.32-7.02,10.04-13.39,3.34,3.13,12.36,8.61,16.74,10.04Z"/>
  <path class="st22" d="M367.33,168l3.35,3.35c-1.23,4.99-1.6,7.79-3.35,13.39-15.18-1.39-10.97,5.37-13.39,13.39-3.61,11.98-4.52,12.83-10.04,23.43-10.84,20.8-1.57,9.63.03,15.56,2.3,8.51-1.49,11.88-3.38,17.91-.77-5-7.95-5.86-10.04-10.04-1.18-2.37,2.14-10.02-1.7-10.07-9.33,4.56-14.95,7.12-25.07,10.07,1.29-1.73,2.07-5.64,3.35-6.69,4.38-3.61,6.19-6.42,6.69-6.69,2.05-1.14,9.15,2.2,10.08-1.67-.01-3.07-6.95-1.55-10.08-1.67-1.11-.04-2.23.02-3.35,0l-3.35-6.69c9.26-2.57,12.03-2.09,20.08-3.35,3.19-.5,6.42.15,8.41-3.32,2.3-3.43.8-8.34,1.63-10.07,8.03-16.72,5.62-24.63,16.74-40.17h3.35l10.04,3.35Z"/>
  <path class="st19" d="M340.55,255.02c-1.12,3.56,1.18,6.88-3.3,11.65-3,3.19-25.91,11.65-30.17,11.78l-6.69-3.35c-11.78-1.87-15.48-.49-23.43-10.04v-3.35c7.73-.26,15.76.67,23.43,0,14.31-1.25,26.28-3.87,40.17-6.69Z"/>
  <path class="st16" d="M266.92,234.94c1.12,0,2.23,0,3.35,0,12.46-.08,24.82-1.06,36.82,3.35-1.27,1.05-2.06,4.96-3.35,6.69-16.05,4.68-29.48,9.01-46.87,6.68-2.4-5.58,3.41-13.82,3.35-16.72,2.23,0,4.46,0,6.69,0Z"/>
  <path class="st2" d="M293.69,211.51c-3.86,2.05-9.22,7.59-14.48,10.75-7.19,4.31-15.23-1.34-12.3,12.68-2.23,0-4.46,0-6.69,0-.09-4.61-4.1-10.95-3.35-20.08,5.37-2.08,11.2-2.18,16.74-3.35,5.58-1.18,15.04-8.06,20.08,0Z"/>
  <path class="st24" d="M330.51,244.98c2.09,4.19,9.27,5.04,10.04,10.04-13.89,2.82-25.85,5.44-40.17,6.69,10.45-6.23,17.45-19.88,30.12-16.74Z"/>
  <path class="st0" d="M353.94,244.98c.24,2.09.09,4.56,0,6.69-.26,5.92-1.22,8.21-3.35,13.39-8.36,20.34-23.03,20.99-43.51,23.43-2.18.26-4.5-.22-6.69,0s-4.5,0-6.69,0l-6.67-13.39c-.3,2.2.19,4.51-.03,6.7l-26.78-13.39c-.01-1.12,0-2.23,0-3.35l6.69-3.35c1.97-.36,4.49.13,6.69,0,.99,1.22,2.35,2.15,3.35,3.35,7.95,9.56,11.65,8.17,23.43,10.04.37.06-.1,3.57,6.69,3.35,4.25-.14,27.17-8.6,30.17-11.78,4.48-4.76,2.19-8.09,3.3-11.65,1.89-6.03,5.68-9.41,3.38-17.91-1.6-5.93-10.87,5.24-.03-15.56,5.99,5.22,9.17,15.9,10.04,23.43Z"/>
  <path class="st9" d="M186.59,218.2c.98.3,2.25-.25,3.35,0l3.35,3.35c1.07.22,2.27-.19,3.35,0,11.42,14.54,33.43-3.89,33.47,20.08-7.66-2.25-15.96-3.99-23.43-6.69-8.52-3.09-21.62-9.44-30.12-13.39l.03-6.69c3.29,1.36,6.59,2.31,10.01,3.34Z"/>
  <path class="st27" d="M230.1,268.41c-.27,1.93-3.25,4.9-3.35,6.69h-3.35v-6.69s6.69,0,6.69,0Z"/>
  <path class="st17" d="M266.92,261.71l-6.69,3.35c0-4.21,4.05-2.87,6.69-3.35Z"/>
  <path class="st17" d="M276.96,265.06c-.99-1.19-2.36-2.13-3.35-3.35,1.11-.06,2.23.04,3.35,0v3.35Z"/>
  <path class="st19" d="M360.64,134.53c-1.32-.78-2.33-2.21-3.35-3.35,1.59.38,2.83,1.8,3.35,3.35Z"/>
  <path class="st8" d="M293.69,288.49c2.2,0,4.53.22,6.69,0,2.06,18.69,24.99,28.04,30.12,46.86-3.03-1.55-12.65-.89-16.74-3.35-9.71-5.83-25.3-31.39-26.78-43.51h6.69Z"/>
  <path class="st26" d="M307.08,288.49c11.2,12.22,34.29,29.12,36.82,46.86.3,2.13-.2,4.51,0,6.69-1.69-1.2-10.09-5.01-13.39-6.69-5.14-18.81-28.06-28.17-30.12-46.86,2.19-.22,4.52.26,6.69,0Z"/>
  <path class="st10" d="M136.38,124.48c.17.31,4.5-1.15,6.54,2.5,12.76,22.84,19.82,51.23,40.32,71.13-3.49-.94-9.35.65-13.39,0-8.18-9.19-12.26-15.09-26.78-13.39.05-11-12.03-19.47-13.39-33.47-.99-10.14-.58-19.18,6.69-26.78Z"/>
  <path class="st1" d="M153.12,117.79c35.91,3.39,46.12,46.93,46.86,76.98-21.61-12.35-33.2-42.75-44.26-64.68-2.26-4.49-1.59-10.19-2.6-12.3Z"/>
  <path class="st15" d="M313.78,194.77c-1.94,2.83-12.1,6.98-13.39,13.39-1.49.17-4.85,2.37-6.69,3.35-5.05-8.06-14.5-1.18-20.08,0,1.93-5.2,5.81-7.2,10.04-10.04,11.14-7.47,21.21-15.27,31.82-23.41,4.06,3.41.79,13.09-1.7,16.71Z"/>
  <path class="st19" d="M340.55,144.57l3.35-10.04c-.46,3.81.58,7.36-3.35,10.04Z"/>
  <path class="st6" d="M216.71,275.1c-11.39,8.77-20.13,20.1-30.12,30.12l-16.74,3.35c13.36-15.73,25.56-31.44,46.86-33.47Z"/>
  <path class="st10" d="M153.12,332c.39-1.38.4-9,0-10.04,3.22-4.67,13.84-5.31,16.04-7.5,1.84-1.84.26-5.37.69-5.88l16.74-3.35c-9.9,9.93-17.58,25.24-33.47,26.78Z"/>
  <path class="st3" d="M193.28,221.55l-3.35-3.35c2.17.51,3.12,3.3,3.35,3.35Z"/>
  <path class="st21" d="M370.68,318.62c-3.52,8.32-16.65,19.85-26.78,16.74-2.53-17.74-25.62-34.64-36.82-46.86,20.48-2.44,35.15-3.09,43.51-23.43,19.04,6.41,27.37,36.34,20.08,53.55Z"/>
  <path class="st17" d="M293.69,288.49h-6.69c-.24-1.99-.2-4.68,0-6.69.22-2.19-.28-4.49.03-6.7l6.67,13.39Z"/>
  <path class="st14" d="M189.93,268.41c-7.81,13-26.04,21.52-36.82,36.82-31.61-1.61-40.8-35.21-20.08-56.9,17.65,10.54,35.63,20.33,56.9,20.08Z"/>
  <path class="st23" d="M327.16,218.2c-8.05,1.26-10.82.78-20.08,3.35-1.95.54-5.26-.65-6.69,0-3.5,1.58-3.79,2.99-3.35,6.69l-26.78,6.69c-1.12,0-2.23,0-3.35,0-2.94-14.02,5.1-8.37,12.3-12.68,5.26-3.15,10.62-8.7,14.48-10.75,1.84-.98,5.2-3.17,6.69-3.35,8.21-.96,22.88,1.83,26.78,10.04Z"/>
  <path class="st17" d="M337.21,204.81c-.83,1.73.67,6.64-1.63,10.07-1.98,3.47-5.22,2.82-8.41,3.32-3.9-8.21-18.57-11-26.78-10.04,1.28-6.4,11.45-10.56,13.39-13.39,9.1-.64,19.18,1.19,23.43,10.04Z"/>
  <path class="st5" d="M297.04,228.24c3.34,5.09,5.96.01,6.69,0,2.23-.04,4.47-.05,6.69,0,1.11.02,2.23-.04,3.35,0v3.35c-.5.28-2.32,3.08-6.69,6.69-12-4.41-24.36-3.42-36.82-3.35l26.78-6.69Z"/>
  <path class="st24" d="M357.29,161.3c.62-.66-1.89-6.16,2.02-6.87l14.79,1.79,3.37,10.12c-.65,3.06-5.81.97-6.8,1.65h-3.35l-10.04-3.35v-3.35Z"/>
  <path class="st7" d="M367.33,184.73c-2.61,8.37,3.43,11.62-13.39,13.39,2.42-8.02-1.79-14.78,13.39-13.39Z"/>
  <path class="st27" d="M307.08,221.55l3.35,6.69c-2.23-.05-4.47-.04-6.69,0l-3.35-6.69c1.44-.65,4.74.54,6.69,0Z"/>
  <path class="st17" d="M313.78,228.24c3.13.12,10.06-1.4,10.08,1.67-.93,3.87-8.02.53-10.08,1.67v-3.35Z"/>
  <path class="st7" d="M370.68,171.34l-3.35-3.35h3.35c-.42.29.28,2.2,0,3.35Z"/>
  <path class="st7" d="M357.29,164.65h-3.35c.93-1.3,2.28-2.2,3.35-3.35v3.35Z"/>
  <path class="st17" d="M307.08,278.45c-6.8.22-6.32-3.29-6.69-3.35l6.69,3.35Z"/>
  <path class="st17" d="M303.74,228.24c-.73.01-3.35,5.09-6.69,0-.44-3.7-.15-5.11,3.35-6.69l3.35,6.69Z"/>
</svg>