<?xml version="1.0" encoding="UTF-8"?>
<svg id="Layer_1" xmlns="http://www.w3.org/2000/svg" version="1.1" viewBox="0 0 500 500">
  <!-- Generator: Adobe Illustrator 29.8.4, SVG Export Plug-In . SVG Version: 2.1.1 Build 6)  -->
  <defs>
    <style>
      .st0 {
        fill: #eab276;
      }

      .st1 {
        fill: #99a6b3;
      }

      .st2 {
        fill: #ebb57a;
      }

      .st3 {
        fill: #dba76e;
      }

      .st4 {
        fill: #697379;
      }

      .st5 {
        fill: #85919a;
      }

      .st6 {
        fill: #be7f43;
      }

      .st7 {
        fill: #4d729c;
      }

      .st8 {
        fill: #cdd8e2;
      }

      .st9 {
        fill: #e7b785;
      }

      .st10 {
        fill: #d29457;
      }

      .st11 {
        fill: #40557e;
      }

      .st12 {
        fill: #cdcbc9;
      }

      .st13 {
        fill: #b88d5a;
      }

      .st14 {
        fill: #bcb9b1;
      }
    </style>
  </defs>
  <path class="st10" d="M238.02,292.76c2.79-2.24,7.12-2.9,10.61-3.54,6,19.11.25,22.64-.17,40.5-.68,29.17,1.26,57.88,3.7,86.81-6.88.38-12.34-2.5-18.56-4.4-46.18-14.06-94.83-42.21-140.57-59.26l-3.54-3.54c-1.56-22.89,2.14-48.21,0-70.72,2.44-.98,4.67-2.49,7.07-3.54l108.18,46.03c13.9.81,24.03-20.94,33.27-28.35Z"/>
  <path class="st6" d="M397.15,335.2c-.9.06-17.02,2.94-17.68,3.55-4.03,3.68,9.98,14.56-10.61,24.74-4.01,1.99-11.06,5.77-14.14,7.07-6.23,2.63-14.95,2.96-21.22,7.07-10.09-4.04-27.37-1.46-35.38,5.28-5.19,4.37-4.01,13.61-3.52,19.47-14.19-.61-29.66,13.43-42.43,14.14-2.44-28.93-4.38-57.64-3.7-86.81.42-17.86,6.17-21.39.17-40.5-.57-1.81.38-4.87,0-7.07,1.25.83,5.96-.84,7.07,0,1,.75,2.09,2.35,3.54,3.54.46.37.04,5.75,3.63,8.6,5.62,4.47,32.69,26.53,36.38,26.21,32.05-13.84,62.91-30.52,94.37-45.42.96-.46,2.57.46,3.54,0v60.12Z"/>
  <path class="st9" d="M82.43,172.53c1.06-.23,2.36.07,3.54,0,7.16,11,15.43,22.64,24.75,31.83l-17.67,14.09c10.82,2.68,21.64,6.12,31.82,10.66,13.98,6.23,26.81,15.32,42.43,17.68-1.3.27-3.51,3.94-8.58,3.78-13.78-.44-34.49-14.85-49.48-4.17-8.48,6.04,9.11,19.23-12.67,28.68-2.4,1.04-4.63,2.56-7.07,3.54-1.43-15-35.43-15.19-45.94-26.57l38.75-35.56c.13-10.53-30.26-21.46-31.34-23.12-7.93-12.15,22.85-19,31.45-20.84Z"/>
  <path class="st5" d="M82.43,172.53c-2.11-10.24-21.23-24.8-21.26-33.66-.02-4.89,12.51-17.92,16.67-19.01,11.37-2.99,29.6,27.11,36.45,35.94,2.54,3.27,6.81,2.29,7.04,2.59.59.78.03,8.12,3.29,12.46,8.3,11.06,15.25,25.73,32.07,22.9-10.8,13.83-12.12,25.49,7.07,28.29-1.04,4.82,10.73,15.82,14.14,17.68,1.62,11.15-2.78,5.43-7.07,7.07-.92.35-2.32-.25-3.54,0-15.63-2.36-28.46-11.45-42.43-17.68-.21-7.48-4.01-14.7-7.07-21.22-6-12.78-15.93-25.17-24.87-37.43-4.46-3.41-6.5,2.04-6.96,2.07-1.18.07-2.48-.23-3.54,0ZM154.92,225.57v3.54c2.3-1.18,2.3-2.36,0-3.54Z"/>
  <path class="st9" d="M404.22,214.97c6.58,6.18,40.74,29.13,38.91,37.06-1.26,5.47-38.31,19.42-45.98,23.06-.96.46-2.57-.46-3.54,0,1.8-16.82-15.29-17.92-25.01-26.3-4.34-3.75-6.61-11.89-7.19-12.3s-9.97,2.57-13.77,3.24v-3.54c7.33.66,15.48-9.69,17.68-10.61,2.89-1.21,7.06-2.22,10.61-3.54,4.24-1.58,19.99-2.12,28.29-7.07Z"/>
  <path class="st3" d="M329.96,98.27c-9.35,23.81-25.29,38.62-27.9,65.91-2.28,23.79,3.54,12.37,13.76,18.96.32.21-.96,4.33.97,6.21,3.17,3.08,12.38-3.26,9.62,7.89l-24.72.06c7.41,24.33,35.06,5.86,28.27-14.16,3.56,1.1,7.43,1.27,10.61,3.54,2.82,2.01,3.78,3.5,3.54,7.07-7.42,2-10.63,12.57-15.88,17.84-4.87,4.9-10.84-.83-12.41,10.45l-24.74-3.54c-4.12,21.39,6.25,21.48,24.74,21.22v10.61c-7.28,2.84-23.34,8.15-28.29,10.61.18-1.1,0-2.4,0-3.54s.09-2.37,0-3.54c-.29-3.87,1.18-8.79-3.54-10.61.22-2.32-.2-4.75,0-7.07.14-1.54,2.81-8.09,3.54-14.14.41-3.45-.41-7.16,0-10.61,2.5-21.01,7.11-34.33,7.07-56.58-.01-6.55,1.37-19.94,0-24.75,17.86-9.56,15.22-20.72,35.36-31.83ZM308.73,190.25c-14.71-1.76-14.71,5.22,0,3.46v-3.46Z"/>
  <path class="st13" d="M383.01,108.88c2.28-.29,4.75.13,7.05,0,1.01,12.51-5.95,23.39.02,35.36-4.3,10.86-5.86,12.43-10.17,20.67-3,5.75-10.45,27.34-11.54,28.42-1.68,1.66-7.19.12-10.12.42-4.36.45-10.63-.95-14.14,0,.24-3.58-.71-5.06-3.54-7.07,2.19-3.21,2.4-7.07,3.54-10.61,3.27-10.16,8.38-31.25,14.14-38.9.84-1.12,7.08-1.72,9.42-4.57,5.45-6.63,13.28-15.42,15.33-23.72Z"/>
  <path class="st1" d="M287.53,126.56c-1.45,11.03-26.23,16.39-27.75,18.18-1.91,2.24-.37,15.68-.54,20.72-.04,1.18.02,2.36,0,3.54l-38.9-14.14c-.02-1.18.03-2.36,0-3.54-.12-4.67.41-9.52,0-14.14,4.52.5,9.89-.72,14.14,0,12.76,2.17,15.71,6.38,10.61-14.14,3.09-2.5,9.87-10.45,14.14-10.61,12.34-.47,20.87,6.43,28.29,14.14Z"/>
  <path class="st10" d="M195.59,91.2v3.54c-11.61,17.3-35.37,19.13-21.22,45.97-.85.48-3.01-.65-4.71.09-4.19,1.84-1.09,11.11-20.05,3.44-1.14-1.19-2.22-2.53-3.54-3.54-12.43-9.54-9.72-14.45-10.61-28.29,3.73-6.73,17.17,6.46,21.1,3.51.74-.56,1.27-11.32,7.33-15.76,1.14-.83,22.66-8.63,24.62-8.97,1.72-.3,5.45-.35,7.07,0Z"/>
  <path class="st3" d="M220.34,126.56c.66.86-.25,7.77,0,10.61.41,4.63-.12,9.48,0,14.14-3.55-7.76-37.5-4.97-38.92-3.56-1.04,1.03.78,13.79,0,17.71l-35.35-7.08c-.65-2.62.08-7.33,0-10.61-.03-1.18.02-2.36,0-3.54h3.54c18.96,7.67,15.86-1.6,20.05-3.44,1.7-.75,3.86.38,4.71-.09,11.23-6.32,32.98-16.5,31.83-31.83,6.99,15.22,10.57,13.02,14.14,17.68Z"/>
  <path class="st0" d="M407.76,172.53c5.26-.78,35.11,4.4,31.8,12.33-.9,2.14-32.15,28.21-35.33,30.11-8.3,4.95-24.05,5.5-28.29,7.07,9.83-13.9,17.18-28.85,25.35-43.74,1.75-3.19,6.1-5.02,6.47-5.77Z"/>
  <path class="st7" d="M414.83,144.24c-15.5.86-27.96,30.53-34.94,44.63-5.57,11.27-10.12,24.84-14.57,36.7-2.2.92-10.35,11.26-17.68,10.61-8.61-12.67,18.4-27.26,10.61-42.43,2.93-.3,8.44,1.24,10.12-.42,1.09-1.08,8.53-22.67,11.54-28.42,4.3-8.24,5.87-9.81,10.17-20.67,1.2-3.03,3.53-7.95,5.37-10.68,3.06.02,16.95,8.07,19.39,10.68Z"/>
  <path class="st14" d="M220.34,126.56c4.61-5.1,18.46-7.41,21.18-12.43,4.06-7.47-8.25-3.52-10.93-7.32s-5.01-22.14-2.68-25.75c1.93-2.99,44.42-14.51,49.03-11.07.46.35-.11,5.52-.02,7.06-24.65,5.12-37.26,2.02-31.8,31.81,1,1.12,11.02-2.55,14.12-3.52v7.07c-4.27.16-11.05,8.11-14.14,10.61-3.5,2.83-13.52.23-10.61,14.14-4.26-.72-9.63.5-14.14,0-.25-2.84.66-9.75,0-10.61Z"/>
  <path class="st7" d="M333.5,377.63c1.22.49,1.66,6.5,10.61,7.07v3.54c-4.34,6.7-13.14,6.85-18.81,10.57-3.08,2.02-2.15,6.84-2.47,7.05-7.21,4.74-6.84-4.71-8.19-5.65-21.25-14.84-15.8,12.47-.53,16.36,2.91.74.24-7.99,3.46-7.1,4.16,1.15,9.38,11.98,1.79,14.13-15.36-2.84-23.26-3.28-24.75-21.22-.49-5.86-1.66-15.11,3.52-19.47,8.01-6.74,25.29-9.33,35.38-5.28Z"/>
  <path class="st0" d="M146.08,147.78c.08,3.28-.65,7.99,0,10.61,3.43,13.78,7.25,17.74,21.22,21.22-.7,1.08.46,5.03,0,7.07-.91.15-9.88,6.14-10.61,7.07-16.82,2.83-23.78-11.84-32.07-22.9-3.26-4.34-2.7-11.68-3.29-12.46,6.18-6.94,15.57-10.57,24.75-10.61Z"/>
  <path class="st11" d="M414.83,144.24c.91.97,3.98-.26,3.12,4.56-6.66,6.32-7.42,18.17-10.19,23.73-.37.75-4.72,2.58-6.47,5.77-8.17,14.89-15.52,29.84-25.35,43.74-3.55,1.32-7.71,2.32-10.61,3.54,4.45-11.86,9-25.43,14.57-36.7,6.98-14.1,19.43-43.77,34.94-44.63Z"/>
  <path class="st3" d="M404.22,335.2l3.54,3.54c1.45,1.13,4.2,1.49,5.24,3.61,1.31,2.69,1.19,4.72,1.83,6.99-29.64,3.17-20.07,16.48-17.68,38.9-9.24-.21-13.13-4.95-21.22-7.07,1.01-8.8,2.66-20.82-7.07-17.68,20.59-10.19,6.58-21.07,10.61-24.74.67-.61,16.78-3.48,17.68-3.55,2.1-.14,5.27-.38,7.07,0Z"/>
  <path class="st6" d="M329.96,98.27c5.11-2.82,8.56-9.62,17.67-7.09.89,3.63-1.14,12.19.01,14.17-7.46,3.93-12.13,7.75-17.68,14.14-.39.45.77,3.76-.95,6.05-1.94,2.59-7.01,2.88-10.49,8.98-8.6,15.09-5.81,22.99-2.71,38.02.43,2.1-.29,4.81,0,7.07v3.54c-10.21-6.59-16.03,4.83-13.76-18.96,2.61-27.29,18.55-42.1,27.9-65.91Z"/>
  <path class="st11" d="M344.11,388.24c9.07-2.23,8.22,6.83,7.07,14.14-1.88,11.99-11.93,22.37-24.06,24.23-5.55.85-6.81-2.84-7.77-3.02,7.59-2.16,2.38-12.98-1.79-14.13-3.22-.89-.55,7.84-3.46,7.1-15.26-3.9-20.71-31.2.53-16.36,1.35.94.98,10.39,8.19,5.65.31-.21-.62-5.03,2.47-7.05,5.67-3.72,14.47-3.87,18.81-10.57Z"/>
  <path class="st6" d="M206.19,108.88c1.16,15.32-20.59,25.51-31.83,31.83-14.16-26.84,9.61-28.67,21.22-45.97h3.54c9.54,7.7,4.47,8.48,7.07,14.14Z"/>
  <path class="st5" d="M294.6,130.1c1.37,4.81-.01,18.2,0,24.75-13.02.8-22.13,12.65-35.36,10.61.17-5.04-1.36-18.48.54-20.72,1.52-1.79,26.29-7.15,27.75-18.18.59.61,6.05-.07,7.07,3.54Z"/>
  <path class="st3" d="M188.51,91.2c-1.96.34-23.48,8.14-24.62,8.97-6.06,4.44-6.58,15.2-7.33,15.76-3.92,2.94-17.37-10.24-21.1-3.51-.03-.42-3.49-2.01-2.97-4.7,15.19-11.9,40.34-39.42,56.01-16.51Z"/>
  <path class="st14" d="M383.01,108.88c-2.05,8.3-9.88,17.09-15.33,23.72-2.34,2.84-8.58,3.45-9.42,4.57,4.02-17.82-17.35-11.1-28.29-17.68,5.55-6.39,10.22-10.21,17.68-14.14.56.96,18.27,10.69,19.38,10.68,4.51-.05,9.27-6.3,15.98-7.14Z"/>
  <path class="st10" d="M414.83,349.34c5.47,19.35,8.46,39.5-17.68,38.9-2.39-22.42-11.96-35.72,17.68-38.9Z"/>
  <path class="st5" d="M276.92,77.05c1.2,20.56,1.63,22.22-17.68,28.29-3.1.98-13.12,4.64-14.12,3.52-5.45-29.79,7.15-26.69,31.8-31.81Z"/>
  <path class="st5" d="M372.4,384.7c-3.53,14.54,4.49,17.42-21.22,17.68,1.15-7.31,1.99-16.38-7.07-14.14v-3.54c6.8.43,16.25-1.92,21.22-7.07,2.89,2.05,5.98,3.22,7.07,7.07Z"/>
  <path class="st8" d="M368.86,363.49c9.73-3.14,8.08,8.88,7.07,17.68-.11,1-3.28,2.5-3.54,3.54-1.09-3.85-4.18-5.02-7.07-7.07-3.46-2.45-7.38-4.27-10.61-7.07,3.08-1.3,10.13-5.09,14.14-7.07Z"/>
  <path class="st0" d="M149.61,144.24h-3.54v-3.54c1.32,1.01,2.39,2.34,3.54,3.54Z"/>
  <path class="st3" d="M199.12,94.73h-3.54v-3.54c1.39.3,2.43,2.64,3.54,3.54Z"/>
  <path class="st9" d="M93.03,352.88l-3.54-3.54,3.54,3.54Z"/>
  <path class="st9" d="M407.76,338.73l-3.54-3.54c1.42.3,2.45,2.69,3.54,3.54Z"/>
  <path class="st2" d="M167.3,246.79c1.21-.25,2.61.35,3.54,0v3.54c.54,4.46,4.57,2.75,7.07,3.54,9.88,3.12,26.41,6.73,35.36,10.61.51,1.61,1.9,3.25,3.54,3.54,4.41,9.55,3.63,26.89,21.22,24.75-9.24,7.41-19.37,29.17-33.27,28.35l-108.18-46.03c21.78-9.45,4.19-22.64,12.67-28.68,14.99-10.68,35.7,3.73,49.48,4.17,5.07.16,7.27-3.51,8.58-3.78Z"/>
  <path class="st9" d="M248.63,282.15c.38,2.21-.57,5.26,0,7.07-3.49.64-7.82,1.3-10.61,3.54-17.59,2.14-16.8-15.21-21.22-24.75,1.18.21,2.48-.27,3.54,0,15.64,4.05,15.91,5.89,28.29,14.14Z"/>
  <path class="st0" d="M393.62,275.08c-31.46,14.9-62.32,31.59-94.37,45.42-3.69.31-30.76-21.74-36.38-26.21-3.58-2.85-3.17-8.23-3.63-8.6,6.45-3.99,11.97-9.23,17.68-14.14,1.26-1.08,2.3-2.61,3.54-3.54,10.08,1.13,6.04-.79,7.07-7.07,4.95-2.46,21.01-7.77,28.29-10.61,12.07-4.71,18.24-8.21,31.83-10.61,3.8-.67,13.19-3.64,13.77-3.24s2.85,8.55,7.19,12.3c9.71,8.39,26.81,9.48,25.01,26.3Z"/>
  <path class="st8" d="M259.24,225.57c10.81,1.27,16.24,3.6,24.75,10.61-.2,2.33.22,4.75,0,7.07-.29,3.11-.37,7.57,0,10.61-13.89.85-15.55,8.05-21.22,17.68-2.15,3.65-4.88,6.98-7.07,10.61-1.11-.84-5.82.83-7.07,0-12.38-8.25-12.65-10.09-28.29-14.14v-31.83c5.53-2.74,11.82-9.41,17.68-10.61,4.32-.89,16.35-.57,21.22,0ZM266.29,246.76c6.48-9.03-24.69-21.78-28.26-5.22-2.77,12.84,25.93,8.46,28.26,5.22Z"/>
  <path class="st14" d="M354.72,370.56c3.23,2.81,7.15,4.62,10.61,7.07-4.96,5.15-14.42,7.51-21.22,7.07-8.95-.57-9.39-6.58-10.61-7.07,6.27-4.11,14.98-4.44,21.22-7.07Z"/>
  <path class="st9" d="M276.92,271.54c-5.72,4.91-11.23,10.15-17.68,14.14-1.45-1.18-2.54-2.78-3.54-3.54,2.19-3.63,4.92-6.96,7.07-10.61h14.14Z"/>
  <path class="st13" d="M117.79,207.89c3.06,6.51,6.86,13.74,7.07,21.22-10.17-4.54-21-7.98-31.82-10.66l17.67-14.09c1.46,1.44,5.11,2.15,7.07,3.54Z"/>
  <path class="st4" d="M85.96,172.53c.46-.03,2.5-5.47,6.96-2.07,8.94,12.26,18.86,24.65,24.87,37.43-1.96-1.39-5.61-2.1-7.07-3.54-9.33-9.19-17.6-20.83-24.75-31.83Z"/>
  <path class="st7" d="M213.27,183.14c-2.13,10.61,4.41,5.69,7.07,7.07,19.58,10.19,26.9,10.18,17.68,35.36-5.86,1.2-12.15,7.87-17.68,10.61-.95.47-2.6-.47-3.54,0-2.89-8.15,21.05-28.61,5.23-31.84-17.5-3.57-14.34,25.96-21.48,28.17-11.2.97-20.63-10.2-29.9-12.6-4.92-1.27-6.54,2.18-6.89,2.12-19.19-2.8-17.87-14.46-7.07-28.29.73-.94,9.7-6.93,10.61-7.07,7.79-1.25,15.33,3.58,22.77,3.32,8.21-.29,11.84-5.61,16.13-6.85,1.7-.49,4.8.11,7.07,0ZM176.19,197.3c-9.02,2.06-6.77,21.33,6.98,17.63,11.07-2.98.51-19.34-6.98-17.63Z"/>
  <path class="st11" d="M216.8,236.18c-5.6,2.83-9.79,10.45-15.81,10.58-1.21.03-22.03-6.47-23.09-7.04-3.41-1.86-15.18-12.86-14.14-17.68.36.05,1.97-3.39,6.89-2.12,9.27,2.39,18.7,13.56,29.9,12.6,7.14-2.2,3.98-31.74,21.48-28.17,15.82,3.23-8.12,23.69-5.23,31.84Z"/>
  <path class="st13" d="M220.34,236.18v31.83c-1.05-.27-2.35.21-3.54,0-.99-2.14-1.33-2.58-3.54-3.54-8.95-3.88-25.49-7.49-35.36-10.61l-7.07-3.54v-3.54c4.29-1.64,8.69,4.08,7.07-7.07,1.06.58,21.88,7.07,23.09,7.04,6.03-.13,10.22-7.75,15.81-10.58.94-.47,2.59.47,3.54,0Z"/>
  <path class="st7" d="M154.92,225.57c2.3,1.18,2.3,2.36,0,3.54v-3.54Z"/>
  <path class="st6" d="M358.25,193.75c7.79,15.18-19.22,29.76-10.61,42.43v3.54c-13.59,2.4-19.75,5.9-31.83,10.61v-10.61c0-5.58-.72-12.5,0-17.68,1.58-11.28,7.54-5.55,12.41-10.45,5.25-5.28,8.45-15.84,15.88-17.84,3.52-.95,9.78.45,14.14,0Z"/>
  <path class="st4" d="M294.6,154.85c.04,22.25-4.57,35.57-7.07,56.58-3.75,2.68-5.55,9.4,0,10.61-.72,6.06-3.4,12.61-3.54,14.14-8.51-7.01-13.94-9.34-24.75-10.61.28-18.81-.4-37.77,0-56.58.02-1.18-.04-2.36,0-3.54,13.23,2.04,22.34-9.81,35.36-10.61Z"/>
  <path class="st10" d="M315.82,222.04c-.72,5.18,0,12.1,0,17.68-18.48.26-28.86.17-24.74-21.22l24.74,3.54Z"/>
  <path class="st10" d="M322.89,179.6c.65,1.52,1.95,3.12,3.54,3.54,1.12.29,2.48-.33,3.54,0,6.8,20.02-20.86,38.49-28.27,14.16l24.72-.06c2.76-11.15-6.45-4.81-9.62-7.89-1.93-1.88-.65-6-.97-6.21v-3.54c2.26.32,5.06-.47,7.07,0Z"/>
  <path class="st14" d="M315.82,172.53l14.12-3.47,3.53-10.65,10.65,17.66c-1.14,3.54-1.35,7.4-3.54,10.61-3.17-2.27-7.05-2.44-10.61-3.54-1.06-.33-2.42.29-3.54,0-.5-1.68-1.84-3.14-3.54-3.54-2.01-.47-4.81.32-7.07,0-.29-2.26.43-4.97,0-7.07Z"/>
  <path class="st14" d="M283.99,253.86c.2,1.62,1.89,3.12,3.54,3.54,0,1.14.18,2.44,0,3.54-5.03,2.5-5.36,5.79-7.07,7.07-1.23.92-2.28,2.46-3.54,3.54h-14.14c5.67-9.63,7.32-16.83,21.22-17.68Z"/>
  <path class="st10" d="M287.53,253.86h-3.54c-.37-3.04-.29-7.5,0-10.61,4.71,1.82,3.25,6.74,3.54,10.61Z"/>
  <path class="st10" d="M308.73,190.25v3.46c-14.71,1.76-14.71-5.22,0-3.46Z"/>
  <path class="st10" d="M287.53,222.04c-5.55-1.21-3.75-7.93,0-10.61-.41,3.45.41,7.16,0,10.61Z"/>
  <path class="st0" d="M287.53,257.4c-1.64-.41-3.34-1.92-3.54-3.54h3.54c.09,1.16,0,2.37,0,3.54Z"/>
  <path class="st12" d="M329.96,119.49c10.94,6.58,32.31-.14,28.29,17.68-5.77,7.64-10.87,28.74-14.14,38.9l-10.65-17.66-3.53,10.65-14.12,3.47c-3.1-15.03-5.89-22.93,2.71-38.02,3.48-6.1,8.55-6.39,10.49-8.98,1.72-2.28.56-5.6.95-6.05Z"/>
  <path class="st5" d="M259.24,168.99c-.4,18.81.28,37.77,0,56.58-4.86-.57-16.89-.89-21.22,0,9.21-25.18,1.9-25.18-17.68-35.36v-7.07c0-9.41.2-18.89,0-28.29l38.9,14.14Z"/>
  <path class="st6" d="M220.34,151.31c.03,1.18-.02,2.36,0,3.54.2,9.4,0,18.88,0,28.29-2.35.07-4.72-.11-7.07,0s-5.37-.49-7.07,0c-7.07-11.11-32.26-13.76-38.9-3.54-13.97-3.48-17.79-7.43-21.22-21.22l35.35,7.08c.78-3.92-1.05-16.68,0-17.71,1.42-1.41,35.37-4.21,38.92,3.56Z"/>
  <path class="st5" d="M245.09,123.02c5.1,20.52,2.15,16.32-10.61,14.14-2.91-13.92,7.11-11.32,10.61-14.14Z"/>
  <path class="st4" d="M206.19,183.14c-4.29,1.24-7.92,6.56-16.13,6.85-7.44.26-14.98-4.56-22.77-3.32.46-2.05-.7-6,0-7.07,6.64-10.22,31.83-7.57,38.9,3.54Z"/>
  <path class="st9" d="M177.9,253.86c-2.5-.79-6.53.92-7.07-3.54l7.07,3.54Z"/>
  <path class="st8" d="M216.8,268.01c-1.63-.29-3.03-1.92-3.54-3.54,2.21.96,2.55,1.39,3.54,3.54Z"/>
  <path class="st9" d="M287.53,260.94c-1.03,6.28,3.01,8.21-7.07,7.07,1.71-1.28,2.04-4.57,7.07-7.07Z"/>
  <path class="st5" d="M266.29,246.76c-2.32,3.24-31.02,7.63-28.26-5.22,3.57-16.56,34.73-3.81,28.26,5.22Z"/>
  <path class="st11" d="M176.19,197.3c7.49-1.71,18.06,14.64,6.98,17.63-13.76,3.71-16-15.57-6.98-17.63Z"/>
  <path class="st4" d="M220.34,183.14v7.07c-2.66-1.38-9.2,3.54-7.07-7.07,2.35-.11,4.72.07,7.07,0Z"/>
  <path class="st3" d="M326.43,183.14c-1.58-.41-2.89-2.02-3.54-3.54,1.69.4,3.04,1.85,3.54,3.54Z"/>
</svg>