<?xml version="1.0" encoding="UTF-8"?>
<svg id="Layer_1" xmlns="http://www.w3.org/2000/svg" version="1.1" viewBox="0 0 500 500">
  <!-- Generator: Adobe Illustrator 29.8.4, SVG Export Plug-In . SVG Version: 2.1.1 Build 6)  -->
  <defs>
    <style>
      .st0 {
        fill: #c9d8e2;
      }

      .st1 {
        fill: #909eac;
      }

      .st2 {
        fill: #a87243;
      }

      .st3 {
        fill: #d89e66;
      }

      .st4 {
        fill: #90d8f3;
      }

      .st5 {
        fill: #78cae6;
      }

      .st6 {
        fill: #93a3ae;
      }

      .st7 {
        fill: #84919b;
      }

      .st8 {
        fill: #eef3f5;
      }

      .st9 {
        fill: #8e969c;
      }

      .st10 {
        fill: #bc7e46;
      }

      .st11 {
        fill: #a8b2be;
      }

      .st12 {
        fill: #b37b4a;
      }

      .st13 {
        fill: #d3a06b;
      }

      .st14 {
        fill: #68c9ec;
      }

      .st15 {
        fill: #f1dec7;
      }

      .st16 {
        fill: #9caab5;
      }

      .st17 {
        fill: #a2acb5;
      }

      .st18 {
        fill: #c8e9f4;
      }

      .st19 {
        fill: #ba8253;
      }

      .st20 {
        fill: #ddab77;
      }

      .st21 {
        fill: #9ba6af;
      }

      .st22 {
        fill: #8a9aaa;
      }

      .st23 {
        fill: #979ea5;
      }

      .st24 {
        fill: #bee6f2;
      }

      .st25 {
        fill: #dca36a;
      }

      .st26 {
        fill: #b1b8bb;
      }
    </style>
  </defs>
  <path class="st18" d="M120.24,363.05c-6.93-2.68-20.01-1.55-30.14-6.19-35.51-16.25-43.67-71.99-19.78-100.81,5.2-6.28,26.7-17.77,28.6-23.29,5.11-14.84-4.08-44.14,3.23-61.32-18.34-19.52-11.15-31.97,13.84-35.82,6.7-1.03,12.88-4.42,11.16,6.03-2.95.49-28.21,2.39-20.74,10.33,5.15,5.47,33.43,3.91,41.48,0l-6.91-10.33c.43,0,2.16-3.98,7.56-2.87,26.17,5.37,6.46,21.56,6.01,25.13-.98,7.69-1.08,67.64.82,70.61.91,1.43,24.91,10.6,27.04,19.65l24.3,43.15-20.76,10.38c.03-2.31-.04-4.61,0-6.92.39-22.76-3.11-12.88-6.92-17.3-.44-.51.86-4.81-2.37-6.99-3.76-2.54-29-13.64-32.22-13.76l3.46-24.22c-3.45-.08-6.92,0-10.38,0-11.36.02-21.1.3-16.73,15.01,1.18,3.99,5.88,4.92,6.35,5.75.68,1.2-.45,4.89,0,6.92-14.79.92-44.08.4-51.89,13.84-6.93,11.92-4.25,28.81,0,41.51.48,1.43,2.83,2.41,3.46,3.46,8.2,13.8,4.7,6.75,13.84,13.84,4.9,3.8,2.08,7.88,13.84,10.38,2.37.5,7.69.31,10.38,0,1.19-.14,2.47.26,3.46,0v13.84ZM165.19,248.91h-6.88v6.88h6.88v-6.88Z"/>
  <path class="st3" d="M244.77,259.27c16.02,7.03,29.54,22.38,46.77,27.62,11.36,3.45.04-15.38,1.67-17.22,5.18-2.18,9.35,3.32,10.37,6.89.75,2.64-.7,7.18.04,10.36,7.14,1.73,14.64-3.22,20.72-3.44,3.88-.14,9.56,3.03,13.84,3.46-2.12,11.29,4.45,9.28,5.64,11.56,2.27,4.33.19,9.11,4.74,12.66,2.2,1.72,22.5,12.31,27.89,15.37s10.13,6.14,17.08,5.39c0,2.3.11,4.63,0,6.92-16.39-.85-27.36,17.72-43.33,17.58-6.43-.06-18.37-9.75-25.86-14.12-10.44-6.09-20.49-11.47-31.13-17.3-14.65-8.01-40.1-26.77-55.35-27.67l-24.21-17.3c4.81-12.34,18.12-17.02,31.13-20.76Z"/>
  <path class="st1" d="M369.31,172.79c0,21.45,4.84,45.46-10.38,62.27-5.75-.67-13.52-3.71-18.31-2.88-5.93,1.03-23.24,12.02-26.66,13.25-7.1,2.56-13.48,4.71-20.76,6.92-1.85.56-4.85-.48-6.92,0-2.64-6.95-18.16-1.64-20.79-3.46l.03-6.91c2.59-.8,5.63-.08,6.92-3.46,15.9.71,36.99.24,51.94-5.3,12.22-4.52,10.09-16.05-.05-8.54,1.38-3.51-3.24-6.01-3.46-6.92-.91-3.79.62-9.58,0-13.84.36.02,2.21-2.96,5.04-2.98,4.83-.03,18.15,7.62,19.15-.43-5.83.25-11.58-5.9-16.44-6.43-5.4-.59-8.34,2.93-9.48,2.93h-57.08l.02,3.42c15.93-3.23,34.73,2.93,48.41,3.49v3.46c-12.05-.3-24.21.49-36.29,0-5.08-.21-21.47-7.37-22.52,0l3.46,10.38c-5.62,1.67-11.4,3.22-17.3,3.5l6.89,3.41.03,13.85c-1.46-.59-5.11.95-7.89-.09s-1.33-5.36-9.41-6.83l-10.31-15.6,13.75,1.74-3.43-13.79c4.16-.77,10.34,1,13.83-.02l6.91-.04-3.45-3.42c1.54-1.57-1.22-8.14,13.84-10.38,29.84,6.99,73.38,5.51,96.86-17.3,4.18-.7,9.41.48,13.84,0Z"/>
  <path class="st13" d="M217.1,300.79c7.91,5.23,13.36,17.16,27.69,13.86l-3.48,10.36c-23.82,1.52-47.82,22.34-69.62,32.55-6.49,3.04-12.31,0-15.6,9.12l-35.85-14v-3.46c5.45-1.41,23.12-10.69,20.76-17.3,17.77-7.92,28.58-16.02,44.97-24.21l20.76-10.38h3.46c1.53,2.7,5.44,2.48,6.92,3.46Z"/>
  <path class="st2" d="M258.61,328.46c-8.2,6.51-18.24,12.8-27.67,17.3-18.61,8.88-27.79,14.47-44.97,24.21-23.39,13.26-26.59,17.26-51.49,4.8-4.92-2.46-10.99-10.46-14.23-11.72v-10.38l35.85,14c3.29-9.13,9.11-6.09,15.6-9.12,21.81-10.21,45.81-31.03,69.62-32.55,1.97-.13,8.3,7.56,17.25-3.45l.05,6.91Z"/>
  <path class="st7" d="M396.98,241.98c.96.25,12.59,10.21,13.92,12.04,12.53,17.34,6.22,28.84-.05,46.76h17.27c.1,1.15-.05,2.32,0,3.47-8.34,1.23-17.38,4.09-17.3,13.84-7.13.26-14.4,3.41-17.3,3.46-14.92.24-18.74-.64-24.21-13.84,7.98-.51,16.28.74,24.21,0,2.27-.21,4.63.17,6.89-.02l.04-5.14c-1.85-5.26-6.58,1.69-6.94,1.69-15.57.25-11.31-.59-20.76-6.92,12.72,5.38,35.41-7.58,34.65-22.17-7.19-32.17-45.13-27.27-45.03,4.87-.53-.61-9.43-1.6-10.38-10.38,4.72-6.84,3.72-18.14,17.3-24.21,5.97-2.67,21.64-5.03,27.67-3.46Z"/>
  <path class="st16" d="M307.04,103.61l-3.49,8.68c16.53,3.09,28.55,10.42,45,15.53l-1.78,6.97c-10.03-5.6-17.28-9.04-29.35-6.97-20.71-25.61-73.67-2.76-96.86,10.38-1.49.85-7.14-1.87-6.9,1.71,3.46,12.05,9.5,3.86,15.57,12.02l1.67,10.47-3.42-6.9-1.73-3.39c-2.07-.01-1.46,2.2-1.73,3.39-1.06,4.61,3.55,12.01-5.14,10.35l-15.62-24.18c2.94-25.71,16.52-19.61,32.36-24.83,4.93-1.62,4.77-8.7,9.93-10.95,9.71-4.21,48.94-3.24,61.48-2.27Z"/>
  <path class="st1" d="M237.85,134.74l-6.89,6.94,3.47,17.25,10.34-6.9c.24,1.02-.15,2.28,0,3.46,1.05,8.41-1.95,7.48,10.38,6.92l-13.82,13.79c26.61,8.24,52.23,8.87,79.55,3.51-.72.95,2.08,6.14-2.01,7.11-14.46,3.41-52.29-.81-70.63-.19-5.74.19-11.55-.17-17.29.02l1.74,13.79c-19.66-6.03-4.28-18.36-12.01-25.94l-17.4-5.17c-.73,2.96.88,8.41-.01,10.38h6.88s3.55,15.52,3.55,15.52c-5.06,6.3-7.71-.93-10.43-5.15.27-3.42-.17-6.96,0-10.38-2.17,4.76-10.19,10.2-6.94,20.74-25.3-4.52,3.84-25.51,6.25-33.53s-.24-17.17.69-25.26l15.62,24.18c8.69,1.66,4.08-5.73,5.14-10.35h3.46l3.42,6.9-1.67-10.47c-6.07-8.16-12.11.04-15.57-12.02-.24-3.58,5.41-.86,6.9-1.71,5.26-2.41,12.37-1.91,17.3-3.46Z"/>
  <path class="st2" d="M393.52,338.84c-.34,7.19,2,12.44-3.49,18.99-2.41,2.88-26.85,16.43-31.17,17.61-8.06,2.2-8.33-.59-13.77-2.01-2.22-4.61-5.56-8.4-10.38-10.38-.93-.38-2.34.33-3.46,0-12.65-3.68-14.66-2.64-27.67,0-.8-15.51,21.7-5.32,20.76-20.76,7.49,4.37,19.43,14.06,25.86,14.12,15.97.15,26.93-18.42,43.33-17.58Z"/>
  <path class="st21" d="M400.44,235.06c1.81-.96,18.84-6.39,20.72-5.46,12.82,6.41-.48,22.71,7.51,32.67l13.29.45c-.49,5.69,1.38,13.53-.42,18.63-3.38,9.6-15.5-3.19-13.42,19.43h-17.27c6.27-17.93,12.58-29.43.05-46.77-1.32-1.83-12.96-11.79-13.92-12.04,1.27-1.6,2.44-6.38,3.46-6.92Z"/>
  <path class="st17" d="M372.77,152.04c.06-2.92-2.63-4.98-3.46-6.92-1.25-2.92,1.08-6.55-5.98-7.65l2.53-6.16c-2.21-.4-5.11.5-6.93-.03-3.59-1.04-6.9-2.38-10.38-3.46-16.46-5.11-28.47-12.45-45-15.53l3.49-8.68c8.97.69,9.94,1.55,17.3,3.46-2.47,9.52,15.66,10.85,16.59,11.45,1.71,1.09-1.14,13.15,7.62-1.07.79-1.29,6.83-1.48,1.91-7.05-4.74-6.08-24.08-7.47-22.65-20.61,29.75,4.58,61.1,30.36,44.95,62.25Z"/>
  <path class="st22" d="M203.26,179.71c.89-1.97-.72-7.42.01-10.38l17.4,5.17c7.73,7.58-7.65,19.91,12.01,25.94l-1.74-13.79c5.73-.2,11.54.17,17.29-.02,2.21,4.73,6.99,2.67,10.38,3.46-15.06,2.23-12.3,8.81-13.84,10.38-.95.97-2.94,3.31-3.46,3.46-3.49,1.03-9.67-.74-13.83.02l3.43,13.79-13.75-1.74,10.31,15.6c-3.1-.56-7.05.38-10.38,0-14.53-16.63-15.83-16.49-13.84-41.51,2.72,4.22,5.37,11.44,10.43,5.15l-3.55-15.53h-6.88Z"/>
  <path class="st11" d="M358.93,235.06c3.38.4,6.97-.27,10.38,0-.43,3.32.29,6.99,0,10.38-13.57,6.08-12.57,17.37-17.3,24.21-.68.98-11.22,3.32-13.84,17.3-4.28-.43-9.96-3.6-13.84-3.46,2.76-14.91,39.16-38.55,0-34.59h-3.46c-.44.08-.75,5.37-6.9,3.43l-.02-6.89c3.43-1.24,20.73-12.22,26.66-13.25,4.79-.84,12.55,2.2,18.31,2.88Z"/>
  <path class="st17" d="M338.17,373.43c9.72,23.93,6.89,32.13-18.95,41.55l-5.63-10.07-13.45,3.11c2.24-6.39-5.9-20.78-5.93-22.67-.05-3.06,5.61-4.22,5.92-5.01l6.9,13.8,20.89,1.9c12.82-15.89-12.69-11-13.91-24.29l12.07-5.39,1.83,4.77,3.36-8.08c1.12.33,2.53-.38,3.46,0,.27,3.8,2.07,6.97,3.46,10.38Z"/>
  <path class="st20" d="M293.2,252.36c-1.53,11.33,20.98,9.62,10.38,24.21-1.02-3.57-5.19-9.08-10.37-6.89-1.63,1.84,9.68,20.67-1.67,17.22-17.23-5.24-30.75-20.59-46.77-27.62,1.52-.44,3.54-3.28,6.92-3.46,16.58-.87,14.69,1.18,34.59-3.46,2.07-.48,5.07.56,6.92,0Z"/>
  <path class="st2" d="M296.66,369.97c-5.84,5.91-62.5,41.56-66.83,40.82s-9.4-6.7-12.73-9.68c2.01.42,4.67-.26,6.92,0,1.16.13,4.7,6.56,10.53,1.94l3.3-15.77c6.02-3.49,6.14-4.27,13.84-6.92,14.8-5.08,34.97-13.64,48.43-17.3-1.36,1.91-2.05,5.49-3.46,6.92Z"/>
  <path class="st21" d="M227.48,231.6c8.07,1.47,6.6,5.77,9.41,6.83s6.43-.49,7.89.09c11.39,4.58,4.93,8.34,20.76,3.46l-.03,6.91c2.62,1.83,18.15-3.49,20.79,3.46-19.9,4.64-18.01,2.59-34.59,3.46-7.12-8.36-21.14-7.96-29.11-14.26-5.59-4.42-4.46-8.79-5.48-9.96,3.32.38,7.28-.56,10.38,0Z"/>
  <path class="st26" d="M331.25,363.05l-3.36,8.08-1.83-4.77-12.07,5.39c1.23,13.29,26.73,8.4,13.91,24.29l-20.89-1.9-6.9-13.8c.92-2.34.64-10.24-3.46-10.38,1.41-1.43,2.1-5,3.46-6.92,1.04-.28,2.32.23,3.46,0,13.01-2.64,15.02-3.68,27.67,0Z"/>
  <path class="st17" d="M369.31,235.06c.73-5.6,3.22-11.23,3.82-16.92l19.89.17,7.42,16.75c-1.02.54-2.19,5.32-3.46,6.92-6.04-1.57-21.7.79-27.67,3.46.29-3.39-.43-7.05,0-10.38Z"/>
  <path class="st19" d="M227.48,390.73c-.86,1.17,1.06,8.4-3.46,10.38-2.25-.26-4.91.42-6.92,0-6.26-1.31-21.94-3.34-24.21-10.38-.53-1.63-.53-15.7,0-17.3l34.59,17.3Z"/>
  <path class="st9" d="M348.55,311.16c2.73-13.15,8.67-11.19,20.74-10.29.69,2.12-.58,5.4.02,6.83,5.48,13.2,9.29,14.07,24.21,13.84,0,3.46-.01,6.92,0,10.38-6.94.75-11.44-2.19-17.08-5.39s-25.69-13.65-27.89-15.37Z"/>
  <path class="st0" d="M127.16,141.66c3.95-.66,9.45.07,13.84,0l6.91,10.33c-8.05,3.91-36.34,5.47-41.48,0-7.47-7.94,17.79-9.84,20.74-10.33Z"/>
  <path class="st6" d="M300.12,134.74c-.28,17.58,20.44-.94,22.7,13.98l11.88-3.58c-2.23,3.72-.19,5.01.01,6.89.25,2.25-.38,4.84,0,6.92,10.63-2.72,20.9,21.74,24.25-6.92l10.35,3.47c0,5.76,0,11.53,0,17.3-4.43.48-9.66-.7-13.84,0-3.78.63-8.39,5.22-13.86,3.43l3.54-6.87-10.05-.3c-1.64-1.45.13-7.36-.38-10.1-2.94.75-6.79,3.76-6.92,6.92-4.22-3.02-8.98-2.85-13.84-3.46v-10.38c-1.12-5.17-12.4-5.39-13.84,0l-3.44,1.76,3.44,8.61c-9.01-.08-18.79-.66-27.67,0v-3.46c-.1-1.14.13-2.32,0-3.46-1.63-13.74-6.23-1.37-10.36-10.34,14.38,3.64,16.9-4.57,27.66-10.41,3.42.09,7-.33,10.38,0Z"/>
  <path class="st16" d="M358.93,145.12c.9,0,5.59,5.64,10.38,0,.83,1.94,3.52,3.99,3.46,6.92l-3.46,3.46-10.35-3.47c-3.35,28.67-13.62,4.21-24.25,6.92-.38-2.08.25-4.67,0-6.92,1.29-3.46,4.63-2.56,6.92-3.46s6.53-3.41,6.92-3.46c3.28-.38,7.01,0,10.38,0Z"/>
  <path class="st15" d="M230.94,345.76c-3.38,11.44-35.82,20.89-38.05,27.67-.53,1.6-.53,15.67,0,17.3l-6.92-20.76c17.18-9.74,26.36-15.34,44.97-24.21Z"/>
  <path class="st12" d="M237.85,297.33c-1.64-.1-17.24,2.8-20.76,3.46-1.48-.98-5.39-.76-6.92-3.46-2.12-7.67,1.17-11.41,3.46-17.3l24.21,17.3Z"/>
  <path class="st9" d="M428.11,304.24c.08,1.65,8.26,6.42-1.52,14.18-8.39,6.66-12.64-.45-15.78-.34-.08-9.74,8.95-12.61,17.3-13.84Z"/>
  <path class="st16" d="M348.55,117.44c-8.76,14.22-5.91,2.15-7.62,1.07-.94-.6-19.06-1.93-16.59-11.45,8.96,2.32,16.94,4.08,24.21,10.38Z"/>
  <path class="st26" d="M345.09,373.43c-1.91-.5-4.72.33-6.92,0-1.38-3.41-3.19-6.58-3.46-10.38,4.81,1.98,8.16,5.77,10.38,10.38Z"/>
  <path class="st14" d="M179.05,286.95l6.92,13.84c-.04,2.3.03,4.61,0,6.92-16.39,8.2-27.2,16.3-44.97,24.21-8.06,3.59-25.3,6.79-24.21,17.3-2.69.31-8.01.5-10.38,0l-.02-13.85-13.82,3.47c-9.14-7.09-5.64-.04-13.84-13.84l-3.46-3.46c-4.25-12.7-6.93-29.59,0-41.51,31.73,20.94,69.37,22.06,103.78,6.92ZM89.12,311.18c-7.91,7.9,14.26,21.84,17.26,8.58,1.92-8.48-15.02-10.82-17.26-8.58Z"/>
  <path class="st4" d="M144.45,262.73c3.21.12,28.46,11.22,32.22,13.76,3.24,2.18,1.93,6.48,2.37,6.99v3.46c-34.41,15.14-72.05,14.02-103.78-6.92,7.81-13.44,37.1-12.91,51.89-13.84,5.95-.37,15.75-3.52,17.3-3.46Z"/>
  <path class="st4" d="M137.54,238.52v20.78s-10.38-.02-10.38-.02c-.47-.82-5.17-1.76-6.35-5.75-4.37-14.71,5.37-14.98,16.73-15.01Z"/>
  <path class="st24" d="M137.54,238.52c3.46,0,6.93-.09,10.38,0l-3.46,24.22c-1.54-.06-11.35,3.09-17.3,3.46-.45-2.03.68-5.72,0-6.92l10.39.02v-20.78Z"/>
  <path class="st5" d="M140.99,331.92c2.36,6.61-15.31,15.89-20.76,17.3-.99.26-2.27-.14-3.46,0-1.09-10.51,16.16-13.71,24.21-17.3Z"/>
  <path class="st5" d="M92.57,338.84l13.82-3.47.02,13.85c-11.76-2.5-8.94-6.58-13.84-10.38Z"/>
  <path class="st5" d="M179.05,283.49c3.81,4.41,7.31-5.46,6.92,17.3l-6.92-13.84v-3.46Z"/>
  <rect class="st24" x="158.31" y="248.91" width="6.88" height="6.88"/>
  <path class="st5" d="M78.73,325c-.62-1.05-2.98-2.03-3.46-3.46l3.46,3.46Z"/>
  <path class="st10" d="M237.85,297.33c15.24.9,40.7,19.66,55.35,27.67l-3.46,13.84c-9.56-4.32-20.54-8.97-31.13-10.38l-.05-6.91c-8.95,11.01-15.27,3.32-17.25,3.45l3.48-10.36c-14.33,3.3-19.78-8.62-27.69-13.86,3.52-.66,19.12-3.56,20.76-3.46Z"/>
  <path class="st12" d="M324.34,342.3c.94,15.44-21.55,5.25-20.76,20.76-1.14.23-2.42-.28-3.46,0-13.46,3.66-33.63,12.21-48.43,17.3,8.34-14.15,38.11-21.04,46.8-31.04,2.11-2.43,3.66-6.32-.41-7.11-3.04-.51-5.6-2.13-8.34-3.37l3.46-13.84c10.64,5.82,20.69,11.2,31.13,17.3Z"/>
  <path class="st23" d="M352.01,269.65c.95,8.77,9.85,9.77,10.38,10.38,1.26,1.45,1.71,5.08,6.92,10.38l-3.45,6.91c2.03.57,5.92-.65,6.91.01,9.45,6.33,5.18,7.17,20.76,6.92v3.46c-7.94.74-16.23-.51-24.21,0-.6-1.44.68-4.71-.02-6.83-12.07-.89-18-2.86-20.74,10.29-4.55-3.55-2.47-8.32-4.74-12.66-1.19-2.28-7.76-.27-5.64-11.56,2.62-13.98,13.16-16.32,13.84-17.3Z"/>
  <path class="st22" d="M279.37,210.84l-17.26,10.45c-4.75,9,29.75,1.41,34.54,3.37l-6.9-13.82c5.73.31,11.57-.21,17.3,0l.02,10.39,13.82-3.47c.22.91,4.84,3.41,3.46,6.92-17.01,10.96-36.53,11.01-57.07,10.36-5.48,4.59,2.63,3.36,5.18,3.48-1.28,3.38-4.33,2.66-6.92,3.46-15.82,4.88-9.36,1.12-20.76-3.46l-.03-13.85-6.89-3.41c5.91-.28,11.69-1.83,17.3-3.5,1.66-.49,4.6.77,6.74-.15l.18-6.76c5.06.83,11.76-.3,17.3,0ZM262.05,231.64h-6.88v3.39h6.88v-3.39Z"/>
  <path class="st11" d="M334.71,158.96c.51,2.74-1.26,8.65.38,10.1l10.05.3-3.54,6.87c5.48,1.79,10.08-2.8,13.86-3.43-23.48,22.81-67.02,24.29-96.86,17.3-3.38-.79-8.17,1.28-10.38-3.46,18.34-.62,56.17,3.59,70.63.19,4.09-.96,1.3-6.16,2.01-7.11,4.93-6.56,15.99,1.24,6.92-13.84.13-3.16,3.97-6.17,6.92-6.92Z"/>
  <path class="st16" d="M310.5,203.93c-13.68-.56-32.48-6.72-48.41-3.49l-.02-3.42h57.08c1.14,0,4.08-3.52,9.48-2.93,4.86.53,10.61,6.68,16.44,6.43-1,8.06-14.33.4-19.15.43-2.82.02-4.68,3-5.04,2.98-3.45-.15-6.93.14-10.38,0Z"/>
  <path class="st11" d="M324.34,224.68c10.15-7.51,12.27,4.02.05,8.54-14.96,5.53-36.04,6-51.94,5.3-2.55-.11-10.66,1.11-5.18-3.48,20.54.65,40.06.6,57.07-10.36Z"/>
  <path class="st11" d="M310.5,207.39l3.45,3.42-6.91.04c-5.73-.21-11.57.31-17.3,0-3.44-.19-6.94.19-10.38,0-5.54-.3-12.24.83-17.3,0-1.73-.29-5.07-5.63-10.38-3.46,1.05-7.38,17.44-.22,22.52,0,12.08.5,24.23-.3,36.29,0Z"/>
  <path class="st6" d="M320.88,203.93c.62,4.26-.91,10.04,0,13.84l-13.82,3.47-.02-10.39,6.91-.04-3.45-3.42v-3.46c3.45.14,6.93-.15,10.38,0Z"/>
  <path class="st6" d="M262.07,210.84l-.18,6.76c-2.15.93-5.08-.34-6.74.15l-3.46-10.38c5.31-2.17,8.64,3.17,10.38,3.46Z"/>
  <path class="st11" d="M244.77,200.47l3.45,3.42-6.91.04c.52-.15,2.5-2.49,3.46-3.46Z"/>
  <path class="st25" d="M289.74,338.84c2.74,1.24,5.29,2.86,8.34,3.37,4.07.79,2.52,4.67.41,7.11-8.69,10-38.46,16.89-46.8,31.04-7.7,2.65-7.82,3.43-13.84,6.92-2.16,1.26-8.66,1.11-10.38,3.46l-34.59-17.3c2.23-6.79,34.67-16.23,38.05-27.67,9.44-4.5,19.47-10.78,27.67-17.3,10.59,1.4,21.57,6.05,31.13,10.38Z"/>
  <path class="st9" d="M393.52,304.24c.36,0,5.09-6.95,6.94-1.69l-.04,5.14c-2.27.19-4.63-.19-6.89.02v-3.46Z"/>
  <path class="st0" d="M220.56,138.2c23.19-13.14,76.15-35.98,96.86-10.38.49.61-1.25,4.76.58,6.24,3.19,2.58,25,2.31,30.55,11.06-.38.04-4.71,2.6-6.92,3.46-9.89-8.78-28.34-12.54-41.51-13.84-3.38-.33-6.96.09-10.38,0-14.57-.38-23.85.3-38.05,3.46l6.9-3.52c-5.36-13.52-13.68-2.16-20.74.07-4.92,1.55-12.04,1.05-17.3,3.46Z"/>
  <path class="st11" d="M317.42,127.82c12.07-2.06,19.32,1.37,29.35,6.97l1.78-6.97c3.48,1.08,6.79,2.42,10.38,3.46v13.84c-3.37,0-7.1-.38-10.38,0-5.55-8.75-27.36-8.48-30.55-11.06-1.83-1.48-.09-5.63-.58-6.24Z"/>
  <path class="st6" d="M227.48,155.5h-3.46c.27-1.19-.34-3.4,1.73-3.39l1.73,3.39Z"/>
  <path class="st8" d="M313.96,162.41c4.85.61,9.62.44,13.84,3.46,9.07,15.07-1.99,7.27-6.92,13.84-27.31,5.36-52.93,4.74-79.55-3.51l13.82-13.79c5.73-.29,11.59.43,17.3,0,8.89-.66,18.66-.08,27.67,0,5.39.05,6.65-.9,13.84,0Z"/>
  <path class="st22" d="M289.74,134.74c-10.75,5.84-13.28,14.05-27.66,10.41,4.13,8.97,8.73-3.39,10.36,10.34l-10.41,1.73,10.41,1.73v3.46c-5.71.43-11.57-.29-17.3,0l-10.38-6.92c-.15-1.18.24-2.43,0-3.46-1.09-4.6-3.37-8.98-3.45-13.81,3.29-.49,7.41.64,10.37-.02,14.2-3.16,23.48-3.84,38.05-3.46ZM256.88,141.66v3.46c2.25-1.15,2.25-2.31,0-3.46ZM253.42,148.58v3.46c2.25-1.15,2.25-2.31,0-3.46Z"/>
  <path class="st16" d="M237.85,134.74c7.06-2.22,15.38-13.59,20.74-.07l-6.9,3.52c-2.95.66-7.08-.47-10.37.02.08,4.84,2.36,9.21,3.45,13.81l-10.34,6.9-3.47-17.25,6.89-6.94Z"/>
  <path class="st16" d="M255.15,162.41c-12.33.56-9.33,1.49-10.38-6.92l10.38,6.92Z"/>
  <path class="st6" d="M358.93,131.28c1.82.53,4.72-.37,6.93.03l-2.53,6.16c7.06,1.1,4.73,4.73,5.98,7.65-4.79,5.64-9.47,0-10.38,0v-13.84Z"/>
  <path class="st12" d="M237.85,387.27l-3.3,15.77c-5.83,4.62-9.38-1.8-10.53-1.94,4.52-1.98,2.6-9.21,3.46-10.38,1.72-2.35,8.21-2.2,10.38-3.46Z"/>
  <path class="st22" d="M341.63,148.58c-2.29.9-5.63,0-6.92,3.46-.2-1.88-2.24-3.17-.01-6.89l-11.88,3.58c-2.26-14.92-22.98,3.6-22.7-13.98,13.17,1.3,31.62,5.06,41.51,13.84Z"/>
  <path class="st5" d="M89.12,311.18c2.24-2.24,19.18.1,17.26,8.58-3,13.26-25.17-.68-17.26-8.58Z"/>
  <path class="st9" d="M372.77,297.33c-.99-.66-4.88.55-6.91-.01l3.45-6.91c2.47,2.52,3.1,6.77,3.46,6.92Z"/>
  <path class="st6" d="M289.74,210.84l6.9,13.82c-4.79-1.96-39.28,5.63-34.54-3.37l17.26-10.45c3.44.19,6.94-.19,10.38,0Z"/>
  <rect class="st1" x="255.17" y="231.64" width="6.88" height="3.39"/>
  <path class="st16" d="M313.96,152.04v10.38c-7.19-.9-8.45.05-13.84,0l-3.44-8.61,3.44-1.76h13.84Z"/>
  <path class="st16" d="M272.45,155.5c.13,1.13-.1,2.32,0,3.46l-10.41-1.73,10.41-1.73Z"/>
  <path class="st16" d="M256.88,141.66c2.25,1.15,2.25,2.31,0,3.46v-3.46Z"/>
  <path class="st16" d="M253.42,148.58c2.25,1.15,2.25,2.31,0,3.46v-3.46Z"/>
  <path class="st22" d="M313.96,152.04h-13.84c1.43-5.39,12.72-5.17,13.84,0Z"/>
</svg>