<?xml version="1.0" encoding="UTF-8"?>
<svg id="Layer_1" data-name="Layer 1" xmlns="http://www.w3.org/2000/svg" viewBox="0 0 419.11 332.34">
  <defs>
    <style>
      .cls-1 {
        fill: #c7eaf7;
      }

      .cls-2 {
        fill: #3c556c;
      }

      .cls-3 {
        fill: #2e3e4e;
      }

      .cls-4 {
        fill: #44a8de;
      }

      .cls-5 {
        fill: #49bee7;
      }

      .cls-6 {
        fill: #2c3948;
      }

      .cls-7 {
        fill: #40a4dc;
      }

      .cls-8 {
        fill: #48a7de;
      }

      .cls-9 {
        fill: #404f5f;
      }

      .cls-10 {
        fill: #56addc;
      }

      .cls-11 {
        fill: #2b5c72;
      }

      .cls-12 {
        fill: #4dc2e9;
      }

      .cls-13 {
        fill: #f9fbfb;
      }

      .cls-14 {
        fill: #2a455b;
      }
    </style>
  </defs>
  <path class="cls-3" d="M166.85,4.66v11.64c-39.96.67-80.36-1.47-120.27,0-.54-5.84-11.1-5.84-11.64,0-2.51.25-5.8-.57-7.76,0-2.06.6-2.73,2.73-3.88,3.88-2.84,2.85-2.77,4.47-3.88,7.76-1.55,4.6-3.48,5.18-4.15,13.14-5.04,59.55,4.36,126.35.21,186.73-2.23,5.08,3.73,5.47,3.94,5.75.48.64,3.24-.63,3.88,0s-.62,3.51,0,3.88c7.47,4.45,6.39,3.36,15.52,3.88,12.8.73,25.95-.21,38.8,0,3.88.06,7.76-.05,11.64,0,23.21.3,46.62.12,69.83,0,11.62-.06,23.3.07,34.92,0,28.42-.16,58.88-3.54,85.35-3.88,23.2-.29,44.35,2.34,65.95,3.88-11.62,5.06-22.35,20.86-27.16,31.04-17.8.21-61.88-3.58-75.05-.06-4.09,1.09-2.2,7.6-2.54,7.82-2.32,1.49-41.18.29-54.31,7.76l-9.69-15.54-158.32-.73c-9.93-4.58-13.23-14.18-14.42-24.38-5.76-49.59-4.34-162.6-.06-213.62C7.75-14.08,32.05,4.19,63.87,4.82c34.21.68,68.79.11,102.97-.16Z"/>
  <path class="cls-6" d="M318.15,272.35c4.81-10.17,15.54-25.98,27.16-31.04,8.94.64,18.25-.81,27.16,0,6.87.63,20.09,7.82,31.06,3.86.23-2.56-.16-5.17-.02-7.74.26-4.91.41-10.66,0-15.52-.21-2.56.18-5.2,0-7.76-.92-64.57,1.24-129.43,0-193.98,0-.29,3.2-1.57,2.94-5-.25-3.35-7.27-9.08-6.82-14.4,13.79,2.22,18.02,12.5,19.48,25.13l-.87,235.96c-2.13,6.35-6.54,9.18-12.91,10.37-21.39,4.01-62.83-.18-87.18.11Z"/>
  <path class="cls-9" d="M178.48,307.27c19.77-.55,42.52-1.19,62.07,0v19.4c-2.2.07-7.64,3.73-13.38,3.9-18.62.57-74.88,3.59-88.78.14-3.5-.87-6.27-10.11-5.72-13.17,2.66-14.82,33.76-9.93,45.8-10.27Z"/>
  <path class="cls-14" d="M302.63,4.66v7.76c-45.72-.75-90.32,3.12-135.79,3.88V4.66c45.56-.35,90.26-2.02,135.79,0Z"/>
  <path class="cls-2" d="M240.56,280.11l3.88,27.16c-1.29-.09-2.59.08-3.88,0-19.55-1.19-42.3-.55-62.07,0-.79-3.46,3.47-6.31,3.88-7.76l3.82-1.92-3.82-1.96c1.04-1.92-1.55-4.67,3.88-7.76,13.14-7.47,51.99-6.27,54.31-7.76Z"/>
  <path class="cls-6" d="M240.56,326.67v-19.4c1.29.08,2.59-.09,3.88,0,11.26.82,26.59,6.75,40.11,4.5,23.17,27.45-27.18,14.33-43.99,14.9Z"/>
  <path class="cls-14" d="M399.62.78c-.45,5.32,6.57,11.05,6.82,14.4.26,3.43-2.95,4.71-2.94,5-8.43-5.42-17.89-3.67-27.16-3.88-11.6-.26-23.33.45-34.92,0V4.66h11.64c2.9,10.05,10,.46,11.64,0,11.64-3.26,21.27-6.08,34.92-3.88Z"/>
  <path class="cls-3" d="M341.43,4.66v11.64c-10.3-.4-20.73.33-31.04,0-3.5-.11-7.07-3.87-7.76-3.88v-7.76c12.81.57,25.95,0,38.8,0Z"/>
  <path class="cls-3" d="M364.71,4.66c-1.64.46-8.74,10.05-11.64,0h11.64Z"/>
  <path class="cls-9" d="M182.36,299.51c.37-1.31-.48-3,0-3.88l3.82,1.96-3.82,1.92Z"/>
  <path class="cls-12" d="M302.63,12.42c.68.01,4.26,3.77,7.76,3.88-8.47,2.86-7.48,13.21-11.48,17.47-6.45,6.86-19.39,10.33-22.67,20.15-7.14,21.35,12.11,4.89,10.88,20.57-11.25,6.83-23.74,12.7-34.92,19.4l-2-19.46c-10.48-.47-73.47,14.41-83.35,19.46-.49.25-4.27,5.2-7.76,7.76-13.6,9.97-15.72,13.94-27.03,25.35-13.95,14.07-28.81,13.97-23.41,40.61-9.3,9.78-26.05,3.43-27.16,19.4-.5,7.2.31,13.25,7.76,15.52-16.52,4.81-51.25,17.53-50.44,38.8-9.12-.52-8.05.57-15.52-3.88,5.06.25,5.96-7.36,1.91-7.75l-1.91,3.87c-.64-.63-3.4.64-3.88,0v-15.52c11.75,2.16,7.46-5.93,7.76-13.4,2.42-61.3-1.8-123.16,0-184.46v-3.88c1.95-.57,5.24.25,7.76,0,3.8-.38,7.8.14,11.64,0,39.91-1.47,80.31.67,120.27,0,45.46-.76,90.06-4.63,135.79-3.88Z"/>
  <path class="cls-4" d="M349.19,86.13c3.35,4.01-.24,16.03,16.76,11.08,12.43-3.62,7.7-25.88,23.88-22.89,1.33.25,8.27,12.48,8.75,14.74,7.27,34.22,2.34,88.58,4.93,125.09.18,2.56-.21,5.2,0,7.76l-7.76,15.52c-5.14,0-10.4-.29-15.52,0l-1.94-3.8-1.94,3.8c-1.75.26-3.3,2.16-3.88,3.88-8.91-.81-18.22.64-27.16,0-21.6-1.54-42.75-4.17-65.95-3.88-22.29-6.99-51.81-10.82-74.81-6.75-6.49,1.15-12.42,2.17-10.54,10.62-11.62.07-23.3-.06-34.92,0,4.1-24.96-17.64-21.29-35.06-17.58l-34.77,17.58c-3.88-.05-7.76.06-11.64,0-1.66-19.28,11.73-16.33,22.89-21.71,11.79-5.69,7.09-6.31,23.67-9.33,5.14-.93,13.88,2.13,17.71-3.62,5.25-7.88-4.21-30.07,12.2-34.63,20.7-5.75,17.67,24.97,39.9,18.83l-31.02-38.78c10.25-5.34,13.83-9.48,27.16-11.64,1.25-.2,2.61.15,3.88,0-4.11,21.16,5.24,22.38,23.28,27.16,8.69,15.22,17.25,28.5,34.92,19.4.56-.29,3.54-3.27,3.88-3.88,3.13-5.6-.05-2.11,0-3.88.1-3.88-.07-7.76,0-11.64,1.33-1.24,2.77-2.43,3.88-3.88,10.27-13.42,23.36-26.27,34.92-38.8l11.64-11.64c1.29-1.29,2.59-2.58,3.88-3.88,4.02-1.53,5.82-4.13,7.76-7.76.54-1.01-.55-2.89,0-3.88l23.28-11.64c1.33.15,2.77-.28,3.88,0,1.35.34,3.46-.51,3.88,0Z"/>
  <path class="cls-8" d="M120.29,175.36l3.88,34.92c-16.58,3.01-11.88,3.64-23.67,9.33-11.16,5.39-24.55,2.43-22.89,21.71-12.85-.21-26,.73-38.8,0-.81-21.26,33.92-33.99,50.44-38.8,2.11-.62,5.45.55,7.76,0,1.9-.45-.57,5.01,3.88,0,2.75-3.1,3.3-2.1,3.88-7.76,3.47-9.3,6.71-12.82,11.64-19.4h3.88Z"/>
  <path class="cls-10" d="M27.18,20.18c-1.8,61.3,2.42,123.16,0,184.46-.3,7.48,3.99,15.57-7.76,13.4,0-63.41.8-126.79,0-190.1,1.11-3.29,1.04-4.91,3.88-7.76h3.88Z"/>
  <path class="cls-7" d="M159.09,241.32c-23.21.12-46.63.3-69.83,0l34.77-17.58c17.43-3.7,39.17-7.38,35.06,17.58Z"/>
  <path class="cls-7" d="M279.35,237.44c-26.48.34-56.93,3.72-85.35,3.88-1.89-8.46,4.05-9.47,10.54-10.62,23-4.08,52.52-.25,74.81,6.75Z"/>
  <path class="cls-14" d="M19.42,218.04v15.52c-.21-.28-6.17-.67-3.94-5.75,4.15-60.38-5.25-127.19-.21-186.73.67-7.96,2.6-8.54,4.15-13.14.8,63.31,0,126.69,0,190.1Z"/>
  <path class="cls-11" d="M46.58,16.3c-3.84.14-7.84-.38-11.64,0,.54-5.84,11.1-5.84,11.64,0Z"/>
  <path class="cls-10" d="M23.3,237.44c-.62-.37.62-3.27,0-3.88l1.91-3.87c4.05.38,3.15,7.99-1.91,7.75Z"/>
  <path class="cls-11" d="M27.18,20.18h-3.88c1.15-1.15,1.82-3.28,3.88-3.88v3.88Z"/>
  <path class="cls-8" d="M403.5,20.18c1.24,64.55-.92,129.41,0,193.98-2.59-36.52,2.34-90.87-4.93-125.09-.48-2.26-7.42-14.49-8.75-14.74-16.18-2.99-11.45,19.27-23.88,22.89-17,4.95-13.41-7.07-16.76-11.08v-3.88c.08-2.58-.12-5.18,0-7.76.14-2.9,4.7.97,0-7.76-14.17-26.34-32.59-3.14-27.16,19.4-21.28,4.42-52.25,60.33-73.71,73.71-4.57-1.54-12.07-1.99-15.52-3.88-17.97-9.85-21.07-20.48-31.04-31.04,17.54-8.96,33.62-20.96,50.44-31.04,11.18-6.7,23.67-12.57,34.92-19.4,8.76-5.32,16.58-11.09,26.75-13.99l62.48-44.2c9.27.21,18.72-1.54,27.16,3.88Z"/>
  <path class="cls-14" d="M380.23,237.44c5.12-.29,10.38,0,15.52,0h7.76c-.14,2.57.25,5.18.02,7.74-10.97,3.96-24.19-3.23-31.06-3.86.58-1.72,2.13-3.62,3.88-3.88,1.24-.19,2.6.07,3.88,0Z"/>
  <path class="cls-8" d="M403.5,237.44h-7.76l7.76-15.52c.41,4.86.26,10.61,0,15.52Z"/>
  <path class="cls-5" d="M341.43,16.3c11.58.45,23.32-.26,34.92,0l-62.48,44.2c-10.17,2.9-17.99,8.67-26.75,13.99,1.23-15.69-18.01.77-10.88-20.57,3.28-9.82,16.23-13.29,22.67-20.15,4-4.26,3.01-14.61,11.48-17.47,10.31.33,20.74-.4,31.04,0Z"/>
  <path class="cls-5" d="M166.85,93.89c9.88-5.05,72.87-19.93,83.35-19.46l2,19.46c-16.82,10.08-32.9,22.08-50.44,31.04-2.64-2.8-11.69-4.99-15.52-7.76,1.74-14.38-3.97-24.24-19.4-23.28Z"/>
  <path class="cls-5" d="M159.09,121.05l-50.44,46.56c-5.4-26.64,9.46-26.53,23.41-40.61,11.31-11.41,13.43-15.38,27.03-25.35.62,6.23-.89,13.4,0,19.4Z"/>
  <path class="cls-1" d="M159.09,121.05c.27,1.83,2.01,3.46,3.88,3.88-3.21,1.22-41.77,44.05-46.56,50.44-4.93,6.57-8.17,10.1-11.64,19.4.52-5.07-.27-10.43-.02-15.53-9.34-1.37-16.43,1.8-23.26,7.77,1.11-15.97,17.86-9.62,27.16-19.4l50.44-46.56Z"/>
  <path class="cls-13" d="M186.24,117.17c-.26,2.14-3.11,5.28-3.88,7.76-2.14-.58-17.85-.59-19.4,0-1.87-.42-3.61-2.05-3.88-3.88-.89-6,.62-13.17,0-19.4,3.49-2.56,7.27-7.51,7.76-7.76,15.43-.97,21.13,8.9,19.4,23.28Z"/>
  <path class="cls-13" d="M81.49,187c6.83-5.97,13.92-9.13,23.26-7.77-.25,5.1.53,10.45.02,15.53-.58,5.66-1.13,4.66-3.88,7.76h-3.88c-2.31.55-5.65-.62-7.76,0-7.45-2.27-8.26-8.32-7.76-15.52Z"/>
  <path class="cls-7" d="M162.97,152.09l31.02,38.78c-22.23,6.14-19.21-24.58-39.9-18.83-16.41,4.56-6.94,26.75-12.2,34.63-3.83,5.75-12.58,2.69-17.71,3.62l-3.88-34.92c15.47-5.27,28.32-15.79,42.68-23.28Z"/>
  <path class="cls-5" d="M182.36,124.93c3.36.92,8.84,9.37,11.64,11.64l-3.88,3.88c-13.33,2.16-16.91,6.3-27.16,11.64-14.36,7.48-27.21,18.01-42.68,23.28h-3.88c4.78-6.38,43.35-49.22,46.56-50.44,1.55-.59,17.26-.58,19.4,0Z"/>
  <path class="cls-1" d="M322.03,86.13c1.23-.25,2.61.18,3.88,0-2.38,3.98-5.52,7.58-7.76,11.64-.55.99.54,2.87,0,3.88-4.67.9-5.6,5.57-7.76,7.76-1.29,1.3-2.59,2.59-3.88,3.88-4.08,4.08-7.54,7.19-11.64,11.64-11.56,12.53-24.65,25.38-34.92,38.8h-3.88c-3.34.43-5.98-3.28-7.76-3.88,21.47-13.39,52.44-69.3,73.71-73.71Z"/>
  <path class="cls-13" d="M349.19,66.73v7.76c-.12,2.58.08,5.18,0,7.76l-3.88,3.88c-1.11-.28-2.54.15-3.88,0-4.23-.46-11.42-.58-15.52,0-1.26.18-2.65-.25-3.88,0-5.43-22.54,12.98-45.74,27.16-19.4Z"/>
  <path class="cls-13" d="M248.32,159.84c1.78.6,4.42,4.31,7.76,3.88v3.88c-.07,3.88.1,7.76,0,11.64v3.88c-.34.61-3.32,3.59-3.88,3.88-21.55-.49-25.84-1.56-23.28-23.28.25-2.13,3.12-5.28,3.88-7.76,3.45,1.89,10.95,2.34,15.52,3.88Z"/>
  <path class="cls-7" d="M201.76,144.33l3.88,3.88c1.33,1.24,2.51,2.69,3.88,3.88l3.88,3.88c1.44,1.14,2.6,3.06,3.88,3.88.51,2.28-.76,6.42,0,7.76-18.03-4.77-27.39-5.99-23.28-27.16h3.88c1.37,1.2,2.51,2.69,3.88,3.88Z"/>
  <path class="cls-10" d="M228.92,163.72c-2.56,21.72,1.73,22.79,23.28,23.28-17.66,9.1-26.23-4.18-34.92-19.4-.76-1.33.51-5.48,0-7.76,3.52,2.26,7.54,3.29,11.64,3.88Z"/>
  <path class="cls-10" d="M341.43,86.13l-23.28,11.64c2.24-4.06,5.38-7.65,7.76-11.64,4.09-.58,11.29-.46,15.52,0Z"/>
  <path class="cls-10" d="M197.88,140.45h-3.88c-1.27.15-2.62-.2-3.88,0l3.88-3.88c1.41,1.14,2.51,2.69,3.88,3.88Z"/>
  <path class="cls-10" d="M294.87,124.93c4.1-4.45,7.56-7.56,11.64-11.64l-11.64,11.64Z"/>
  <path class="cls-10" d="M256.08,167.6v-3.88h3.88c-1.11,1.45-2.55,2.64-3.88,3.88Z"/>
  <path class="cls-10" d="M256.08,183.12v-3.88c-.05,1.77,3.13-1.72,0,3.88Z"/>
  <path class="cls-10" d="M310.39,109.41c2.16-2.19,3.09-6.86,7.76-7.76-1.94,3.63-3.74,6.22-7.76,7.76Z"/>
  <path class="cls-10" d="M349.19,86.13c-.42-.51-2.53.34-3.88,0l3.88-3.88v3.88Z"/>
  <path class="cls-8" d="M380.23,237.44c-1.28.07-2.63-.19-3.88,0l1.94-3.8,1.94,3.8Z"/>
  <path class="cls-12" d="M97.01,202.52h3.88c-4.45,5.01-1.98-.45-3.88,0Z"/>
  <path class="cls-1" d="M201.76,124.93c9.97,10.55,13.07,21.18,31.04,31.04-.76,2.48-3.63,5.63-3.88,7.76-4.1-.59-8.12-1.62-11.64-3.88-1.28-.82-2.44-2.74-3.88-3.88s-2.51-2.69-3.88-3.88-2.55-2.64-3.88-3.88-2.5-2.68-3.88-3.88-2.5-2.68-3.88-3.88-2.47-2.74-3.88-3.88c-2.8-2.26-8.28-10.72-11.64-11.64.77-2.48,3.62-5.62,3.88-7.76,3.83,2.77,12.88,4.96,15.52,7.76Z"/>
  <path class="cls-10" d="M349.19,74.49v-7.76c4.7,8.73.14,4.86,0,7.76Z"/>
  <path class="cls-10" d="M205.64,148.21l-3.88-3.88c1.37,1.2,2.55,2.64,3.88,3.88Z"/>
  <path class="cls-10" d="M213.4,155.97l-3.88-3.88c1.37,1.19,2.48,2.77,3.88,3.88Z"/>
</svg>