<?xml version="1.0" encoding="UTF-8"?>
<svg id="Layer_1" xmlns="http://www.w3.org/2000/svg" version="1.1" viewBox="0 0 500 500">
  <!-- Generator: Adobe Illustrator 29.8.4, SVG Export Plug-In . SVG Version: 2.1.1 Build 6)  -->
  <defs>
    <style>
      .st0 {
        fill: #7d8793;
      }

      .st1 {
        fill: #6f7782;
      }

      .st2 {
        fill: #757e8c;
      }

      .st3 {
        fill: #818a96;
      }

      .st4 {
        fill: #505a69;
      }

      .st5 {
        fill: #68727e;
      }

      .st6 {
        fill: #5c6774;
      }

      .st7 {
        fill: #757d8a;
      }

      .st8 {
        fill: #67707c;
      }

      .st9 {
        fill: #66707e;
      }

      .st10 {
        fill: #777f8e;
      }

      .st11 {
        fill: #828997;
      }

      .st12 {
        fill: #676f7d;
      }

      .st13 {
        fill: #ced2d4;
      }

      .st14 {
        fill: #5d6671;
      }

      .st15 {
        fill: #a7aeb3;
      }

      .st16 {
        fill: #eceef0;
      }

      .st17 {
        fill: #babdc2;
      }

      .st18 {
        fill: #bdc2c7;
      }

      .st19 {
        fill: #5b6471;
      }

      .st20 {
        fill: #747e8a;
      }

      .st21 {
        fill: #9ba1a8;
      }

      .st22 {
        fill: #b5bbbf;
      }

      .st23 {
        fill: #66717d;
      }

      .st24 {
        fill: #57606c;
      }

      .st25 {
        fill: #c1c6ca;
      }

      .st26 {
        fill: #87939e;
      }

      .st27 {
        fill: #747e89;
      }
    </style>
  </defs>
  <path class="st24" d="M316.49,314.93l3.41,3.41c.15,4.53-.23,9.11,0,13.64.78,15.49.19,31.56-.72,47.05-15.99,5.71-37.45,28.19-53.93,23.13-3.1-.95-34.6-20.65-35.68-22.46-3.77-6.31-1.53-22.27-1.73-30.67,15.48-.35,7.74,19.89,14.4,26.52,1.42,1.41,28.41,12.56,29.91,10.97l.02-44.31c11.3.19,38.94-15.3,34.1-30.69,3.07,1.9,6.72,2.73,10.23,3.41Z"/>
  <path class="st17" d="M347.18,386.53c1.02.27,10.77-5.76,19.01,3.5l4.86-3.5,3.41-40.92,44.33-27.28c5.18,8.73,5.91,52.23.27,59.94-1.67,2.29-40.36,25.06-42.85,25.15-7.49.27-23.15-11.39-29.03-16.9Z"/>
  <path class="st1" d="M186.92,216.04c-4.25,19.54,22.31,21.84,34.1,30.69v57.97c-3.32-.08-11.3-5.69-17.05-3.41-.28-1.83.98-4.27-.56-6.16l-30.13-14.3c-.21-14.07-4.18-30.41-3.41-47.74.19-4.35-.98-8.82.46-13.09,4.08-3.6,13.45-2.33,16.59-3.96Z"/>
  <path class="st10" d="M244.89,113.74c5.97,16.44,9.3,33.59,30.69,34.1-7.89,8.82,1.7,43.03-13.64,54.56-17.75-11.17-35.72-9.81-37.51-34.1-1.1-14.95.82-30.41-.13-45.44,1.18-4.85,16.82-6.69,20.59-9.12Z"/>
  <path class="st0" d="M330.13,123.97c14.64,3.79,27.35,24.14,44.33,23.87.1,24.89,4.34,34.05-10.23,54.56l-44.33-23.87c-.15-2.25.23-4.59,0-6.82l6.81.03.07-25.16-6.89-2.14c.82-6.39-.57-13.85,0-20.46,2.54-.29,8.17-.53,10.23,0Z"/>
  <path class="st23" d="M166.46,345.61v44.33c-.64.09-3.01,3.37-6.82,3.41-.56,0-5.77-5.44-10.21-3.39l-.02,6.8c-5.08-2.55-29.96-12.35-30.83-15.91,3.34-20.04-7.19-51.62,6.96-65.92.78,7.88,36.28,29.37,40.92,30.69Z"/>
  <path class="st8" d="M118.72,246.73c-1.94,17.36,4.29,39.16-3.41,54.56-16.53-3.54-27.93-12.09-42.67-20.42l-1.66-58.01,47.74,23.87Z"/>
  <path class="st20" d="M411.97,120.56c.82.65,6.27-2,6.98,2.12l-.88,61.98-47.02,24.56c-1.19-3.82-3.34-3.73-6.82-3.41.53-.79-.53-2.66,0-3.41,14.57-20.51,10.32-29.66,10.23-54.56,7.98-.13,36.29-17.01,37.51-27.28Z"/>
  <path class="st15" d="M128.95,120.56c4.13,16,29.31,26.35,44.33,27.28-2.44,2.75-6.81,39.11-7.2,46.27-.36,6.77,3.48,9.7,3.79,11.7.84,5.41-.97,4.6-3.41,6.82l-43.67-33.05-.79-56.86c.8-4.04,6.27-1.56,6.96-2.16Z"/>
  <path class="st12" d="M371.05,219.45c1.19,19.97-.17,40.69-.73,60.68-13.82,8.48-29.16,13.9-43.6,21.16-5.38-10.16-5.89-46.33,0-54.56,3.64-5.09,20.58-11.16,27.09-15.55,4.7-3.17,9.27-11.07,10.41-11.73s4.82.45,6.82,0Z"/>
  <path class="st7" d="M326.72,246.73c-5.89,8.23-5.38,44.39,0,54.56-3.09,1.56-5.12,4.89-10.23,3.41-1.88-7.05-29.93-19.25-37.51-23.87,2.08-8.59.48-36.78,0-47.74-.15-3.37.37-6.9,0-10.23l47.74,23.87Z"/>
  <path class="st19" d="M159.64,226.27c.6,2.22,3.21,5.02,3.41,6.82,1.58,14.35.34,33.27-1.68,47.76-1.55,3.18-31.05,22.15-35.14,23.32-7.54,2.14-8.77-2.42-10.91-2.88,7.7-15.4,1.47-37.2,3.41-54.56,15.05-4.31,26.38-19.11,40.92-20.46Z"/>
  <path class="st14" d="M265.34,222.86c.14,3.39-.21,6.84,0,10.23.95,15.13.8,32.76-1.69,47.76-1.96,4.07-37.4,23.97-42.64,23.85v-57.97l44.33-23.87Z"/>
  <path class="st22" d="M214.2,127.38l-40.92,20.46c-15.01-.92-40.2-11.28-44.33-27.28,7.42-6.41,29.79-23.66,39.24-23.63,6.46.02,44.44,23.85,46,30.45Z"/>
  <path class="st21" d="M214.2,127.38c-.7,13.52.99,27.44,0,40.92-.45,6.14,1.58,9.45-3.45,15.27-5.66,6.56-31.36,18.56-40.88,22.24-.31-1.99-4.15-4.93-3.79-11.7.39-7.16,4.76-43.52,7.2-46.27l40.92-20.46Z"/>
  <path class="st13" d="M418.79,318.34l-44.33,27.28-44.33-23.87v-3.41c10.68-3.51,31.56-25.52,43.18-26.5,6.09-.51,42.26,21.08,45.48,26.5Z"/>
  <path class="st7" d="M159.64,216.04c.49,3.15-.73,7.52,0,10.23-14.54,1.35-25.87,16.15-40.92,20.46l-47.74-23.87,46.36-27.32,42.3,20.5Z"/>
  <path class="st26" d="M411.97,120.56c-1.22,10.26-29.53,27.15-37.51,27.28-16.98.27-29.69-20.08-44.33-23.87l42.62-27.08c7.32,0,32.19,18.08,39.21,23.67Z"/>
  <path class="st9" d="M306.26,311.52c4.85,15.39-22.8,30.88-34.1,30.69-14.81-.25-28.73-19.75-44.33-17.05.54-4.84-1.3-7.51,3.47-11.81,7.01-6.31,32.78-14.21,40.86-22.29,11.77,6.06,22.86,13.51,34.1,20.46Z"/>
  <path class="st4" d="M214.2,321.74c1.29,8.94,1.25,55.22-1.69,61.39l-41.72,23.36c-12.66,2.65-12.2-5.26-14.55-6.32l3.41-6.82c3.81-.04,6.18-3.32,6.82-3.41,3.26-.44,7.62,1.15,10.97-.16,9.15-3.58,17.91-22.28-4.15-16.91l10.24-6.82-6.83-20.45c7.58-12.12,24.85-17.77,37.51-23.87Z"/>
  <path class="st3" d="M316.49,123.97c-7.21,2.11-13.12,11.38-17.05,13.64-5,2.87-19.68,5.55-23.87,10.23-21.39-.5-24.72-17.66-30.69-34.1,7.65-4.93,15.91-18.56,28.22-16.54l43.38,26.77Z"/>
  <path class="st27" d="M169.87,291.06c3.64.2,5.87,6.39,6.82,6.82-1.58,5.56-5.27,29.22,1.78,30.7l24.95-10.87c1.72-1.69.23-4.36.56-6.19,8.28.02,9.21,3.17,10.23,10.23-12.66,6.1-29.93,11.75-37.51,23.87-3.13-.5-7.58.75-10.23,0-4.63-1.32-40.14-22.81-40.92-30.69,6.45-6.52,36.5-25.19,44.33-23.87Z"/>
  <path class="st6" d="M272.16,342.2l-.02,44.31c-1.5,1.59-28.49-9.56-29.91-10.97-6.67-6.63,1.07-26.87-14.4-26.52-.17-7.45-.79-16.75,0-23.87,15.6-2.71,29.52,16.8,44.33,17.05Z"/>
  <path class="st25" d="M374.46,345.61l-3.41,40.92c-10.25-15.1-20.33-30.3-40.92-30.69-.34-7.9,0-15.95,0-23.87v-10.23l44.33,23.87Z"/>
  <path class="st18" d="M371.05,386.53l-4.86,3.5c-8.24-9.26-17.99-3.23-19.01-3.5-22.64-6.01-16.23-11.59-17.05-30.69,20.59.39,30.67,15.59,40.92,30.69Z"/>
  <path class="st1" d="M203.97,308.11c-.08,1.12.19,2.33,0,3.41-.33,1.83,1.16,4.5-.56,6.19l-24.95,10.87c-7.05-1.48-3.35-25.14-1.78-30.7,8.57,3.86,18.32,7.21,27.28,10.23Z"/>
  <path class="st16" d="M173.28,280.83l30.13,14.3c1.54,1.89.28,4.33.56,6.16.3,1.97.14,4.75,0,6.82-8.96-3.02-18.71-6.37-27.28-10.23-.95-.43-3.18-6.62-6.82-6.82-1.72-3.59,3.42-9.69,3.41-10.23Z"/>
  <path class="st1" d="M319.9,123.97c-.57,6.61.82,14.07,0,20.46-.12.96-3.32,3.72-3.41,6.82-10.33,1.63-14.02-4.95-17.05-13.64,3.93-2.25,9.84-11.53,17.05-13.64.93-.27,2.23.13,3.41,0Z"/>
  <path class="st6" d="M159.64,393.35l-3.41,6.82c-2.45-1.11-4.48-2.24-6.82-3.41l.02-6.8c4.44-2.06,9.65,3.39,10.21,3.39Z"/>
  <path class="st2" d="M265.34,222.86l-44.33,23.87c-11.78-8.85-38.34-11.15-34.1-30.69,6.88-3.57,23.49-20.01,32.34-20.31l46.08,27.13Z"/>
  <path class="st5" d="M299.44,137.61c3.03,8.69,6.72,15.27,17.05,13.64-.31,10.29,2.83,14.77,3.41,20.46.23,2.23-.15,4.57,0,6.82l-44.33,30.69c-6.82.65-9.5-4.21-13.64-6.82,15.34-11.52,5.75-45.74,13.64-54.56,4.19-4.68,18.87-7.36,23.87-10.23Z"/>
  <path class="st6" d="M176.69,345.61l6.83,20.45-10.24,6.82c22.06-5.37,13.3,13.33,4.15,16.91-3.35,1.31-7.71-.28-10.97.16v-44.33c2.65.75,7.1-.5,10.23,0Z"/>
  <path class="st11" d="M357.41,212.63c2.46,1.43,4.64,4.78,6.82,6.82-1.15.66-5.72,8.56-10.41,11.73-6.52,4.39-23.46,10.47-27.09,15.55l-47.74-23.87c-.12-1.12.22-2.33,0-3.41l42.95-23.91c4.6-.22,29.39,13.54,35.48,17.09Z"/>
</svg>