<?xml version="1.0" encoding="UTF-8"?>
<svg id="Layer_1" xmlns="http://www.w3.org/2000/svg" version="1.1" viewBox="0 0 500 500">
  <!-- Generator: Adobe Illustrator 29.8.4, SVG Export Plug-In . SVG Version: 2.1.1 Build 6)  -->
  <defs>
    <style>
      .st0 {
        fill: #334748;
      }

      .st1 {
        fill: #43ab7d;
      }

      .st2 {
        fill: #52b486;
      }

      .st3 {
        fill: #3bb073;
      }

      .st4 {
        fill: #3b434a;
      }

      .st5 {
        fill: #6ec296;
      }

      .st6 {
        fill: #43615a;
      }

      .st7 {
        fill: #31af72;
      }

      .st8 {
        fill: #daeee5;
      }

      .st9 {
        fill: #3bb876;
      }

      .st10 {
        fill: #48b07d;
      }

      .st11 {
        fill: #324f4b;
      }

      .st12 {
        fill: #3c4e4b;
      }

      .st13 {
        fill: #31aa71;
      }

      .st14 {
        fill: #5bbe8c;
      }

      .st15 {
        fill: #38a770;
      }

      .st16 {
        fill: #2f3d40;
      }

      .st17 {
        fill: #699c87;
      }

      .st18 {
        fill: #46b980;
      }

      .st19 {
        fill: #a8abae;
      }
    </style>
  </defs>
  <path class="st13" d="M132.4,277.75c2.05,4.83-.08,19.29,7.4,25.9-2.87,1.42-6.2,11.08-7.4,14.8-3.42,10.56-5.08,18.29-3.7,29.6l3.63,5.58c2.26,1.62,4.91,1.4,7.47,1.82v3.7c-5.83,5.83-7.68,11.9-11.1,18.5-.38.73-5.29,1.53-6.64,6.16-2.62,9.01.86,21.16-4.99,30.32l-40.17,4.22c-1.22-.1-2.47.07-3.7,0l-3.7-3.7c-5.71-36.72,2.17-73.43,0-111,1.41-.87,2.53-3.12,3.7-3.7,7.52-3.72,13.9-4.52,22.2-3.7l3.32-2.11c-1.39-12.94,1.85-17.75,7.78-27.49,6.06-7.6,24.54,7.91,25.9,11.1ZM102.8,329.55c3.9-15.17-6.83-31.91-7.42-7.35l-18.49-.02,7.39,40.69,33.31-3.72.02-29.62c-4.88.25-9.95-.41-14.82.02ZM106.52,377.65l-24.33,3.43c-5.69,32.71,30.1,27.66,24.33-3.43Z"/>
  <path class="st12" d="M76.91,203.75c2.4-.25,5.08.37,7.4,0l11.11-.02v44.42c-.26,2.42.15,4.96,0,7.4-.89,13.43.62,27.23,0,40.7-8.29-.82-14.68-.02-22.2,3.7l-7.4-3.7c-1.63-31.93-.6-63.83,0-92.5,3.66-.26,7.47.38,11.1,0Z"/>
  <path class="st12" d="M143.5,77.95c23.98-1.89,56.71-13.7,80.35-5.01,3.8,1.4,6.76,8.27,8.45,8.71l-3.94,21.97c-7.89.66-17.25-.07-21.96,7.62-1.2-.07-2.5-.07-3.7,0-5.05-6.44-17.79-3.61-25.9-3.7-4.93-.06-9.87,0-14.8,0-6.17,0-12.33,0-18.5,0,.96-6.31,0-15.31,0-22.2v-7.4Z"/>
  <path class="st0" d="M150.9,392.45c1.18-.2,2.48.1,3.7,0,25.81-2.22,52.4.15,77.7,3.7-2.14,6.42-4.51,12.71,0,18.5-.64.18-1.74,5.63-11.1,7.4-2.18.41-4.97-.21-7.4,0-7.28.62-14.87-.24-22.2,0-3.69.12-7.41,0-11.1,0h-29.6c-4.69,2.15-9.6-3.46-11.1-3.7v-22.2c3.43-2.21,7.11-3.03,11.1-3.7Z"/>
  <path class="st0" d="M358.1,396.15v22.2c-5.63.28-15.4,3.45-25.9,3.7-7.39.18-14.81-.04-22.2,0-3.68.02-7.42.16-11.1,0-1.23-.05-2.47.06-3.7,0-2.45-.11-4.96.2-7.4,0-3.56-.29-8.03.67-11.1,0-9.3-2.04-10.46-7.22-11.1-7.4l3.7-22.2c7.68-2.65,81.49-.5,88.8,3.7Z"/>
  <path class="st12" d="M291.5,70.55l-3.7,3.66c3.68.07,7.4.08,11.1.04,1.23-.01,2.47.05,3.7,0,24.43-.92,33.94,2.35,55.5,3.7l.02,25.92-85.12-.02c-.65-.66,0-14.85,0-18.5v-7.4c3.77-1.71,7.98-9.11,13.77-10.41,3.24-.72,4.44,2.97,4.73,3.01Z"/>
  <path class="st16" d="M432.1,203.75v11.1c.01,2.47-.02,4.93,0,7.4s-.02,4.93,0,7.4-.01,4.93,0,7.4c.02,3.7,0,7.4,0,11.1,0,2.47.01,4.93,0,7.4-.07,13.2.21,27.11,0,40.7-7.94-1.04-18.59,1.5-25.9,0,1.41-7-1.76-12.32-3.7-18.5-.37-1.17.41-2.69,0-3.7,1.97-2.05,3.3-4.57,3.7-7.4.33-2.34-.11-4.98,0-7.4.22-4.91-.07-9.88,0-14.8.07-4.93-.17-9.88,0-14.8.3-8.6-.24-17.32-.02-25.92l25.92.02Z"/>
  <path class="st13" d="M369.2,77.95c8.45,12.08-1.54,30.32,7.4,40.7-.82,3.45-3.47,6.34-3.7,7.4-6.64-17.71-13,7.64-16.65,7.44l-1.87-14.87c-11.53-4.13-9.41,7.67-16.5,7.85-9.42.24-33.59-.55-43.47-1.27-20.13-1.45-10.87-7.42-14.92-16.77-.95-2.18-5.7-3.21-6.5-4.59l85.12.02-.02-25.92c3.67.23,7.44-.31,11.1,0Z"/>
  <path class="st7" d="M76.91,148.25l3.74,11.1,7.31-.07c-1.58-13.07,16.48-5.79,25.95-7.33-.89,8.32.6,17.47-.02,25.92,4.41.8,11.17-1.14,14.82-.02l3.69,22.17-14.79.03c-3.11-7.88-22.93-26.47-33.28-25.88-2.43,11.32,5.53,4.73,11.25,9.87,1.83,1.64,7.15,11.1,7.27,14.12-5.78-.17-15.88,5.17-18.54,5.59-2.32.37-5-.25-7.4,0,.29-7.49-3.77-11.4-11.1-11.1.06-2.46-.07-4.94,0-7.4l7.39.03c-3.64-12.25,3.39-27.91,3.71-37.03Z"/>
  <path class="st15" d="M432.1,203.75l-25.92-.02c-.22,8.6.32,17.32.02,25.92h-14.8c-3.02-14.21-3.42-22.37,2.29-36.74,5.51-13.88,12.59-11.09,21.67-18.99,2.99-2.61,3.63-8.4,5.64-10.87.41-.5,6.73,1.87,7.56-2.32l-.17-23.6-11.08.02c-.49-2.28.68-5.94,0-7.4h11.08s.74-15.94.74-15.94l2.98-2.56c1.09,30.71-.8,61.76,0,92.5Z"/>
  <path class="st7" d="M106.5,77.95l-.03,7.39,19.9.08,2.33-7.47c4.88-.37,9.92.39,14.8,0v7.4l-3.95,14.62c-2.31,1.02-4.96-.16-7.15.18-2.3.36-5-.35-7.39-.03l-.02,18.53c-5.93,2.67-15.72-3.88-18.48-3.71l-2.21-15.11c-7.92-4.37-13.9-2.1-19.98,4.01-.69.7-2.85.41-3.71,1.92-1.37,4.58,3.51,5.02,3.71,5.48,1,2.3,2.38,5.42,3.7,7.4v3.7c-.73.44,2.43,11.36-11.1,7.4.16-7.19-5.43-30.95-3.02-38.5,2.62-8.2,16.91-1.62,14.12-13.3,5.94-.64,12.44.36,18.5,0Z"/>
  <path class="st3" d="M406.2,296.25c7.31,1.5,17.96-1.04,25.9,0-.23,14.74.57,29.68,0,44.4l-10.88.17-3.92,18.33c-3.61-.4-7.44.17-11.1,0l3.36-8.91-3.36-2.19c17.6-11.18,17.98-35.61-7.4-33.3-1.14-1.33-2.46-2.47-3.7-3.7s-2.62-2.37-3.7-3.7v-18.5c1.35.86,13.99,7.23,14.8,7.4Z"/>
  <path class="st15" d="M358.1,418.35v-22.2c3.63,2.09,6.29,9.5,11.97,12.07,7.5,3.39,26.29,4.65,33.88,2.2,6.59-2.12,4.52-8.49,5.96-10.57,7.51-10.92,12.65-10.93,0-25.9,5.76-.85,12.56.65,18.52,0l-.02-11.11h3.7c-.76,18.01,1.05,36.94-7.15,53.9-22.04,3.82-44.71.48-66.85,1.6Z"/>
  <path class="st15" d="M417.3,77.95v3.7c-.3,3.88-4.82,13.26-7.4,14.8-9.99,5.96-29.7,2.05-11.1,25.9-.33.23,1.06,5.46-2.47,7.52-1.71,1-15.16,7.12-16.03,7.28-2.19.42-4.98-.23-7.4,0,.47-3.5-.69-7.93,0-11.1.23-1.06,2.88-3.95,3.7-7.4,3.34-14.12,5.28-25.16,3.7-40.7,11.78.9,25.87-1.62,37,0Z"/>
  <path class="st7" d="M273,85.35c-1.41.7-2.96,3.58-3.7,3.7-2.29.37-4.98-.16-7.4,0-6.11.42-12.37-.33-18.49.02-1.16,1.01,2.79,11.46,3.69,14.78-1.66.65-5.1-.55-7.39-.03v22.22c-.92.13-2.49,2.81-3.71,3.7h-3.7c-.08-2.46-2.77-2.68-3.7-3.7-.46-.5,1.44-4.6-2.44-7.59-3.19-2.45-15.44-6.95-19.75-7.21,4.71-7.7,14.07-6.96,21.96-7.62l3.94-21.97c9.09,2.35,31.7.38,40.7-3.7v7.4Z"/>
  <path class="st1" d="M88,77.95c2.79,11.68-11.5,5.1-14.12,13.3-2.41,7.55,3.18,31.31,3.02,38.5-.14,6.16.22,12.35,0,18.5-.32,9.12-7.35,24.78-3.71,37.03l-7.39-.03c.47-17.6-4.44-96.97,6.22-103.9,4.3-2.8,10.91-2.84,15.98-3.39Z"/>
  <path class="st13" d="M424.7,81.65c4.72,3.46,1.25,18.3,7.4,22.2.17,2.44-.09,4.94,0,7.4l-2.98,2.56-.74,15.95h-11.08c-.82-1.76-9.59-7.09-11.1-7.41,13.78-6.6,13.69-15.21,3.7-25.9,2.58-1.54,7.1-10.92,7.4-14.8,2.11.48,6.41-.72,7.4,0Z"/>
  <path class="st18" d="M265.6,414.65c-3.05-.85-30.25-.85-33.3,0-4.51-5.79-2.14-12.08,0-18.5,2.36.33,5.1-.4,7.4,0,3.08.54,9.93-.85,11.1,0,.33.24-1.38,6.33,2.39,7.43,16.28,4.76,11.16-9.42,16.11-11.13l-3.7,22.2Z"/>
  <path class="st1" d="M128.7,377.65l.02,36.98,11.08-18.48v22.2c-18.13-2.94-43.38,1.53-62.9,0l40.17-4.22c5.85-9.16,2.37-21.31,4.99-30.32,1.35-4.63,6.26-5.43,6.64-6.16Z"/>
  <path class="st5" d="M380.3,77.95c1.58,15.54-.36,26.58-3.7,40.7-8.94-10.38,1.05-28.62-7.4-40.7,3.66.31,7.44-.28,11.1,0Z"/>
  <path class="st7" d="M432.1,340.65c-.28,7.38.31,14.83,0,22.2h-3.7c-4.37,1.92-9.74-3.55-11.1-3.7l3.92-18.33,10.88-.17Z"/>
  <path class="st19" d="M332.2,422.05l-11.06,3.72-.05,11.11-11.09-14.83c7.39-.04,14.81.18,22.2,0Z"/>
  <path class="st1" d="M128.7,77.95l-2.33,7.47-19.9-.08.03-7.39c7.34-.43,14.88.55,22.2,0Z"/>
  <path class="st19" d="M287.8,422.05l-.02,14.82h-9.21s-1.87-14.82-1.87-14.82c3.07.67,7.54-.29,11.1,0Z"/>
  <path class="st19" d="M191.6,422.05l-.02,14.82h-9.21s-1.87-14.82-1.87-14.82c3.69,0,7.41.12,11.1,0Z"/>
  <path class="st19" d="M432.1,229.65l18.48.02.04,5.49-18.52,1.89c-.01-2.47.02-4.93,0-7.4Z"/>
  <path class="st1" d="M76.91,203.75c-3.63.38-7.44-.26-11.1,0,.08-3.7-.09-7.4,0-11.1,7.33-.3,11.39,3.61,11.1,11.1Z"/>
  <path class="st19" d="M221.2,422.05l-1.85,18.54-5.55-18.54c2.43-.21,5.22.41,7.4,0Z"/>
  <path class="st19" d="M295.2,70.55l.02-11.08h7.36s.02,14.78.02,14.78c-1.23.05-2.47-.01-3.7,0-1.14-1.19-2.27-2.94-3.7-3.7Z"/>
  <path class="st19" d="M432.1,248.15l14.84,1.85-14.84,5.55c.01-2.47,0-4.93,0-7.4Z"/>
  <path class="st19" d="M432.1,214.85l14.84,1.85-14.84,5.55c-.02-2.47.01-4.93,0-7.4Z"/>
  <path class="st15" d="M432.1,103.85c-6.15-3.9-2.68-18.74-7.4-22.2,10.69,7.81,6.62,10.81,7.4,22.2Z"/>
  <path class="st8" d="M295.2,70.55c1.43.76,2.56,2.51,3.7,3.7-3.7.04-7.42.03-11.1-.04l3.7-3.66c1.33.16,2.98-.38,3.7,0Z"/>
  <polygon class="st19" points="169.4 422.05 167.55 429.48 165.7 422.05 169.4 422.05"/>
  <path class="st5" d="M424.7,81.65c-.99-.72-5.29.48-7.4,0v-3.7c4.35.64,4.56,1.63,7.4,3.7Z"/>
  <polygon class="st19" points="154.6 422.05 152.75 429.49 150.9 422.05 154.6 422.05"/>
  <path class="st19" d="M298.9,422.05l-1.85,7.44-1.85-7.44c1.23.06,2.47-.05,3.7,0Z"/>
  <path class="st19" d="M73.21,299.95c-1.17.58-2.28,2.83-3.7,3.7-.12-2-3.6-5.5-3.7-7.4l7.4,3.7Z"/>
  <path class="st19" d="M73.21,418.35l-3.7-3.7,3.7,3.7Z"/>
  <path class="st15" d="M139.8,359.15l18.5,7.44-11.07,7.43,5.59,11c6.91,2.45,4.61-6.59,7.92-7.36,8.71-2.03,21.39,1.36,30.85-.02,2.94-14.23-21.48-4.84-29.56-7.42-1.25-3.33,13.96-7.34,14.78-7.36,1.22-.04,2.49-.08,3.7,0,.58.04,9.88,3.19,11.1,3.7,15.34,6.36,4.8,7.75,18.5,7.4,15.04-.39,14.89,11.78,29.6,11.1v11.1c-2.3-.4-5.04.33-7.4,0-25.3-3.55-51.89-5.92-77.7-3.7l-1.85-3.63-1.85,3.63c-3.98.67-7.67,1.49-11.1,3.7l-11.08,18.48-.02-36.98c3.42-6.6,5.27-12.67,11.1-18.5Z"/>
  <path class="st1" d="M195.3,222.25c.38,6.11-.56,12.43,0,18.5.74,8,3.57,15.47,4.02,23.52-.45,2.41-8.98,5.58-11.42,6.08-3.22.66-7.58-.45-11.1,0,.61-.66-.62-3.04,0-3.7.44-.47,6.37,1.93,7.49-2.39l.11-13.82c-.46-1.6-12.16-5.99-13.15-5.99h-53.65l22.17,7.35-30.83,7.35c-4.4,1.09-1.75,6.36-2.45,7.5-5.92,9.74-9.16,14.55-7.78,27.49l-3.32,2.11c.62-13.47-.89-27.27,0-40.7,9.85,2.58,6.59-6.73,10.93-13.12,2.12-3.12,6.36-3.95,7.57-5.38l66.58-.02c1.09-9.73-.21-6.79-7.38-7.38v-14.8c1.19-.21,2.49.14,3.7,0,4.01,6.34,11.52,7.55,18.5,7.4Z"/>
  <path class="st2" d="M106.5,266.65c.69-1.14-1.96-6.4,2.45-7.5l30.83-7.35-22.17-7.35h53.65c.99,0,12.69,4.39,13.15,5.99l-.11,13.82c-1.12,4.32-7.05,1.91-7.49,2.39-6.73,1.7-17.36,1.41-23.18,3.85-4.29,1.8-2.4,7.03-2.72,7.25-1.54,1.05-15.37,2.84-18.5,0-1.36-3.19-19.84-18.7-25.9-11.1Z"/>
  <path class="st0" d="M154.6,314.75c4.8-.59,9.97.32,14.82-.02-1.08,11.82,1.48,25.59-.02,37.02-2.38.75-5.32,3.42-7.4,3.7-5.2.69-17.21.83-22.2,0l-11.1-7.4c-1.38-11.3.28-19.04,3.7-29.6,4.72-.53,10.37.77,14.8,0,2.28-.4,5.33-3.45,7.4-3.7Z"/>
  <path class="st11" d="M102.8,329.55c4.86-.43,9.94.23,14.82-.02l-.02,29.62-29.62.02.55-25.4c.8-1.3,11.46-3.97,14.27-4.22Z"/>
  <path class="st18" d="M176.8,266.65c-.62.66.61,3.04,0,3.7-6.46,6.98-11.08,2.25-3.7,14.8v7.35c-15.99-.45-12.5,4.58-14.8,14.85-8.34-2.02-8.43,4.78-11.1,11.1-4.43.77-10.08-.53-14.8,0,1.2-3.71,4.53-13.38,7.4-14.8,2.15-1.06,8.45,2.81,11.21-2.4,3-5.69,4.45-18.07-.11-23.5.32-.22-1.58-5.45,2.72-7.25,5.82-2.44,16.46-2.15,23.18-3.85Z"/>
  <path class="st10" d="M162,355.45c1.12,1.35,2.35,2.58,3.7,3.7,3.83,3.17,5.54,4.75,11.1,3.7-.83.03-16.03,4.03-14.78,7.36,8.08,2.57,32.5-6.81,29.56,7.42-9.46,1.38-22.14-2.01-30.85.02-3.31.77-1.02,9.82-7.92,7.36l-5.59-11,11.07-7.43-18.5-7.44v-3.7c4.99.83,17,.69,22.2,0Z"/>
  <path class="st1" d="M117.6,359.15l-33.31,3.72-7.39-40.69,18.49.02c.59-24.56,11.32-7.82,7.42,7.35-2.81.25-13.47,2.92-14.27,4.22l-.55,25.4,29.62-.02Z"/>
  <path class="st8" d="M106.52,377.65c5.76,31.09-30.03,36.14-24.33,3.43l24.33-3.43Z"/>
  <path class="st15" d="M150.9,277.75c4.56,5.43,3.11,17.81.11,23.5-2.76,5.22-9.05,1.34-11.21,2.4-7.48-6.61-5.35-21.07-7.4-25.9,3.13,2.84,16.96,1.05,18.5,0Z"/>
  <path class="st15" d="M139.8,355.45c-2.56-.43-5.21-.2-7.47-1.82l-3.63-5.58,11.1,7.4Z"/>
  <path class="st1" d="M117.6,200.05c1.75,4.45.09,16.29,3.7,22.2-7.79,1.28-12.01,5.04-22.17.01,3.74,9.52-3.18,20.65-3.73,25.89v-44.42s-11.1.02-11.1.02c2.66-.42,12.75-5.75,18.54-5.59-.12-3.03-5.44-12.48-7.27-14.12-5.72-5.14-13.68,1.45-11.25-9.87,10.35-.59,30.17,18.01,33.28,25.88ZM110.17,214.83v-7.36h-3.62v7.36h3.62Z"/>
  <path class="st10" d="M121.3,222.25c1.58-.26,4.41,1.46,3.7,3.7-11.28,2.18-9.68,9.41-11.1,11.1-1.2,1.42-5.45,2.26-7.57,5.38-4.35,6.39-1.08,15.71-10.93,13.12.16-2.44-.25-4.98,0-7.4.55-5.24,7.47-16.37,3.73-25.89,10.17,5.03,14.38,1.27,22.17-.01Z"/>
  <path class="st3" d="M162,107.55c-.96,9.67,2.41,16.56,12.93,14.82l1.87-14.82c8.11.09,20.85-2.74,25.9,3.7-1.28.07-19.18,3.95-14.78,11.08l40.68,3.72c.93,1.02,3.62,1.24,3.7,3.7l-2.84,2.16c1.67,8.15,2.97,15.28,2.84,23.74l-7.13-.2c-.94-12.12-.72-23.64-15.07-25.7-16.82-2.42-38.85,2.55-55.5,0-12.47-1.91-11.2-8.95-14.8-11.1-1.86-4.48,3.45-9.45,3.7-11.1,6.17,0,12.33,0,18.5,0Z"/>
  <path class="st18" d="M206.4,111.25c4.32.26,16.57,4.75,19.75,7.21,3.89,2.99,1.98,7.09,2.44,7.59l-40.68-3.72c-4.4-7.13,13.5-11.01,14.78-11.08,1.2-.07,2.5-.07,3.7,0Z"/>
  <path class="st1" d="M143.5,107.55c-.25,1.65-5.56,6.62-3.7,11.1-1.22-.73-5.24.49-7.4,0,.67-2.87-4.12-13.23,0-18.5,2.18-.34,4.83.84,7.15-.18l3.95-14.62c0,6.89.96,15.89,0,22.2Z"/>
  <path class="st18" d="M176.8,107.55l-1.87,14.82c-10.52,1.74-13.89-5.15-12.93-14.82,4.93,0,9.87-.06,14.8,0Z"/>
  <path class="st10" d="M154.6,392.45c-1.22.1-2.52-.2-3.7,0l1.85-3.63,1.85,3.63Z"/>
  <path class="st3" d="M280.4,359.15c-.27,6.95,0,12.07-3.7,18.47,20.9-3.57,51.41-6.7,72.38-3.95.97.13,9.57,5.51,16.42,7.69,9.56,3.05,19.49,6.51,29.6,7.4,2.92,9.01,2.97,12.4,14.8,11.1-1.43,2.08.63,8.45-5.96,10.57-7.59,2.44-26.38,1.19-33.88-2.2-5.68-2.57-8.33-9.98-11.97-12.07-7.3-4.2-81.12-6.35-88.8-3.7-4.95,1.71.17,15.89-16.11,11.13-3.78-1.1-2.06-7.19-2.39-7.43,7.23-3.22,3.83-7.17,0-11.1-7.46-7.66-8.72-.11-11.1,0-14.71.68-14.56-11.49-29.6-11.1,1.42-6.21-1.47-7.91-7.33-7.45l-.05-7.33,18.48-.02c.09,2.35,4.65,7.19,3.77,11.12,2.68.64,3.28-3.69,3.63-3.72,2.44-.19,4.95.15,7.4,0s4.97.22,7.4,0c3.83-.35,8.98,2.06,11.48-2.19l3.32-23.71c3.58,4.94,16.34,18.4,22.2,18.5Z"/>
  <path class="st18" d="M273,103.85c-3.09-5.31-5.53-7.42-3.7-14.8.74-.12,2.29-3,3.7-3.7,0,3.65-.65,17.84,0,18.5Z"/>
  <path class="st15" d="M387.7,277.75c4.93-.09,9.87.06,14.8,0,1.94,6.18,5.11,11.49,3.7,18.5-.81-.17-13.45-6.54-14.8-7.4-1.9-1.22-2.96-7.87-7.36-7.4-2.26,15.47-.14,16.67,7.36,25.9,1.08,1.33,2.48,2.49,3.7,3.7v3.7c-4.05,1.44-10.97,11.34-14.8,14.8l.02-25.92-37.02.02c-1.11-8.63-4.23-6.84-11.1-11.1.82-.62-1.97-7.36,1.81-7.41l20.21,7.16.18-10.85c9.59.18,21.26-3.48,33.3-3.7Z"/>
  <path class="st3" d="M406.2,259.25c-.11,2.42.33,5.06,0,7.4-2.47.03-4.93-.04-7.4,0-17,.26-9.35,6.25-11.1,7.4-4.54,2.96-52.37-2.17-62.9,0v-3.7c.82-.09,4.08-3.61,8.96-3.85,15.44-.75,31.11.81,46.54.15.99-.25,6.96-6.35,7.4-7.4h18.5Z"/>
  <path class="st15" d="M406.2,259.25h-18.5c.84-2.03-1.82-8.54.54-10.48l14.26-4.32h3.7c-.07,4.92.22,9.89,0,14.8Z"/>
  <path class="st17" d="M406.2,229.65c-.17,4.92.07,9.87,0,14.8h-3.7c-2.28-2.52-8.07-3.07-9.64-5.13-1.98-2.59-.96-4.54-1.46-5.96-.35-1.01.27-2.45,0-3.7h14.8Z"/>
  <path class="st10" d="M398.8,266.65c-1.35,3.95,3.32,6.47,3.7,7.4.41,1.01-.37,2.53,0,3.7-4.93.06-9.87-.09-14.8,0v-3.7c1.75-1.15-5.9-7.14,11.1-7.4Z"/>
  <path class="st15" d="M406.2,266.65c-.4,2.83-1.73,5.35-3.7,7.4-.38-.93-5.05-3.45-3.7-7.4,2.47-.04,4.93.03,7.4,0Z"/>
  <path class="st9" d="M269.3,89.05c-1.83,7.38.61,9.49,3.7,14.8.8,1.38,5.55,2.41,6.5,4.59,4.05,9.34-5.21,15.31,14.92,16.77,9.88.71,34.04,1.51,43.47,1.27,7.09-.18,4.97-11.98,16.5-7.85l1.87,14.87c3.65.2,10.01-25.15,16.65-7.44-.69,3.17.47,7.6,0,11.1-18.54,1.76-46.51-7.63-55.5,11.1v3.7l-7.39-.03v37.05s-11.11-.02-11.11-.02c-2.68-12.53-10.43-14.92-22.2-18.5l22.12-18.57-1.78-7.35-16.66.04v-18.54s-11.06,0-11.06,0c-1.01,14.47,1.33,30.13-.02,44.42-2-.53-5.03.44-7.39.02,2.68-11.83-1.68-20.3-3.71-29.62-1.14-5.23-2.35-9.7-3.7-14.8-.31-1.15.32-2.56,0-3.7l7.37-.02v-7.36s-11.07-.02-11.07-.02c-1.17-3.74-2.65-7.2-3.7-11.1,5.99-2.33,14.85-5.42,14.8-14.8,2.42-.16,5.11.37,7.4,0Z"/>
  <path class="st9" d="M132.4,100.15c-4.12,5.27.67,15.63,0,18.5-2.31,9.84-11.47,16.82-14.8,22.2s-2.96,4.18-3.7,11.1c-9.47,1.54-27.53-5.74-25.95,7.33l-7.31.07-3.74-11.1c.22-6.15-.14-12.34,0-18.5,13.53,3.96,10.37-6.96,11.1-7.4.9-.53,2.72.52,3.7,0,2.36-1.25,13.97-7.35,14.8-7.4,2.77-.17,12.55,6.38,18.48,3.71l.02-18.53c2.4-.32,5.09.39,7.39.03Z"/>
  <path class="st11" d="M154.6,140.85c-.11,3.61.46,7.64,0,11.1-1.46,10.88-5.45,22.38-7.4,33.3-1.16-.29-2.53.28-3.7,0-4.62-1.12-9.91-5.9-14.8-7.4-3.65-1.12-10.41.83-14.82.02.62-8.45-.87-17.6.02-25.92.74-6.92.25-5.52,3.7-11.1h37Z"/>
  <path class="st13" d="M143.5,185.25c.55,3.96,1.93,7.55,3.7,11.1,5.76,11.55,5.88,5.66,7.4,7.4.81.92,1.32,4.68,3.7,7.4s3.62,3.96,7.4,3.7c-1.04.3-12.64,10.62-18.5,11.1-6.18-.28-16.82-1.04-22.2,0,.71-2.24-2.12-3.96-3.7-3.7-3.61-5.91-1.95-17.75-3.7-22.2l14.79-.03-3.69-22.17c4.89,1.5,10.18,6.28,14.8,7.4Z"/>
  <path class="st3" d="M406.2,122.35c1.51.32,10.28,5.65,11.1,7.4.68,1.46-.49,5.12,0,7.4-8.04,9.47-.46,23.1-5.49,33.36-2.48,5.06-22.22,16.47-27.81,29.54-7.57.46-15.48,5.23-22.2,0,.74-3.92,1.49-7.69,3.7-11.1,4.94-.11,9.9.15,14.82.02.8-14.66-1.15-29.81-.02-44.42.05-.68,3.81-2.53,3.16-5.11l-3.16-2.29c.86-.17,14.31-6.29,16.03-7.28,3.53-2.06,2.15-7.29,2.47-7.52.38-.27,5.99-.3,7.4,0Z"/>
  <path class="st5" d="M421,163.05c-2.01,2.47-2.64,8.26-5.64,10.87-9.08,7.9-16.16,5.11-21.67,18.99-5.71,14.38-5.31,22.53-2.29,36.74.27,1.25-.35,2.69,0,3.7l-11.33-2c-.28-11.54-.74-20.38,3.93-31.3,5.59-13.07,25.32-24.48,27.81-29.54,5.04-10.26-2.55-23.89,5.49-33.36,1.65,7.63,1.51,17.79,3.7,25.9Z"/>
  <path class="st13" d="M417.3,137.15l11.08-.02.17,23.6c-.83,4.19-7.15,1.81-7.56,2.32-2.19-8.11-2.05-18.27-3.7-25.9Z"/>
  <path class="st8" d="M84.3,103.85c6.08-6.12,12.07-8.38,19.98-4.01l2.21,15.11c-.83.05-12.44,6.15-14.8,7.4-.84-1.53-2.9-2.5-3.7-3.7-1.32-1.98-2.7-5.1-3.7-7.4v-7.4Z"/>
  <path class="st1" d="M84.3,111.25c-.2-.46-5.08-.91-3.71-5.48.86-1.51,3.01-1.22,3.71-1.92v7.4Z"/>
  <path class="st1" d="M91.7,122.35c-.98.52-2.8-.53-3.7,0v-3.7c.8,1.2,2.86,2.17,3.7,3.7Z"/>
  <path class="st7" d="M406.2,348.05c-7.03,4.46-19.39,7.56-27.78,7.72-12.84.25-59.25-4.06-68.42-7.72l5.84-18.93c9.24-3.46,18.77-5.42,27.46.43,2.28,21.13,19.1,17.09,37,11.1,1.22-.41,2.96.55,3.63-1.85l-3.63-1.85c0-2.47,0-4.93,0-7.4,3.83-3.46,10.75-13.36,14.8-14.8.91-.32,2.4.12,3.7,0,25.38-2.31,25,22.12,7.4,33.3Z"/>
  <path class="st13" d="M406.2,359.15c3.66.17,7.49-.4,11.1,0,1.36.15,6.73,5.62,11.1,3.7l.02,11.11c-5.96.64-12.76-.86-18.52,0-9.72,1.44-8.51-.86-14.8,7.4-.53.7-2.32.6-2.73,1.8l2.73,1.9c.26,1.17-.36,2.6,0,3.7-10.11-.89-20.04-4.35-29.6-7.4,2.45-6.63-2.41-10.68-3.7-14.8-.59-1.9.4-5.09,0-7.4,14.73.27,29.7-.67,44.4,0Z"/>
  <path class="st2" d="M298.9,340.65c5.42,1.65,8.64,6.42,11.1,7.4,9.16,3.65,55.58,7.96,68.42,7.72,8.39-.16,20.75-3.25,27.78-7.72l3.36,2.19-3.36,8.91c-14.7-.67-29.67.27-44.4,0-23.37-.43-46.91.33-70.28-.02l7.43-9.23c-.69-3.99-5.97,2.69-7.44-9.25,2.32.39,5.48-.58,7.4,0Z"/>
  <path class="st10" d="M391.4,288.85v18.5c-7.5-9.23-9.62-10.43-7.36-25.9,4.4-.47,5.47,6.18,7.36,7.4Z"/>
  <path class="st10" d="M398.8,314.75c-1.3.12-2.79-.32-3.7,0v-3.7c1.24,1.23,2.56,2.37,3.7,3.7Z"/>
  <path class="st8" d="M409.9,373.95c12.65,14.97,7.51,14.98,0,25.9-11.83,1.3-11.88-2.09-14.8-11.1-.36-1.1.26-2.53,0-3.7v-3.7c6.29-8.26,5.08-5.96,14.8-7.4Z"/>
  <path class="st8" d="M409.9,96.45c9.99,10.69,10.08,19.3-3.7,25.9-1.41-.3-7.02-.27-7.4,0-18.6-23.85,1.11-19.94,11.1-25.9Z"/>
  <path class="st14" d="M372.9,137.15c2.42-.23,5.21.42,7.4,0l3.16,2.29c.65,2.57-3.1,4.42-3.16,5.11-2.46-.08-4.94.12-7.4,0-8.39-.4-15.98-3.44-22.2-3.7-2.45-.1-4.94-.02-7.4,0-10.73.09-17.36-.58-25.9,7.4,8.99-18.73,36.95-9.34,55.5-11.1Z"/>
  <path class="st10" d="M236,129.75c-2.62,8.35,1.61,12.57,3.7,18.5,1.72,4.88,6.64,13.97,7.4,18.5.38,2.25-.17,4.98,0,7.4-2.41-.21-4.96,0-7.4,0-3.7,0-7.4,0-11.1,0h-3.7c3.96-5.62,7.28-11.05,7.4-18.5.14-8.46-1.17-15.59-2.84-23.74l2.84-2.16h3.7Z"/>
  <path class="st18" d="M261.9,89.05c.05,9.38-8.81,12.47-14.8,14.8,1.05,3.9,2.53,7.36,3.7,11.1.97,3.12,3.26,5.84,3.7,7.4.32,1.14-.31,2.55,0,3.7-3.59.35-7.62-.52-11.1,0-1.21.18-2.49-.17-3.7,0v-22.22c2.3-.52,5.74.67,7.4.03-.9-3.32-4.85-13.76-3.69-14.78,6.11-.35,12.38.39,18.49-.02Z"/>
  <path class="st3" d="M243.4,126.05l-3.7,22.2c-2.09-5.93-6.31-10.15-3.7-18.5,1.22-.89,2.79-3.57,3.7-3.7,1.21-.17,2.49.18,3.7,0Z"/>
  <path class="st5" d="M250.8,385.05l-7.4,7.36,7.38.02.02-7.38c3.83,3.93,7.23,7.88,0,11.1-1.17-.85-8.02.54-11.1,0v-11.1c2.38-.11,3.64-7.66,11.1,0Z"/>
  <path class="st7" d="M173.1,285.15c2.16,3.67,7.93,11.41,12.91,11.14,3.42.13,1.81-7.68,1.89-11.14,4.7-.47,18.07,13.23,18.5,14.8,1.24,4.57-1.95,15.63.49,18.22,1.18,1.25,8.31-1.33,10.98,2.44,8.81,12.41,2.93,28.21,3.33,38.54l-18.48.02.05,7.33c5.86-.46,8.76,1.24,7.33,7.45-13.7.35-3.16-1.04-18.5-7.4l3.66-14.8c-7.33,3.67-5.5,11.4-14.76,11.1-1.21-.08-2.48-.04-3.7,0-5.56,1.05-7.27-.53-11.1-3.7.74-2.38,3.43-5.33,3.7-7.4,1.5-11.43-1.07-25.2.02-37.02-4.84.34-10.01-.57-14.82.02.79-2.48,3.19-5.14,3.7-7.4,2.3-10.26-1.19-15.3,14.8-14.85v-7.35Z"/>
  <path class="st10" d="M191.6,366.55c-1.22-.51-10.52-3.66-11.1-3.7,9.26.3,7.43-7.43,14.76-11.1l-3.66,14.8Z"/>
  <path class="st4" d="M217.5,192.65c10.81,2.31,7.67-.01,11.1,0,3.69.02,7.41-.13,11.1,0,2.94.1,6.32-.05,7.4,0,3.68.17,7.43-.24,11.1,0,11.69.76,28.13,2.32,40.7,3.7,1.36,6.35-2.27,10.93,7.4,14.8-.41,4.87.29,9.91,0,14.8-.2,3.44.04,6.85,0,7.4-.26,3.67.26,7.43,0,11.1-.5,7.01-10.51,24.42,0,33.3-.25,2.41.06,4.96,0,7.4-6.35,7-16.39,16.68-25.9,18.5-2.88.55-7.82.17-11.1,0-1.19-.06-5.41-5.33-12.41-3.91-2.68.54-2.61,6.43-5.07,7.71-11.43,5.94-20.15.42-30.62-3.8-.24-.1-.79-2.94-3.7-3.7s-7.67.53-11.1,0c-.42-1.57-13.8-15.27-18.5-14.8.1-4.93-.07-9.87,0-14.8,2.44-.5,10.97-3.67,11.42-6.08-.44-8.05-3.28-15.51-4.02-23.52,5.95-3.13,3.54-12.56,3.7-18.5.07-2.45-.18-4.96,0-7.4.26-3.61-.58-7.82,0-11.1,1.76-10.01,6.67-9,7.4-11.1,3.51.46,7.91-.68,11.1,0Z"/>
  <path class="st14" d="M147.2,225.95c4.71.21,17.33,3,25.9,3.7,7.17.59,8.47-2.35,7.38,7.38l-66.58.02c1.42-1.69-.18-8.92,11.1-11.1,5.38-1.04,16.02-.28,22.2,0Z"/>
  <path class="st2" d="M187.9,270.35c-.07,4.93.1,9.87,0,14.8-.07,3.46,1.53,11.27-1.89,11.14-4.98.28-10.75-7.46-12.91-11.14-7.38-12.55-2.76-7.82,3.7-14.8,3.52-.45,7.88.66,11.1,0Z"/>
  <path class="st10" d="M173.1,214.85v14.8c-8.57-.7-21.19-3.49-25.9-3.7,5.86-.48,17.46-10.8,18.5-11.1,1.98-.56,5.07.41,7.4,0Z"/>
  <path class="st2" d="M199,214.85c-.18,2.44.07,4.95,0,7.4h-3.7c-6.98.16-14.49-1.06-18.5-7.4,1.19-.14,2.49,0,3.7,0h18.5Z"/>
  <path class="st5" d="M165.7,211.15c3.35,0,13.81.66,14.8,0v3.7c-1.21,0-2.51-.14-3.7,0s-2.51-.21-3.7,0c-2.33.41-5.42-.56-7.4,0-3.78.26-5.13-1.11-7.4-3.7h7.4Z"/>
  <path class="st17" d="M195.3,240.75c-.56-6.07.38-12.39,0-18.5h3.7c-.16,5.93,2.25,15.37-3.7,18.5Z"/>
  <path class="st15" d="M158.3,307.35c-.51,2.26-2.91,4.92-3.7,7.4-2.07.25-5.12,3.3-7.4,3.7,2.67-6.32,2.76-13.12,11.1-11.1Z"/>
  <path class="st15" d="M165.7,359.15c-1.35-1.12-2.58-2.35-3.7-3.7,2.08-.28,5.02-2.95,7.4-3.7-.27,2.07-2.96,5.02-3.7,7.4Z"/>
  <rect class="st10" x="106.54" y="207.47" width="3.62" height="7.36"/>
  <path class="st18" d="M210.1,129.75c14.35,2.07,14.13,13.58,15.07,25.7l7.13.2c-.12,7.44-3.44,12.88-7.4,18.5-1.02,1.45-2.47,2.47-3.7,3.7h-3.7c-1.27-.9-2.66-3.44-3.7-3.7v-25.92s-18.5,3.72-18.5,3.72c-12.81-1.44-27.57,1.01-40.7,0,.46-3.46-.11-7.49,0-11.1.04-1.23,0-2.47,0-3.7h55.53s-.03-7.4-.03-7.4Z"/>
  <path class="st7" d="M139.8,118.65c3.6,2.15,2.33,9.19,14.8,11.1v7.4c0,1.23.04,2.47,0,3.7h-37c3.33-5.38,12.49-12.36,14.8-22.2,2.16.49,6.18-.73,7.4,0Z"/>
  <path class="st14" d="M210.1,129.75l.03,7.39h-55.53s0-7.39,0-7.39c16.65,2.55,38.68-2.42,55.5,0Z"/>
  <path class="st2" d="M217.5,299.95l3.7,3.7c10.47,4.22,19.19,9.75,30.62,3.8,2.45-1.28,2.39-7.17,5.07-7.71,7-1.42,11.22,3.84,12.41,3.91l-3.7,18.46,12.93.06,1.87-18.52c.96-1.62,6.01,3.77,7.4,3.7-7.49,14.85,3.02,16.09,3.7,18.5-3.25.01-5.7.68-7.4,3.7-6.2,10.98-3.23,17.59-3.7,29.6-5.86-.1-18.61-13.56-22.2-18.5-1.06-1.47-3.81-29.24-12.95-7.36l-3.7-11.18c-3.12.04-2.18,14.9-1.85,18.54-15.9,2.14,6.32-17.9-11.08-14.78l-.02,40.68c-.36.03-.95,4.36-3.63,3.72.89-3.93-3.68-8.77-3.77-11.12-.4-10.34,5.48-26.13-3.33-38.54-2.68-3.77-9.81-1.19-10.98-2.44-2.44-2.59.75-13.65-.49-18.22,3.43.53,8.12-.78,11.1,0Z"/>
  <path class="st14" d="M284.1,329.55l-.02,37.02,77.72-.02c1.29,4.12,6.15,8.17,3.7,14.8-6.84-2.18-15.45-7.56-16.42-7.69-20.97-2.74-51.47.39-72.38,3.95,3.69-6.39,3.42-11.52,3.7-18.47.47-12.01-2.5-18.62,3.7-29.6Z"/>
  <path class="st1" d="M239.7,340.65c-.33-3.63-1.27-18.5,1.85-18.54l3.7,11.18c9.14-21.89,11.89,5.89,12.95,7.36l-3.32,23.71c-2.5,4.25-7.66,1.84-11.48,2.19,3.45-7.17-3.24-15.09-3.7-18.5-.32-2.37.22-4.98,0-7.4Z"/>
  <path class="st10" d="M228.6,366.55l.02-40.68c17.41-3.12-4.82,16.92,11.08,14.78.22,2.42-.32,5.03,0,7.4-6,3.16-3.48,12.57-3.7,18.5-2.45.15-4.96-.19-7.4,0Z"/>
  <path class="st2" d="M243.4,366.55c-2.43.22-4.95-.15-7.4,0,.22-5.93-2.3-15.34,3.7-18.5.46,3.41,7.15,11.33,3.7,18.5Z"/>
  <path class="st9" d="M332.2,292.55c6.87,4.26,9.99,2.47,11.1,11.1,1.05,8.1-.89,17.65,0,25.9-8.69-5.84-18.22-3.88-27.46-.43l-5.84,18.93c-2.46-.98-5.68-5.75-11.1-7.4l-.25-31.29,11.38-2.05c.91-2.96-3.68-3.32-3.73-3.66-.18-1.18.06-2.49,0-3.7,4.59-6.52,24.83-6.58,25.9-7.4Z"/>
  <path class="st11" d="M343.3,303.65l37.02-.02-.02,25.92c0,2.47,0,4.93,0,7.4v3.7c-17.9,5.99-34.72,10.03-37-11.1-.89-8.25,1.05-17.8,0-25.9Z"/>
  <path class="st10" d="M324.8,270.35v3.7l2.25,3.18c8.57-2.48,21.95,4.12,27.35,4.22l-.18,10.85-20.21-7.16c-3.78.05-1,6.79-1.81,7.41-1.07.82-21.31.88-25.9,7.4-.19-3.96-.1-10.64,0-14.8.06-2.44-.25-4.99,0-7.4.2-1.95,2.88-7.13,3.7-11.1,4.43,2.78,9.54,4.25,14.8,3.7Z"/>
  <path class="st5" d="M387.7,274.05v3.7c-12.04.22-23.7,3.88-33.3,3.7-5.4-.1-18.78-6.69-27.35-4.22l-2.25-3.18c10.52-2.17,58.36,2.96,62.9,0Z"/>
  <path class="st10" d="M321.1,200.05c2.88.4,7.22,3.93,11.1,3.7-1.1,4.98-9.39,7.7-7.38,14.78,22.79.38,32.58,4.77,36.98-18.48,6.72,5.23,14.63.46,22.2,0-4.67,10.92-4.21,19.76-3.93,31.3l11.33,2c.5,1.43-.52,3.38,1.46,5.96,1.57,2.06,7.36,2.62,9.64,5.13l-14.26,4.32c-2.35,1.94.31,8.45-.54,10.48-.44,1.05-6.41,7.15-7.4,7.4-18.17-6.86-44.81-5.38-62.86,0-.66-3.37.85-8.45-.04-11.09-1.76-5.24-6.4-8.68-11.1-11.1.26-3.67-.26-7.43,0-11.1l3.68-5.51-3.68-1.89c.29-4.89-.41-9.93,0-14.8.21-2.55,3.59-6.44,0-11.1,4.72.6,10.12-.66,14.8,0Z"/>
  <path class="st5" d="M317.4,255.55c.89,2.65-.62,7.73.04,11.09,18.05-5.38,44.69-6.85,62.86,0-15.42.66-31.1-.9-46.54-.15-4.88.24-8.14,3.76-8.96,3.85-5.26.55-10.37-.92-14.8-3.7.14-.69-4.42-4.42-2.1-7.52l9.5-3.58Z"/>
  <path class="st3" d="M343.3,140.85c-2.03,15.19-11.06,34.07-3.7,48.1-2.17.4-3.08,3.4-3.7,3.7-1.46.69-5.11-.46-7.38.03-1.57,4.16,3.66,6.96,3.68,7.37.06,1.12.23,2.65,0,3.7-3.88.23-8.22-3.3-11.1-3.7l-3.7-48.1v-3.7c8.54-7.98,15.17-7.31,25.9-7.4Z"/>
  <path class="st17" d="M276.7,170.45c11.77,3.58,19.52,5.97,22.2,18.5.48,2.23-.48,5.17,0,7.4-12.57-1.38-29.01-2.94-40.7-3.7-.43-3.54.64-7.84,0-11.1,10.1,7.45,10.23-1.83,11.1-11.1,2.14.56,5.4-.61,7.4,0Z"/>
  <path class="st18" d="M269.3,170.45c1.34-14.28-1-29.95.02-44.42h11.07s0,18.54,0,18.54l16.66-.04,1.78,7.35-22.12,18.57c-2-.61-5.26.56-7.4,0-.87,9.27-1,18.55-11.1,11.1-.43-2.19.41-5.01,0-7.39-3.67-.34-7.45.3-11.11,0-.17-2.42.38-5.15,0-7.4l7.39.03,3.71-25.93c2.03,9.32,6.39,17.79,3.71,29.62,2.36.42,5.39-.55,7.39-.02Z"/>
  <path class="st18" d="M317.4,151.95l3.7,48.1c-4.68-.66-10.08.6-14.8,0-.94-.12-3.91-3.32-7.4-3.7-.48-2.23.48-5.17,0-7.4l11.11.02v-37.05s7.39.03,7.39.03Z"/>
  <path class="st5" d="M254.5,126.05c1.35,5.1,2.56,9.57,3.7,14.8l-3.71,25.93-7.39-.03c-.76-4.53-5.68-13.61-7.4-18.5l3.7-22.2c3.48-.52,7.51.35,11.1,0Z"/>
  <path class="st5" d="M250.8,114.95l11.08.02v7.36s-7.38.02-7.38.02c-.44-1.56-2.73-4.28-3.7-7.4Z"/>
  <path class="st7" d="M195.3,151.95c.41.05,3.6,2.27,7.4,3.7v7.4c0,3.69-.17,7.42,0,11.1.18,4.05-1.15,9.3,3.7,11.1-.22,2.38.57,5.75,0,7.4-.73,2.1-5.64,1.09-7.4,11.1-18.98-5.46-17.51,6.74-18.5,7.4s-11.45,0-14.8,0c.42-7.13-3.3-7.87-7.4-11.1-1.19-.94-2.29-3.25-3.7-3.7v-7.4l7.44-1.85c0-3.42-4.55-1.47-7.44-1.85-2.38-.32-5.37.51-7.4,0,1.95-10.92,5.94-22.42,7.4-33.3,13.13,1.01,27.89-1.44,40.7,0Z"/>
  <path class="st6" d="M154.6,185.25v11.1c-1.87-.6-5.1.41-7.4,0-1.77-3.55-3.15-7.14-3.7-11.1,1.17.28,2.54-.29,3.7,0,2.03.51,5.01-.32,7.4,0Z"/>
  <path class="st14" d="M165.7,211.15h-7.4c-2.38-2.72-2.89-6.48-3.7-7.4l3.7-3.7c4.1,3.23,7.82,3.97,7.4,11.1Z"/>
  <path class="st5" d="M154.6,196.35c1.41.45,2.51,2.76,3.7,3.7l-3.7,3.7c-1.52-1.74-1.64,4.15-7.4-7.4,2.3.41,5.53-.6,7.4,0Z"/>
  <path class="st11" d="M350.7,140.85l-.03,7.39c6.99-.53,18.15,2.86,22.23-3.69,2.46.12,4.94-.08,7.4,0-1.14,14.61.82,29.76.02,44.42-4.92.13-9.88-.13-14.82-.02s-9.92-.33-14.8,0c-2.44.17-4.99-.27-7.4,0-1.21.14-2.52-.22-3.7,0-7.36-14.03,1.67-32.91,3.7-48.1,2.46-.02,4.95-.1,7.4,0Z"/>
  <path class="st15" d="M343.3,188.95l-3.71,14.71,12.93,3.82-1.81-18.54c4.88-.33,9.89.11,14.8,0-2.21,3.41-2.96,7.18-3.7,11.1-4.4,23.25-14.19,18.86-36.98,18.48-2.01-7.08,6.28-9.8,7.38-14.78.23-1.05.06-2.58,0-3.7l3.7-7.4c.62-.3,1.53-3.3,3.7-3.7,1.18-.22,2.49.14,3.7,0Z"/>
  <path class="st15" d="M380.3,340.65v-3.7l3.63,1.85c-.66,2.4-2.4,1.44-3.63,1.85Z"/>
  <path class="st9" d="M291.5,325.85c1.03,3.66-.56,10.26,0,14.8,1.47,11.93,6.76,5.26,7.44,9.25l-7.43,9.23c23.37.35,46.91-.41,70.28.02.4,2.31-.59,5.5,0,7.4l-77.72.02.02-37.02c1.7-3.02,4.15-3.69,7.4-3.7Z"/>
  <path class="st3" d="M395.1,385.05l-2.73-1.9c.4-1.2,2.2-1.1,2.73-1.8v3.7Z"/>
  <path class="st14" d="M306.3,303.65c.05.35,4.64.71,3.73,3.66l-11.38,2.05.25,31.29c-1.92-.58-5.08.39-7.4,0-.56-4.54,1.03-11.14,0-14.8-.68-2.41-11.19-3.65-3.7-18.5,3.97-.2,12.13-6.05,18.5-3.7Z"/>
  <path class="st3" d="M372.9,144.55c-4.08,6.55-15.24,3.16-22.23,3.69l.03-7.39c6.22.26,13.81,3.3,22.2,3.7Z"/>
  <path class="st8" d="M239.7,174.15v18.5c-3.69-.13-7.41.02-11.1,0v-18.5c3.7,0,7.4,0,11.1,0Z"/>
  <path class="st2" d="M228.6,192.65c-3.43-.01-.29,2.31-11.1,0v-11.1c1.37-1.1,2.47-2.47,3.7-3.7s2.68-2.25,3.7-3.7h3.7v18.5Z"/>
  <path class="st17" d="M247.1,174.15c.43,6.11-.3,12.37,0,18.5-1.08-.05-4.46.1-7.4,0v-18.5c2.44,0,4.98-.21,7.4,0Z"/>
  <polygon class="st17" points="250.8 385.05 250.78 392.43 243.4 392.41 250.8 385.05"/>
  <path class="st6" d="M317.4,255.55l-9.5,3.58c-2.32,3.1,2.24,6.83,2.1,7.52-.82,3.97-3.5,9.15-3.7,11.1-10.51-8.88-.5-26.28,0-33.3,4.7,2.42,9.34,5.86,11.1,11.1Z"/>
  <path class="st6" d="M306.3,299.95c.06,1.21-.18,2.52,0,3.7-6.37-2.35-14.53,3.5-18.5,3.7-1.39.07-6.44-5.32-7.4-3.7,9.51-1.82,19.55-11.5,25.9-18.5-.1,4.16-.19,10.84,0,14.8Z"/>
  <path class="st14" d="M280.4,303.65l-1.87,18.52-12.93-.06,3.7-18.46c3.28.17,8.22.55,11.1,0Z"/>
  <path class="st19" d="M247.1,174.15c3.66.31,7.44-.33,11.11,0,.41,2.38-.44,5.2,0,7.39.64,3.26-.43,7.56,0,11.1-3.67-.24-7.42.17-11.1,0-.3-6.13.43-12.39,0-18.5Z"/>
  <path class="st8" d="M213.8,174.15c1.04.26,2.43,2.8,3.7,3.7v14.8c-3.19-.68-7.59.46-11.1,0,.57-1.65-.22-5.02,0-7.4.33-3.65-.22-7.43,0-11.1,2.35.35,5.33-.52,7.4,0Z"/>
  <path class="st19" d="M199,203.75c-.58,3.28.26,7.49,0,11.1h-18.5v-3.7c.99-.66-.48-12.86,18.5-7.4Z"/>
  <path class="st6" d="M306.3,200.05c3.59,4.66.21,8.55,0,11.1-9.67-3.87-6.04-8.45-7.4-14.8,3.49.38,6.46,3.58,7.4,3.7Z"/>
  <path class="st6" d="M306.3,233.35c.04-.55-.2-3.96,0-7.4l3.68,1.89-3.68,5.51Z"/>
  <path class="st7" d="M221.2,303.65l-3.7-3.7c2.91.76,3.46,3.6,3.7,3.7Z"/>
  <path class="st15" d="M195.3,151.95l18.49-3.72v25.92c-2.06-.52-5.03.35-7.39,0h-3.7c-.17-3.68,0-7.41,0-11.1l7.37-.02.05-5.49c.18-3.84-5.35-1.11-7.42-1.89-3.8-1.43-6.99-3.65-7.4-3.7Z"/>
  <path class="st5" d="M217.5,181.55v-3.7h3.7c-1.23,1.23-2.33,2.6-3.7,3.7Z"/>
  <path class="st18" d="M335.9,192.65l-3.7,7.4c-.02-.41-5.25-3.22-3.68-7.37,2.27-.48,5.92.67,7.38-.03Z"/>
  <path class="st18" d="M202.7,155.65c2.07.78,7.6-1.95,7.42,1.89l-.05,5.49-7.37.02v-7.4Z"/>
  <path class="st17" d="M206.4,185.25c-4.85-1.8-3.52-7.05-3.7-11.1h3.7c-.22,3.67.33,7.45,0,11.1Z"/>
  <path class="st14" d="M154.6,185.25c2.88.38,7.44-1.57,7.44,1.85l-7.44,1.85v-3.7Z"/>
  <path class="st3" d="M350.7,188.95l1.81,18.54-12.93-3.82,3.71-14.71c2.41-.27,4.96.17,7.4,0Z"/>
</svg>