<?xml version="1.0" encoding="UTF-8"?>
<svg id="Layer_1" xmlns="http://www.w3.org/2000/svg" version="1.1" viewBox="0 0 500 500">
  <!-- Generator: Adobe Illustrator 29.8.4, SVG Export Plug-In . SVG Version: 2.1.1 Build 6)  -->
  <defs>
    <style>
      .st0 {
        fill: #abb5c2;
      }

      .st1 {
        fill: #f7f7f8;
      }

      .st2 {
        fill: #cb9867;
      }

      .st3 {
        fill: #768594;
      }

      .st4 {
        fill: #5f6f7e;
      }

      .st5 {
        fill: #667482;
      }

      .st6 {
        fill: #d0985e;
      }

      .st7 {
        fill: #a48d76;
      }

      .st8 {
        fill: #b0bdc6;
      }

      .st9 {
        fill: #cc9158;
      }

      .st10 {
        fill: #95a7b7;
      }

      .st11 {
        fill: #dea870;
      }

      .st12 {
        fill: #6f7c89;
      }

      .st13 {
        fill: #a5b1be;
      }

      .st14 {
        fill: #b3c2cf;
      }

      .st15 {
        fill: #bac7d2;
      }

      .st16 {
        fill: #f4f7f8;
      }

      .st17 {
        fill: #6a7784;
      }

      .st18 {
        fill: #151724;
      }

      .st19 {
        fill: #b67f4f;
      }

      .st20 {
        fill: #b4c3d0;
      }

      .st21 {
        fill: #c0cbd5;
      }

      .st22 {
        fill: #71828f;
      }
    </style>
  </defs>
  <path class="st20" d="M200.31,149.85c-6.4,10.67-4.14,30.67-3.68,44.17-31.64-10.12-16.68,15.18-18.41,22.09-.13.51-7.24,2.87-7.36,7.36-12.5-12.09-37.97-1.53-56.2-4.58-34.32-5.75-58.81-34.65-61.6-69.04,10.43-.64,15.72-8.25,14.72-18.41,7.65,6.1,26.98,27.17,32.06,28.71,6.25,1.89,32.88-.64,37.09-3.7,2.45-1.77,8.45-33.38,7.56-37.18-1.69-7.27-46.08-41.21-39.88-46.71,29.28-1.71,57.98-1.13,78.9,22.29,17.02,19.06,15.72,31.69,16.79,54.99Z"/>
  <path class="st15" d="M343.87,370.72c-4.08,12.69,3.5,20.39,16.38,18.46,22.27-3.33,10.37-32.08-9.01-25.82,1.43-8.4-2.8-11.23-7.22-16.7-24.72-30.62-70.09-72.05-99.53-101.09-.05-4.79,2.64-9.78,7.36-11.04,1.23-.33,6.99-.25,7.36,0,.34.23-.64,4.35,1.26,6.08,2.09,1.9,5.65.84,6.1,1.28.56.54.56,5.65,3.86,8.88,38.37,37.69,79.14,73.06,115.58,112.76,17.9,25.5-13.42,57.16-39.75,43.57-15.49-8-73.34-72.28-90.83-89.64-9.03-8.96-13.29-12.74-21.98-20.35-1.92-1.68,1.41-3.93-11.04-11.04-2.64-11.71-13.42-22.99-25.77-22.09.93-13.08-13.16-22.62-22.19-31.33-2.84-2.74-2.86-8.47-3.57-9.16.12-4.49,7.24-6.86,7.36-7.36,6.62,2.14,11.61,6.36,16.66,10.97,43.29,39.53,89.08,101.53,132.29,136.42,5.47,4.42,8.3,8.65,16.7,7.22Z"/>
  <path class="st3" d="M362.27,90.96c4.23,13.44,24.33,27.16,36.81,33.13,3.45,11.84,4.52,9.58,0,22.09-14.91-2.15-20.8,25.26-5.3,11.15,4.27-3.88,3.75-6.86,5.3-11.15,1.73.25,11.15,8.16,18.41,11.04v3.68l-7.36,11.04c-.75,1.06-2.5,2.33-3.68,3.68-11.27,5.63-22.05-12.25-27.54-11.04-5.17,1.14-5.13,10.62-5.59,11.04-.87.81-5.4-.73-7.36,0-15.67-18.83-34.96-37.69-55.22-51.54.1-2.43.09-4.93,0-7.36,14.44,3.27,12.04-7.99,14.72-11.04,4.51-5.12,13.63-6.38,11.04-18.41,7.68,1.77,14.85.57,25.77,3.68Z"/>
  <path class="st19" d="M222.39,286.05c12.45,7.11,9.13,9.37,11.04,11.04l-93.81,103.11c-12.19,10.54-13.85,6.83-23.99-.04,11.57-9.32,19.31-22.55,29.45-33.13,21.19-22.13,43.83-43.45,64.49-66.2,4.15-4.57,9.21-7.51,9.13-14.78.97.51,2.76-.52,3.68,0Z"/>
  <path class="st2" d="M196.62,263.97c12.35-.91,23.13,10.38,25.77,22.09-.92-.52-2.71.51-3.68,0-5.47-2.88-7.97-5.18-14.72-7.36-.6-.19-1.49-3.94-4.77-3.2-14.36,3.24-77.04,84.28-94.83,97.04l-3.47,9.24v3.68c-.55-.56-6.41,2.03-7.52-2.3-1.76-6.81.06-15.52,3.64-21.84,13.96-24.6,71.81-62.69,88.44-92.05,3.08-3.55,6.51-4.95,11.14-5.29Z"/>
  <path class="st4" d="M303.38,105.68c-12.68-1.05-20.95-1.53-32.92-7.58-5.44-8.01,30.62-44.38,38.9-51.07,1.7-.38,18.76,14.06,19.38,15.13,1.94,3.39-3.33,6.17-3.27,6.71-22.41-1.98-14.17,24.74-14.72,36.81,4.91-.03,9.82.02,14.72,0-2.68,3.05-.29,14.32-14.72,11.04-.05-1.22.02-2.45,0-3.68-.04-2.44-.11-4.93,0-7.36-2.42.01-4.96.2-7.36,0Z"/>
  <path class="st13" d="M384.36,194.03c16.59,3.06,17.24-12.89,22.09-18.41,1.18-1.35,2.93-2.62,3.68-3.68,1.85-2.59,15.22-7.27,7.36-11.04v-3.68c4.5,1.79,35.29,4.2,27.75,18.49-1.46,2.77-38.31,39.64-41.15,40.14-8.92,1.56-16.78-16.02-19.74-21.82Z"/>
  <path class="st21" d="M329.14,157.21c-8.16,14.71-23.41,31.85-34.92,44.22-10.79,11.6-22.55,23.28-35.02,33.08-.37-.25-6.13-.33-7.36,0-.48-2.11.72-6.35,0-7.36,20.49-27.59,53.35-47.41,69.94-77.3,1.36,1.65,5.23,5.21,7.36,7.36Z"/>
  <path class="st0" d="M336.51,168.26c-18.46,28.38-45.31,50.65-69.94,73.62-.46-.44-4.01.62-6.1-1.28-1.9-1.73-.92-5.85-1.26-6.08,12.47-9.79,24.23-21.47,35.02-33.08,11.51-12.38,26.76-29.52,34.92-44.22,5.05,5.1,6.86,10.61,7.36,11.04Z"/>
  <path class="st17" d="M310.74,124.08c20.26,13.85,39.55,32.7,55.22,51.54-3.59,1.34-4.55,5.62-11.93,3.24-.97-.31-16.74-9.93-17.52-10.6-.5-.43-2.31-5.94-7.36-11.04-2.13-2.15-6.01-5.71-7.36-7.36-3.56-4.34-13.34-14.27-14.35-17.52-1.58-5.12,3.29-7.74,3.31-8.25Z"/>
  <path class="st22" d="M325.46,68.87c.78,6.31,3.99,16.78,11.04,18.41,2.59,12.03-6.53,13.28-11.04,18.41-4.91.02-9.82-.03-14.72,0,.55-12.07-7.69-38.8,14.72-36.81Z"/>
  <path class="st9" d="M145.09,367.04c-10.14,10.58-17.88,23.81-29.45,33.13-8.04-5.45-9.22-9.13-14.72-14.72v-3.68c6.78-.79,13.63-6.56,18.41-11.04l25.77-3.68Z"/>
  <path class="st14" d="M222.39,212.43c-.03,2.46.02,4.92,0,7.36,5.86,1.35,1.87-4.18,5.97-7.45l5.07.09c4.04,3.77,16.04,11.38,18.41,14.72.72,1.01-.48,5.25,0,7.36-4.73,1.26-7.41,6.25-7.36,11.04-8.75-8.63-17.34-21.16-22.09-25.77-1.25-1.21-14.94-5.98-18.41-7.36v-3.68c1.46-.98,2.43-2.51,3.68-3.68,1.61-1.51,10.3-7.88,11-7.35l3.73,14.72Z"/>
  <path class="st17" d="M406.45,175.62c-4.85,5.52-5.5,21.47-22.09,18.41-2.87-5.63-1.77-15.82-11.04-18.41.45-.42.42-9.9,5.59-11.04,5.5-1.22,16.27,16.67,27.54,11.04Z"/>
  <path class="st7" d="M399.08,124.08c-12.48-5.97-32.58-19.69-36.81-33.13,11.2,3.2,24.95,11.31,33.09,20.41,5.06,5.66,2.49,8.49,3.72,12.72Z"/>
  <path class="st8" d="M67.79,131.45c.99,10.16-4.3,17.77-14.72,18.41-.58-7.09-1.92-28.01,9.18-25.75,2.63.54,4.06,6.17,5.54,7.35Z"/>
  <path class="st18" d="M200.31,205.07c.1.88,2.81,2.46,3.68,3.68v3.68c-1.68-.67-6.43,1.05-7.24-.04-1.11-1.5.03-14.03-.12-18.36-.46-13.51-2.72-33.5,3.68-44.17.82,17.74-1.94,38.18,0,55.22Z"/>
  <path class="st1" d="M240.78,194.01c-6.77,2.41-18.02-11.22-14.69-14.69,6.77-2.41,18.02,11.22,14.69,14.69Z"/>
  <path class="st5" d="M310.74,105.68c-.11,2.43-.04,4.92,0,7.36-7.82.88-8.25.46-7.36-7.36,2.4.2,4.94.01,7.36,0Z"/>
  <path class="st1" d="M222.39,212.43c.02-1.81,3.04-10.1,1.88-14.74l9.17,14.74-5.07-.09c-4.1,3.27-.11,8.8-5.97,7.45.02-2.44-.03-4.9,0-7.36Z"/>
  <path class="st1" d="M207.67,205.07c-1.25,1.17-2.22,2.7-3.68,3.68-.87-1.22-3.58-2.8-3.68-3.68h7.36Z"/>
  <path class="st10" d="M196.62,194.03c.15,4.33-.99,16.86.12,18.36.81,1.09,5.56-.63,7.24.04,3.46,1.38,17.15,6.15,18.41,7.36,4.75,4.61,13.34,17.14,22.09,25.77,29.44,29.04,74.81,70.48,99.53,101.09,4.42,5.47,8.65,8.3,7.22,16.7-.5.16-7.2,6.87-7.36,7.36-8.4,1.43-11.23-2.8-16.7-7.22-43.21-34.88-89-96.89-132.29-136.42-5.05-4.61-10.04-8.82-16.66-10.97,1.72-6.91-13.24-32.21,18.41-22.09Z"/>
  <path class="st16" d="M343.87,370.72c.16-.5,6.87-7.2,7.36-7.36,19.39-6.26,31.28,22.49,9.01,25.82-12.88,1.93-20.45-5.77-16.38-18.46Z"/>
  <path class="st12" d="M399.08,146.17c-1.55,4.29-1.03,7.27-5.3,11.15-15.51,14.11-9.61-13.3,5.3-11.15Z"/>
  <path class="st12" d="M410.13,171.94l7.36-11.04c7.86,3.77-5.51,8.45-7.36,11.04Z"/>
  <path class="st6" d="M218.71,286.05c.08,7.27-4.98,10.21-9.13,14.78-20.66,22.76-43.29,44.07-64.49,66.2l-25.77,3.68c30.19-28.3,56.05-62.17,84.66-92.03,6.75,2.19,9.26,4.48,14.72,7.36Z"/>
  <path class="st11" d="M203.99,278.69c-28.62,29.86-54.47,63.72-84.66,92.03-4.78,4.48-11.63,10.25-18.41,11.04l3.47-9.24c17.79-12.76,80.47-93.8,94.83-97.04,3.28-.74,4.17,3.01,4.77,3.2Z"/>
</svg>