<?xml version="1.0" encoding="UTF-8"?>
<svg id="Layer_1" xmlns="http://www.w3.org/2000/svg" version="1.1" viewBox="0 0 500 500">
  <!-- Generator: Adobe Illustrator 29.8.4, SVG Export Plug-In . SVG Version: 2.1.1 Build 6)  -->
  <defs>
    <style>
      .st0 {
        fill: #66b55a;
      }

      .st1 {
        fill: #6db764;
      }

      .st2 {
        fill: #6ab760;
      }

      .st3 {
        fill: #e6f2e0;
      }

      .st4 {
        fill: #c1e1bb;
      }

      .st5 {
        fill: #90c187;
      }

      .st6 {
        fill: #74b968;
      }

      .st7 {
        fill: #e7f2dc;
      }

      .st8 {
        fill: #ecf5e6;
      }

      .st9 {
        fill: #63b05b;
      }

      .st10 {
        fill: #75ba69;
      }

      .st11 {
        fill: #eaf4e6;
      }

      .st12 {
        fill: #6fb564;
      }

      .st13 {
        fill: #61b554;
      }

      .st14 {
        fill: #79ba72;
      }

      .st15 {
        fill: #e9f3e0;
      }

      .st16 {
        fill: #7fbc74;
      }

      .st17 {
        fill: #61b157;
      }

      .st18 {
        fill: #e7f3e1;
      }
    </style>
  </defs>
  <path class="st2" d="M454.98,217.54c1.43,33.18-4.33,69.62,3.9,101.51-.93,3.3-2.16,5.09-3.9,7.81l-27.33,15.62c-119.08,9.58-250.52-7.15-370.91,0-.35-13.4-16.47-9.88-19.42-25.49-4.23-22.39,1.3-59.43-.1-83.84-2.43-15.31,13.69-3.33,23.43-3.9-.54,26.78-9.69,63.34,22.46,69.53,37.08,7.14,37.08-28.06,36.1-53.92h7.81c-6.05,25.98,6.78,55.84,36.77,54.44,8.13-.38,16.06-6.98,21.79-7.59,1.25-.13,2.63-.02,3.9,0,3.73.07,12.74,6.76,19.5,3.91.35-10.36-.39-20.88.02-31.24,2.2-.48,6.98.74,7.81,0,12.9,11.64,15.14,36.62,35.14,31.2l-7.81-19.48c4.33,1,10.79-.69,15.62,0-.17,7.44-.14,12.69-3.9,19.48,18.18.12,36.48-.03,54.66.04,2.6.01,5.21.03,7.81,0,7.64-.09,45.12,1.56,46.88,0,.83-.73-.54-8.81-.02-11.72h7.81c.47,4.65-.12,14.22,5.92,15.6,14.04,3.2,9.02-29.98,9.7-39.02h7.81c11.35,16.46,13.94,40.96,39.04,35.16-2.74-14.11,6.5-64.77-6.46-69.77-2.91-1.12-6.22-.18-9.16-.53-11.12-1.31-13.28,4.42-11.74-11.7,19.32-3.21,28.78-3.06,46.88,3.89Z"/>
  <path class="st13" d="M451.07,190.21l3.9,7.81c.25,1.23-.14,2.63,0,3.9.54,5.08-.22,10.47,0,15.62-18.11-6.95-27.56-7.1-46.88-3.89-1.54,16.12.62,10.39,11.74,11.7v11.71c-10.63,4.28-11.12-6.47-14.64-7.7-4.1-1.43-9.14.55-12.69-.11-10.95-2.04-4.23-5.09-19.52,0-1.95.65-5.39-.44-7.81,0-.26-1.24.35-2.72,0-3.9-3.98-13.35-6.4-3.41-12.97-14.22-19.86-1.33-39.52-23.46-37.78,10.32-1.03-.15-2.94-.26-3.9,0l-3.94-15.62-5.77.04c-6.6,4.54-6.63,12.19-5.92,19.48-11.69,0-23.45,0-35.14,0-6.5,0-13.02-.09-19.52,0-5.2.08-10.42-.17-15.62,0,2.33-11.06-5.68-7.69-13.01-8.48-14.52-1.57-21-1.02-35.8.87-7.29.93-15.84-5.01-13.66,7.6-13.42-.7-31.78,5.1-35.14,19.52h-7.81c-1.02-26.83-5.46-15.56-7.81-19.52-.81-1.37,1.76-8.08-.69-10.77-3.34-3.67-19.85-2.75-25.58-5.92l-20.58-30.16c116.32-10.38,247.27,7.89,365.21-.17,8.34.31,16.25,5.49,21.32,11.88Z"/>
  <path class="st0" d="M64.54,178.5l20.58,30.16c5.73,3.17,22.24,2.26,25.58,5.92,2.45,2.69-.12,9.4.69,10.77-11.8-2.18-7.54,5.98-7.81,13.49-.68,18.91,8.38,50.8-19.52,45.08l-7.81-7.81c-3.91-8.65-3.15-18.17-3.9-27.33,12.77,3.9,11.52-24.5,0-19.52-.11-1.29.06-2.61,0-3.9-.34-7.74-4.39-13.04-11.7-7.8-.24,2.58.13,5.21-.02,7.8-.07,1.29.03,2.61,0,3.9-9.74.57-25.85-11.4-23.43,3.9h-3.9c1.42-13.19-1.15-17,3.9-31.23,10.01,21.69,28.7-12.53,3.9-7.81,6.23-9.75,12.83-14.67,23.43-15.62Z"/>
  <path class="st14" d="M454.98,201.93c11.79-2.18,7.56,5.97,7.81,13.49.98,29.45,3.51,77.48-3.91,103.64-8.23-31.89-2.47-68.34-3.9-101.51-.22-5.14.54-10.53,0-15.62Z"/>
  <path class="st14" d="M37.21,233.16c1.4,24.4-4.13,61.44.1,83.84,2.95,15.6,19.07,12.09,19.42,25.49-35.63-4.89-29.38-71.53-27.49-99.87.34-5.14,3.97-8.59,4.06-9.45h3.9Z"/>
  <path class="st14" d="M454.98,326.87c-1.67,2.6.38,7.02-6.1,11.35-6.98,4.67-13.71,3.66-21.23,4.26l27.33-15.62Z"/>
  <path class="st2" d="M41.12,194.12c24.79-4.72,6.11,29.5-3.9,7.81,1.25-3.52,1.97-4.78,3.9-7.81Z"/>
  <path class="st14" d="M454.98,198.02l-3.9-7.81c2.66,3.35,2.93,2.94,3.9,7.81Z"/>
  <path class="st3" d="M392.51,229.26l23.48,42.92c6.44,1.04,3.61-5.31,3.86-9.73.47-8.38,0-16.99,0-25.38v-11.71c2.94.35,6.25-.59,9.16.53,12.96,5,3.71,55.66,6.46,69.77-25.1,5.8-27.69-18.69-39.04-35.16-1.47-2.13-5.47-9.98-7.77-7.8-.21,2.57.15,5.23-.04,7.8-.68,9.04,4.34,42.22-9.7,39.02-6.04-1.37-5.45-10.95-5.92-15.6-1.67-16.57,3.92-35.4-3.9-50.76,1.5-.71,2.74-2.63,3.9-3.9,15.29-5.09,8.57-2.04,19.52,0Z"/>
  <path class="st1" d="M162.15,225.35c-2.18-12.61,6.37-6.67,13.66-7.6,14.8-1.89,21.28-2.45,35.8-.87,7.33.79,15.34-2.59,13.01,8.48-9.08.3-18.27-.24-27.35-.02-4.97,4.83,9.25,60.03-7.79,66.39-1.27-.02-2.65-.13-3.9,0l.02-35.16c-6.66,1.18-18.02-1.7-23.45.02-6.27,1.99-6.07,9.19,0,11.71,1.94.81,7.19-.86,7.81,0,1.19,1.64-.82,11.91,0,15.62-24.27,3.7-31.61-10.65-27.22-33.07,4.34-22.18,26.41-7.15,38.91-19.65-4.49-2.57-14.62-5.58-19.5-5.84Z"/>
  <path class="st18" d="M224.62,225.35c5.19-.17,10.42.08,15.62,0,16.67,19.51,16.66,22.42,0,39.04-.78.78-3.53.57-3.89,1.96-1.59,6.09,3.6,5.53,3.89,5.85,1.06,1.16,1.44,3.34,3.9,3.9l7.81,19.48c-20,5.42-22.23-19.56-35.14-31.2.41-.37-1.08-5.07.94-6.7,3.48-2.81,16.51-.02,18.55-7,4.61-15.8-17.41-14.61-27.31-13.65-.27,9.07.37,18.28.02,27.35-.41,10.36.33,20.88-.02,31.24-6.77,2.85-15.77-3.84-19.5-3.91,17.04-6.36,2.82-61.57,7.79-66.39,9.08-.22,18.27.32,27.35.02Z"/>
  <path class="st11" d="M72.35,225.35c.06,1.3-.11,2.62,0,3.9.53,6.43-.53,13.09,0,19.52.76,9.16,0,18.68,3.9,27.33,1.59,3.52,3.71,6.97,7.81,7.81,27.9,5.72,18.84-26.17,19.52-45.08.27-7.51-3.99-15.67,7.81-13.49,2.35,3.96,6.79-7.31,7.81,19.52.98,25.85.98,61.06-36.1,53.92-32.15-6.19-23.01-42.75-22.46-69.53.03-1.3-.07-2.61,0-3.9h11.71Z"/>
  <path class="st8" d="M162.15,225.35c4.88.26,15.01,3.26,19.5,5.84-12.5,12.5-34.57-2.52-38.91,19.65-4.39,22.43,2.95,36.78,27.22,33.07l3.87-1.97c-.43-4.92,2.6-13.07-3.87-13.65-.62-.86-5.87.81-7.81,0v-11.71c5.42-1.72,16.79,1.16,23.45-.02l-.02,35.16c-5.73.61-13.66,7.21-21.79,7.59-29.99,1.4-42.82-28.46-36.77-54.44,3.36-14.42,21.72-20.23,35.14-19.52Z"/>
  <path class="st7" d="M365.18,225.35c.35,1.18-.26,2.66,0,3.9v3.9c-12.42,3.55-21.05,5.72-35.16,3.92-10.25,27.25,30.27,10.01,31.27,17.57,2.48,18.69-19.17,13.27-31.27,13.66-6.23,23.09,16.29,15.6,35.16,15.6-.52,2.91.85,10.99.02,11.72-1.76,1.55-39.24-.1-46.88,0-3.55-9.12-.16-18.09,0-27.33v-11.71c.27-10.38-.18-20.85,0-31.23,15.46.98,31.35-.69,46.85,0Z"/>
  <path class="st15" d="M294.9,225.35h11.71c-.76,2.99,1.11,10.71,0,11.68-6.85,5.99-44.21-12.94-35.16,15.64,40.92-2.94,44.16,17.34,0,11.71v19.56c4.74,4.86,45.64-11.04,39.06,11.69-18.18-.07-36.48.08-54.66-.04,3.76-6.8,3.73-12.05,3.9-19.48.39-16.86-.27-33.89,0-50.76,11.69,0,23.45,0,35.14,0Z"/>
  <path class="st9" d="M314.42,221.45c.27.04-.48,3.63,3.9,3.9-.18,10.39.27,20.85,0,31.23-.09,3.58.06,8.54,0,11.71-.16,9.24-3.55,18.21,0,27.33-2.6.03-5.21.01-7.81,0,6.57-22.73-34.32-6.83-39.06-11.69v-19.56c44.16,5.63,40.92-14.65,0-11.71-9.05-28.58,28.31-9.64,35.16-15.64,1.11-.97-.76-8.68,0-11.68s1.2-3.17,3.9-3.9c.96-.26,2.88-.15,3.9,0Z"/>
  <path class="st17" d="M372.99,283.92h-7.81c-18.87,0-41.39,7.49-35.16-15.6,12.1-.39,33.75,5.03,31.27-13.66-1-7.56-41.53,9.67-31.27-17.57,14.11,1.79,22.73-.37,35.16-3.92,1.29-.37,2.94.46,3.9,0,7.83,15.35,2.24,34.19,3.9,50.76Z"/>
  <path class="st1" d="M259.76,225.35c-.27,16.87.39,33.89,0,50.76-4.83-.69-11.28,1-15.62,0-2.46-.57-2.84-2.74-3.9-3.9v-7.81c16.66-16.62,16.67-19.54,0-39.04,6.5-.09,13.02,0,19.52,0Z"/>
  <path class="st16" d="M209,264.4c.36-9.07-.28-18.28-.02-27.35,9.9-.95,31.93-2.14,27.31,13.65-2.04,6.98-15.07,4.19-18.55,7-2.02,1.63-.52,6.33-.94,6.7-.82.74-5.61-.48-7.81,0Z"/>
  <path class="st10" d="M396.41,260.49h-7.81c.19-2.58-.17-5.23.04-7.8,2.3-2.18,6.3,5.67,7.77,7.8Z"/>
  <path class="st2" d="M314.42,221.45c-1.73-33.77,17.92-11.64,37.78-10.32,6.57,10.81,8.99.87,12.97,14.22-15.5-.69-31.39.98-46.85,0-4.39-.28-3.63-3.86-3.9-3.9Z"/>
  <path class="st2" d="M392.51,229.26c3.55.66,8.59-1.32,12.69.11,3.52,1.23,4.02,11.98,14.64,7.7,0,8.39.47,17,0,25.38-.25,4.41,2.58,10.77-3.86,9.73l-23.48-42.92Z"/>
  <path class="st2" d="M294.9,225.35c-.71-7.29-.68-14.94,5.92-19.48l5.77-.04,3.94,15.62c-2.71.73-3.18,1.05-3.9,3.9h-11.71Z"/>
  <path class="st2" d="M372.99,229.26c-1.17,1.27-2.4,3.19-3.9,3.9-.97.46-2.61-.37-3.9,0v-3.9c2.42-.44,5.86.65,7.81,0Z"/>
  <path class="st6" d="M72.35,229.26c11.52-4.98,12.77,23.42,0,19.52-.53-6.43.53-13.09,0-19.52Z"/>
  <path class="st6" d="M60.64,225.35c.14-2.59-.23-5.22.02-7.8,7.3-5.25,11.35.06,11.7,7.8h-11.71Z"/>
  <path class="st6" d="M84.06,283.92c-4.09-.84-6.22-4.29-7.81-7.81l7.81,7.81Z"/>
  <path class="st12" d="M169.96,283.92c-.82-3.7,1.19-13.98,0-15.62,6.46.57,3.44,8.73,3.87,13.65l-3.87,1.97Z"/>
  <path class="st4" d="M162.15,268.3c-6.07-2.52-6.27-9.72,0-11.71v11.71Z"/>
  <path class="st5" d="M240.24,272.21c-.29-.32-5.48.23-3.89-5.85.36-1.39,3.11-1.18,3.89-1.96v7.81Z"/>
  <path class="st2" d="M318.33,268.3c.06-3.18-.09-8.14,0-11.71v11.71Z"/>
</svg>