<?xml version="1.0" encoding="UTF-8"?>
<svg id="uuid-edbf77af-3716-4421-a9cb-08296f7c252d" data-name="Layer 1" xmlns="http://www.w3.org/2000/svg" viewBox="0 0 250 250">
  <defs>
    <style>
      .uuid-0d518588-ea0b-43ab-9ba0-64b8f27cbe39 {
        fill: #1f7a8b;
      }

      .uuid-2722808e-d7f8-447e-9178-49cf79cb18a8 {
        fill: #be8e3f;
      }
    </style>
  </defs>
  <path class="uuid-0d518588-ea0b-43ab-9ba0-64b8f27cbe39" d="M11.98,167.23v-23.37c4.21,2.29,8.63,4.17,13.2,5.61,15.18,4.97,35.22,7.71,56.44,7.71,3.06,0,6.1-.06,9.1-.17-.06,1.28-.09,2.57-.09,3.86,0,8.16,1.23,16.27,3.66,24.06-4.15.23-8.38.35-12.67.35-19.76,0-38.25-2.49-52.04-7.01-12.82-4.2-17.6-9-17.6-11.05Z"/>
  <path class="uuid-0d518588-ea0b-43ab-9ba0-64b8f27cbe39" d="M29.58,136.05c13.79,4.52,32.28,7.01,52.04,7.01,3.73,0,7.42-.1,11.05-.28,2.41-10.48,6.9-20.36,13.2-29.07-8.06.83-16.15,1.25-24.25,1.24-21.22,0-41.26-2.74-56.44-7.71-4.57-1.44-8.99-3.32-13.2-5.61v23.36c0,2.05,4.78,6.86,17.6,11.06h0Z"/>
  <path class="uuid-0d518588-ea0b-43ab-9ba0-64b8f27cbe39" d="M29.58,93.81c13.8,4.52,32.28,7.01,52.04,7.01,14.6,0,28.59-1.37,40.57-3.95,8.63-6.66,18.52-11.5,29.07-14.22v-23.25c-4.21,2.29-8.63,4.17-13.2,5.61-15.18,4.97-35.23,7.71-56.44,7.71s-41.26-2.74-56.44-7.71c-4.57-1.44-8.99-3.32-13.2-5.61v23.36c0,2.04,4.78,6.85,17.6,11.05h0Z"/>
  <path class="uuid-0d518588-ea0b-43ab-9ba0-64b8f27cbe39" d="M29.58,51.59c13.8,4.52,32.28,7.01,52.04,7.01s38.25-2.49,52.04-7.01c12.82-4.2,17.6-9.01,17.6-11.05s-4.78-6.85-17.6-11.05c-13.8-4.52-32.28-7.01-52.04-7.01s-38.25,2.49-52.04,7.01c-12.82,4.2-17.6,9.01-17.6,11.05s4.78,6.85,17.6,11.05h0Z"/>
  <path class="uuid-2722808e-d7f8-447e-9178-49cf79cb18a8" d="M171.39,94.24c-36.74,0-66.63,29.89-66.63,66.63s29.89,66.65,66.63,66.65,66.63-29.89,66.63-66.65-29.89-66.63-66.63-66.63ZM197.11,151.46h-14.13v-7.06c0-5.21-5.19-9.43-11.59-9.43s-11.61,4.22-11.61,9.43c0,5.87,1.83,7.21,13.06,9.56,5.23,1.1,10.64,2.24,15.25,5.28,5.99,3.94,9.02,10.04,9.02,18.12,0,10.75-7.9,19.84-18.66,22.66v11.05h-14.11v-11.06c-10.77-2.82-18.68-11.89-18.68-22.64v-7.07h14.13v7.07c0,5.19,5.21,9.43,11.61,9.43s11.59-4.24,11.59-9.43c0-5.87-1.83-7.22-13.06-9.58-5.23-1.09-10.64-2.23-15.25-5.28-5.99-3.94-9-10.02-9-18.1,0-10.75,7.9-19.84,18.67-22.66v-11.05h14.11v11.05c10.77,2.82,18.66,11.9,18.66,22.66v7.06Z"/>
  <path class="uuid-0d518588-ea0b-43ab-9ba0-64b8f27cbe39" d="M100.05,198.7c-5.99.47-12.17.71-18.43.71-21.22,0-41.26-2.74-56.44-7.71-4.57-1.44-8.99-3.32-13.2-5.61v23.36c0,2.04,4.78,6.85,17.6,11.05,13.8,4.52,32.28,7.01,52.04,7.01,14.02,0,27.64-1.3,39.25-3.68-8.56-6.88-15.65-15.43-20.81-25.13Z"/>
</svg>