<?xml version="1.0" encoding="UTF-8"?>
<svg id="uuid-125389ef-8dc9-4fcb-93cb-81c75acaf05c" data-name="Layer 1" xmlns="http://www.w3.org/2000/svg" viewBox="0 0 250 250">
  <defs>
    <style>
      .uuid-889cd826-261e-4fc3-8e1f-a4a617f93183 {
        fill: #1f7a8b;
      }

      .uuid-e2536feb-0372-4cdb-9363-d6fbde55715a {
        fill: #be8e3f;
      }
    </style>
  </defs>
  <path class="uuid-e2536feb-0372-4cdb-9363-d6fbde55715a" d="M183.19,185.28v6.82h-32.56c0-14.01-11.33-25.34-25.32-25.34s-25.34,11.33-25.34,25.34h-32.56v-6.67c0-.91.67-1.69,1.58-1.8l12.37-1.23c1.11-5.15,3.12-10.05,5.94-14.49l-7.88-9.66c-.54-.71-.5-1.71.13-2.34l9.62-9.57c.63-.63,1.63-.69,2.34-.13l9.6,7.88c4.4-2.81,9.25-4.83,14.34-5.94l1.23-12.37c.11-.91.89-1.58,1.8-1.58h13.54c.91,0,1.69.67,1.8,1.58l1.17,12.37c5.13,1.1,10.03,3.12,14.47,5.94l9.66-7.88c.71-.56,1.71-.5,2.34.13l9.59,9.6c.61.65.65,1.63.09,2.34l-7.86,9.62c2.81,4.42,4.83,9.29,5.94,14.4l12.37,1.23c.89.11,1.56.85,1.58,1.75Z"/>
  <path class="uuid-e2536feb-0372-4cdb-9363-d6fbde55715a" d="M209.96,155.22v28.87c0,4.42-3.59,8.01-8.01,8.01h-9.47v-7.02c-.13-5.52-4.18-10.03-9.66-10.76l-6.41-.65c-.58-1.6-1.24-3.18-1.97-4.72l4.05-4.94c3.38-4.35,3.1-10.4-.67-14.43l-9.92-9.96c-2.08-1.99-4.79-3.07-7.67-3.07-2.43,0-4.83.8-6.76,2.28l-5.02,4.11c-1.58-.74-3.18-1.39-4.79-1.97l-.61-6.41c-.72-5.52-5.44-9.66-11.02-9.66h-13.54c-5.55,0-10.29,4.14-11.02,9.66l-.63,6.43c-1.6.56-3.16,1.21-4.68,1.93l-4.98-4.09c-1.93-1.49-4.33-2.28-6.76-2.28-2.88,0-5.59,1.08-7.8,3.2l-9.79,9.73c-3.81,3.99-4.12,10.07-.78,14.43l4.11,5.03c-.74,1.58-1.39,3.18-1.99,4.83l-6.39.63c-5.55.72-9.7,5.5-9.66,11.02v6.67h-10.05c-4.44,0-8.02-3.59-8.02-8.01v-28.87c0-32.16,26.08-58.24,58.24-58.24h53.44c32.16,0,58.24,26.08,58.24,58.24Z"/>
  <circle class="uuid-e2536feb-0372-4cdb-9363-d6fbde55715a" cx="125.3" cy="39.8" r="39.8"/>
  <g>
    <path class="uuid-889cd826-261e-4fc3-8e1f-a4a617f93183" d="M181.61,183.53l-12.37-1.23c-1.11-5.11-3.14-9.98-5.94-14.4l7.86-9.62c.56-.71.52-1.69-.09-2.34l-9.59-9.6c-.63-.63-1.63-.69-2.34-.13l-9.66,7.88c-4.44-2.82-9.34-4.85-14.47-5.94l-1.17-12.37c-.11-.91-.89-1.58-1.8-1.58h-13.54c-.91,0-1.69.67-1.8,1.58l-1.23,12.37c-5.09,1.11-9.94,3.14-14.34,5.94l-9.6-7.88c-.71-.56-1.71-.5-2.34.13l-9.62,9.57c-.63.63-.67,1.63-.13,2.34l7.88,9.66c-2.82,4.44-4.83,9.34-5.94,14.49l-12.37,1.23c-.91.11-1.58.89-1.58,1.8v13.6c0,.91.67,1.69,1.58,1.8l12.37,1.23c1.11,5.15,3.12,10.05,5.94,14.47l-7.88,9.34c-.58.71-.52,1.75.13,2.4l9.57,9.57c.65.61,1.63.67,2.34.11l9.66-7.86c4.44,2.84,9.34,4.85,14.49,5.94l1.23,12.37c.11.91.89,1.6,1.8,1.6h13.62c.91,0,1.69-.69,1.8-1.6l1.23-12.37c5.15-1.1,10.05-3.12,14.47-5.94l9.6,7.88c.72.56,1.71.5,2.36-.11l9.34-9.59c.61-.65.65-1.63.09-2.34l-7.86-9.68c2.82-4.44,4.83-9.34,5.94-14.47l12.37-1.24c.91-.11,1.6-.89,1.58-1.8v-13.45c-.02-.89-.69-1.63-1.58-1.75ZM125.31,217.42c-13.99,0-25.34-11.33-25.34-25.32s11.35-25.34,25.34-25.34,25.32,11.33,25.32,25.34-11.33,25.32-25.32,25.32Z"/>
    <path class="uuid-889cd826-261e-4fc3-8e1f-a4a617f93183" d="M181.61,183.53l-12.37-1.23c-1.11-5.11-3.14-9.98-5.94-14.4l7.86-9.62c.56-.71.52-1.69-.09-2.34l-9.59-9.6c-.63-.63-1.63-.69-2.34-.13l-9.66,7.88c-4.44-2.82-9.34-4.85-14.47-5.94l-1.17-12.37c-.11-.91-.89-1.58-1.8-1.58h-13.54c-.91,0-1.69.67-1.8,1.58l-1.23,12.37c-5.09,1.11-9.94,3.14-14.34,5.94l-9.6-7.88c-.71-.56-1.71-.5-2.34.13l-9.62,9.57c-.63.63-.67,1.63-.13,2.34l7.88,9.66c-2.82,4.44-4.83,9.34-5.94,14.49l-12.37,1.23c-.91.11-1.58.89-1.58,1.8v13.6c0,.91.67,1.69,1.58,1.8l12.37,1.23c1.11,5.15,3.12,10.05,5.94,14.47l-7.88,9.34c-.58.71-.52,1.75.13,2.4l9.57,9.57c.65.61,1.63.67,2.34.11l9.66-7.86c4.44,2.84,9.34,4.85,14.49,5.94l1.23,12.37c.11.91.89,1.6,1.8,1.6h13.62c.91,0,1.69-.69,1.8-1.6l1.23-12.37c5.15-1.1,10.05-3.12,14.47-5.94l9.6,7.88c.72.56,1.71.5,2.36-.11l9.34-9.59c.61-.65.65-1.63.09-2.34l-7.86-9.68c2.82-4.44,4.83-9.34,5.94-14.47l12.37-1.24c.91-.11,1.6-.89,1.58-1.8v-13.45c-.02-.89-.69-1.63-1.58-1.75ZM125.31,217.42c-13.99,0-25.34-11.33-25.34-25.32s11.35-25.34,25.34-25.34,25.32,11.33,25.32,25.34-11.33,25.32-25.32,25.32Z"/>
  </g>
</svg>