<?xml version="1.0" encoding="UTF-8"?>
<svg id="b" data-name="Layer 2" xmlns="http://www.w3.org/2000/svg" width="430" height="325" xmlns:xlink="http://www.w3.org/1999/xlink" viewBox="0 0 430 325">
  <defs>
    <style>
      .h {
        opacity: .6;
      }

      .i {
        fill: #be8e3f;
        filter: url(#d);
      }

      .j {
        filter: url(#f);
      }

      .k {
        fill: #e0ca85;
      }
    </style>
    <filter id="d" data-name="drop-shadow-1" x="0" y="0" width="430" height="325" filterUnits="userSpaceOnUse">
      <feOffset dx="12" dy="12"/>
      <feGaussianBlur result="e" stdDeviation="8.6"/>
      <feFlood flood-color="#000" flood-opacity=".8"/>
      <feComposite in2="e" operator="in"/>
      <feComposite in="SourceGraphic"/>
    </filter>
    <filter id="f" data-name="outer-glow-2" x="69.2" y="66.2" width="267" height="209" filterUnits="userSpaceOnUse">
      <feOffset dx="0" dy="0"/>
      <feGaussianBlur result="g" stdDeviation="10.5"/>
      <feFlood flood-color="#e0ca85" flood-opacity=".8"/>
      <feComposite in2="g" operator="in"/>
      <feComposite in="SourceGraphic"/>
    </filter>
  </defs>
  <g id="c" data-name="Photos">
    <g>
      <g>
        <polygon class="h" points="206.5 25.7 29.3 274.6 375.9 274.6 206.5 25.7"/>
        <path class="i" d="M391,286H14.2L202.6,14.4l188.4,271.6ZM39.6,272.6h325.9L202.6,37.7,39.6,272.6Z"/>
      </g>
      <g class="j">
        <path class="k" d="M198.1,231.1h-59.2l-10.1,12.4,175.2-.4-69.4-98.9-6.2,10,53.4,77h-17s-27.3-38.8-37.4-53.1c-.1-.2-.2-.3-.3-.5-10.6-15.8-24.2-14.1-24.2-14.1l22.5-32.4-22.9-32.7-101.1,144.9h14.5c0,.1,18.7-26,18.7-26h67.8c20,0,25.5-17.7,25.5-17.7l7.6,11.3c-10.4,21.3-37.3,20.2-37.3,20.2ZM166.5,205.4c-8.2-11.8-4.3-26.7,2.8-38,5.8-9.3,12.7-18.1,19-27.1,3.4-4.9,6.9-9.9,10.3-14.8.3-.4,4.8-6.1,4.5-6.4,0,0,8.3,11.8,8.3,11.8l-21.6,29.5s-14,18.7-14,29.4,5.7,15.6,5.7,15.6c0,0-15,0-15,0ZM203,204c-7.9,0-14.4-6.4-14.4-14.4s6.4-14.4,14.4-14.4,14.4,6.4,14.4,14.4-6.4,14.4-14.4,14.4Z"/>
      </g>
    </g>
  </g>
</svg>