<?xml version="1.0" encoding="UTF-8"?>
<svg id="uuid-784672db-dd51-418a-bf14-e2f30eaca72a" data-name="Layer 1" xmlns="http://www.w3.org/2000/svg" viewBox="0 0 250 250">
  <defs>
    <style>
      .uuid-fd9e49d2-6d71-4428-8159-9cf5622eb510 {
        fill: #1f7a8b;
      }

      .uuid-9c3e4c9e-e9d2-4c4e-bf8d-9765b2b75f35 {
        fill: #be8e3f;
      }
    </style>
  </defs>
  <polygon class="uuid-9c3e4c9e-e9d2-4c4e-bf8d-9765b2b75f35" points="64.96 115.9 65.25 91.54 82.22 98.14 81.93 122.5 64.96 115.9"/>
  <path class="uuid-9c3e4c9e-e9d2-4c4e-bf8d-9765b2b75f35" d="M90.82,89.25c-.22-.13-.44-.25-.67-.36l-.06-.03-28.38-11.03c-.32-.12-.64-.22-.97-.28l-39.37-15.3L122.64,20.97s.04-.01.06-.01c.02,0,.04,0,.05,0l107.13,38.42-106.67,42.46-32.4-12.59Z"/>
  <path class="uuid-9c3e4c9e-e9d2-4c4e-bf8d-9765b2b75f35" d="M128.94,111.83l108.22-43.08v121.43c0,.07-.04.12-.1.15l-108.12,44.62v-123.12Z"/>
  <path class="uuid-fd9e49d2-6d71-4428-8159-9cf5622eb510" d="M14.3,190.15c-.06-.03-.1-.08-.1-.15v-118.3l39.7,15.43-.38,32.58c-.03,2.36,1.43,4.52,3.63,5.38l28.31,11c.64.25,1.32.38,2,.39h.07c3.1,0,5.66-2.53,5.7-5.63l.33-28.31,23.98,9.32v122.97L14.3,190.15Z"/>
</svg>