<?xml version="1.0" encoding="UTF-8"?>
<svg id="uuid-3c55ecbb-e4f4-4a10-9ab3-7231b27a4c51" data-name="Layer 1" xmlns="http://www.w3.org/2000/svg" viewBox="0 0 250 250">
  <defs>
    <style>
      .uuid-a8114749-d7c3-4c2d-bdce-28a9b8ba5d09 {
        fill: #1f7a8b;
      }

      .uuid-4500476f-8507-49b6-8f51-ead055978321 {
        fill: #be8e3f;
      }
    </style>
  </defs>
  <path class="uuid-4500476f-8507-49b6-8f51-ead055978321" d="M209.59,157.62l-83.54,25.06c-.67.21-1.37.21-2.04,0l-83.54-25.06c-2.28-.67-4.6,1.05-4.6,3.44v19.3c0,1.58,1.02,2.95,2.53,3.4l85.57,25.69c.67.21,1.37.21,2.04,0l85.57-25.69c1.51-.46,2.53-1.83,2.53-3.4v-19.3c.07-2.39-2.25-4.11-4.53-3.44Z"/>
  <path class="uuid-4500476f-8507-49b6-8f51-ead055978321" d="M209.59,113.05l-83.54,25.06c-.67.21-1.37.21-2.04,0l-83.54-25.06c-2.28-.67-4.6,1.05-4.6,3.44v19.3c0,1.58,1.02,2.95,2.53,3.4l85.57,25.69c.67.21,1.37.21,2.04,0l85.57-25.69c1.51-.46,2.53-1.83,2.53-3.4v-19.3c.07-2.39-2.25-4.11-4.53-3.44Z"/>
  <path class="uuid-a8114749-d7c3-4c2d-bdce-28a9b8ba5d09" d="M211.66,66.3l-85.61-25.76c-.67-.21-1.37-.21-2.04,0l-85.61,25.76c-1.51.46-2.53,1.86-2.53,3.44v21.52c0,1.58,1.02,2.98,2.53,3.44l85.57,25.76c.67.21,1.37.21,2.04,0l85.57-25.76c1.51-.46,2.53-1.86,2.53-3.44v-21.52c.07-1.58-.95-2.98-2.46-3.44Z"/>
</svg>