<?xml version="1.0" encoding="UTF-8"?>
<svg id="uuid-8717bf22-7011-4ca5-882b-2101557993da" data-name="Layer 2" xmlns="http://www.w3.org/2000/svg" viewBox="0 0 120.08 120.08">
  <defs>
    <style>
      .uuid-7ca62737-bef6-41c3-8c7b-ece6a47b8a62 {
        fill: #1f7a8b;
      }

      .uuid-c4c6f91f-f625-4aaa-b0a5-59d8a9866573 {
        fill: #be8e3f;
      }
    </style>
  </defs>
  <g id="uuid-797658c9-a860-4744-9ce4-af23dfb1096f" data-name="Layer 1">
    <path class="uuid-c4c6f91f-f625-4aaa-b0a5-59d8a9866573" d="M12.01,0C5.38,0,0,5.38,0,12.01v44.03c0,6.63,5.38,12.01,12.01,12.01h32.02c6.63,0,12.01-5.38,12.01-12.01V12.01c0-6.63-5.38-12.01-12.01-12.01H12.01Z"/>
    <path class="uuid-c4c6f91f-f625-4aaa-b0a5-59d8a9866573" d="M76.05,120.08c-6.63,0-12.01-5.38-12.01-12.01v-44.03c0-6.63,5.38-12.01,12.01-12.01h32.02c6.63,0,12.01,5.38,12.01,12.01v44.03c0,6.63-5.38,12.01-12.01,12.01h-32.02Z"/>
    <path class="uuid-7ca62737-bef6-41c3-8c7b-ece6a47b8a62" d="M0,88.06c0-6.63,5.38-12.01,12.01-12.01h32.02c6.63,0,12.01,5.38,12.01,12.01v20.01c0,6.63-5.38,12.01-12.01,12.01H12.01c-6.63,0-12.01-5.38-12.01-12.01v-20.01Z"/>
    <path class="uuid-7ca62737-bef6-41c3-8c7b-ece6a47b8a62" d="M76.05,44.03c-6.63,0-12.01-5.38-12.01-12.01V12.01c0-6.63,5.38-12.01,12.01-12.01h32.02c6.63,0,12.01,5.38,12.01,12.01v20.01c0,6.63-5.38,12.01-12.01,12.01h-32.02Z"/>
  </g>
</svg>