<?xml version="1.0" encoding="UTF-8"?>
<svg id="b" data-name="Layer 2" xmlns="http://www.w3.org/2000/svg" width="430" height="325" xmlns:xlink="http://www.w3.org/1999/xlink" viewBox="0 0 430 325">
  <defs>
    <style>
      .h {
        opacity: .6;
      }

      .i {
        fill: #be8e3f;
        filter: url(#d);
      }

      .j {
        filter: url(#f);
      }

      .k {
        fill: #b1c485;
      }
    </style>
    <filter id="d" data-name="drop-shadow-1" x="0" y="0" width="430" height="325" filterUnits="userSpaceOnUse">
      <feOffset dx="12" dy="12"/>
      <feGaussianBlur result="e" stdDeviation="8.6"/>
      <feFlood flood-color="#000" flood-opacity=".8"/>
      <feComposite in2="e" operator="in"/>
      <feComposite in="SourceGraphic"/>
    </filter>
    <filter id="f" data-name="outer-glow-2" x="69.2" y="65.2" width="267" height="210" filterUnits="userSpaceOnUse">
      <feOffset dx="0" dy="0"/>
      <feGaussianBlur result="g" stdDeviation="10.5"/>
      <feFlood flood-color="#b1c485" flood-opacity=".8"/>
      <feComposite in2="g" operator="in"/>
      <feComposite in="SourceGraphic"/>
    </filter>
  </defs>
  <g id="c" data-name="Photos">
    <g>
      <g>
        <polygon class="h" points="206.5 25.7 29.3 274.6 375.9 274.6 206.5 25.7"/>
        <path class="i" d="M391,286H14.2L202.6,14.4l188.4,271.6ZM39.6,272.6h325.9L202.6,37.7,39.6,272.6Z"/>
      </g>
      <g class="j">
        <path class="k" d="M242.8,243.4h61.4l-101.3-145.9-101.3,145.9h61.4l-10-12.5h-28.5c0-.1,25.2-37.2,25.2-37.2,3.3,22.1,15.6,41.9,38,47.9,5,1.3,10.1,2,15.1,1.9,5,0,10.1-.6,15.1-1.9,22.4-6,34.7-25.8,38-47.9,0,0,25.2,37.1,25.2,37.1h-28.5c0,.1-10,12.6-10,12.6ZM197.2,231.9s-18.8-2.5-28.2-21.4c-.3-.6-.6-1.3-.9-1.9-1.4-2.9-9.5-21,2.5-42.3l26.6,39.2v26.3ZM188.1,143.3l14.9-23.1,14.9,23.1-14.9,23.1-14.9-23.1ZM237.8,208.7c-.3.6-.6,1.2-.9,1.9-9.3,18.9-28.2,21.4-28.2,21.4v-26.3l26.6-39.2c12,21.3,3.9,39.4,2.5,42.3Z"/>
      </g>
    </g>
  </g>
</svg>