<?xml version="1.0" encoding="UTF-8"?>
<svg id="uuid-9620fe67-93d0-4e6c-8f7c-d0a6be885ea6" data-name="Layer 1" xmlns="http://www.w3.org/2000/svg" viewBox="0 0 250 250">
  <defs>
    <style>
      .uuid-a81888ec-616a-495f-8cb3-401f5873bd7e {
        fill: #1f7a8b;
      }

      .uuid-61e07933-979e-4f43-bcec-f0a6143af7e0 {
        fill: #be8e3f;
      }
    </style>
  </defs>
  <path class="uuid-61e07933-979e-4f43-bcec-f0a6143af7e0" d="M46.57,204.79c0,2.57.54,5.03,1.51,7.26H7.27c-4.01,0-7.27-3.25-7.27-7.26v-26.15c0-29.16,23.63-52.79,52.79-52.79h21.88c-16.94,11.45-28.1,30.85-28.1,52.79v26.15Z"/>
  <path class="uuid-61e07933-979e-4f43-bcec-f0a6143af7e0" d="M88.28,44.61c-6.48,8.06-10.37,18.28-10.37,29.41s3.89,21.36,10.37,29.42c-5.88,4.2-13.09,6.66-20.87,6.66-19.93,0-36.08-16.15-36.08-36.08s16.15-36.07,36.08-36.07c7.78,0,14.98,2.46,20.87,6.66Z"/>
  <path class="uuid-a81888ec-616a-495f-8cb3-401f5873bd7e" d="M195,178.64v26.15c0,4.01-3.25,7.26-7.26,7.26H62.02c-4.01,0-7.27-3.25-7.27-7.26v-26.15c0-27.63,21.23-50.31,48.27-52.6,1.49-.13,3-.2,4.52-.2h34.67c1.53,0,3.02.07,4.51.2h.01c27.04,2.29,48.26,24.96,48.26,52.6Z"/>
  <path class="uuid-a81888ec-616a-495f-8cb3-401f5873bd7e" d="M160.95,74.02c0,8.21-2.72,15.76-7.33,21.8-6.58,8.67-17.01,14.27-28.73,14.27s-22.15-5.6-28.73-14.27c-4.61-6.05-7.34-13.6-7.34-21.8s2.74-15.75,7.34-21.8c6.58-8.67,17-14.26,28.73-14.26s22.14,5.59,28.73,14.26c4.61,6.06,7.33,13.61,7.33,21.8Z"/>
  <path class="uuid-61e07933-979e-4f43-bcec-f0a6143af7e0" d="M250,178.64v26.15c0,4.01-3.26,7.26-7.27,7.26h-40.83c.97-2.22,1.51-4.69,1.51-7.26v-26.15c0-21.95-11.16-41.34-28.09-52.79h21.88c29.16,0,52.79,23.63,52.79,52.79Z"/>
  <path class="uuid-61e07933-979e-4f43-bcec-f0a6143af7e0" d="M218.42,74.02c0,19.93-16.15,36.08-36.07,36.08-7.78,0-14.99-2.46-20.89-6.66,6.49-8.06,10.38-18.28,10.38-29.42s-3.89-21.35-10.38-29.41c5.9-4.2,13.11-6.66,20.89-6.66,19.92,0,36.07,16.15,36.07,36.07Z"/>
</svg>