<?xml version="1.0" encoding="UTF-8"?>
<svg id="uuid-8cb06398-640c-4fd2-a6c9-21c0e5c87a89" data-name="Layer 2" xmlns="http://www.w3.org/2000/svg" viewBox="0 0 86.38 60.9">
  <defs>
    <style>
      .uuid-5dbe3b2e-81f4-4627-8754-479ebd326fc9 {
        fill: #bd8e3f;
      }

      .uuid-9e45e723-dbce-4cc2-ad71-0c762c976dce {    
        fill: rgba(26, 26, 26, .3);
        stroke: #bd8e3f;
        stroke-miterlimit: 10;
        stroke-width: 1.35px;
      }
    </style>
  </defs>
  <g id="uuid-c3acd16b-2039-4364-a2bf-4060cf222892" data-name="Layer 1">
    <rect class="uuid-9e45e723-dbce-4cc2-ad71-0c762c976dce" x=".68" y=".68" width="85.03" height="59.54" rx="7.67" ry="7.67"/>
    <g id="uuid-2a5f8d12-b5b8-475e-97d3-5568bb0f4040" data-name="46 Mini Keyboard">
      <g>
        <path class="uuid-5dbe3b2e-81f4-4627-8754-479ebd326fc9" d="M69.71,16.57H16.67c-1.67,0-3.03,1.37-3.03,3.03v21.68c0,1.67,1.37,3.03,3.03,3.03h53.04c1.67,0,3.03-1.36,3.03-3.03v-21.68c0-1.67-1.37-3.03-3.03-3.03h0ZM71.53,41.29c0,1.01-.82,1.82-1.82,1.82H16.67c-1,0-1.82-.81-1.82-1.82v-21.68c0-1,.82-1.82,1.82-1.82h53.04c1,0,1.82.82,1.82,1.82v21.68Z"/>
        <path class="uuid-5dbe3b2e-81f4-4627-8754-479ebd326fc9" d="M38,35.24h3.68c.34,0,.61-.27.61-.61v-2.7c0-.34-.27-.61-.61-.61h-3.68c-.33,0-.61.27-.61.61v2.7c0,.33.27.61.61.61Z"/>
        <path class="uuid-5dbe3b2e-81f4-4627-8754-479ebd326fc9" d="M48.37,36.99h-17.05c-.34,0-.61.27-.61.61v2.7c0,.34.27.61.61.61h17.05c.34,0,.61-.27.61-.61v-2.7c0-.33-.27-.61-.61-.61Z"/>
        <path class="uuid-5dbe3b2e-81f4-4627-8754-479ebd326fc9" d="M48.38,19.99h-3.68c-.34,0-.61.27-.61.61v2.7c0,.33.27.61.61.61h3.68c.33,0,.61-.27.61-.61v-2.7c0-.33-.27-.61-.61-.61Z"/>
        <path class="uuid-5dbe3b2e-81f4-4627-8754-479ebd326fc9" d="M48.38,31.33h-3.68c-.34,0-.61.27-.61.61v2.7c0,.33.27.61.61.61h3.68c.33,0,.61-.27.61-.61v-2.7c0-.34-.27-.61-.61-.61Z"/>
        <path class="uuid-5dbe3b2e-81f4-4627-8754-479ebd326fc9" d="M55.06,19.99h-3.68c-.34,0-.61.27-.61.61v2.7c0,.33.27.61.61.61h3.68c.33,0,.61-.27.61-.61v-2.7c0-.33-.27-.61-.61-.61Z"/>
        <path class="uuid-5dbe3b2e-81f4-4627-8754-479ebd326fc9" d="M55.06,25.66h-3.68c-.34,0-.61.27-.61.61v2.7c0,.33.27.61.61.61h3.68c.33,0,.61-.27.61-.61v-2.7c0-.33-.27-.61-.61-.61Z"/>
        <path class="uuid-5dbe3b2e-81f4-4627-8754-479ebd326fc9" d="M48.38,25.66h-3.68c-.34,0-.61.27-.61.61v2.7c0,.33.27.61.61.61h3.68c.33,0,.61-.27.61-.61v-2.7c0-.33-.27-.61-.61-.61Z"/>
        <path class="uuid-5dbe3b2e-81f4-4627-8754-479ebd326fc9" d="M58.07,35.23h10.36c.34,0,.61-.27.61-.61v-2.7c0-.33-.27-.61-.61-.61h-10.36c-.34,0-.61.27-.61.61v2.7c0,.34.27.61.61.61Z"/>
        <path class="uuid-5dbe3b2e-81f4-4627-8754-479ebd326fc9" d="M68.43,25.66h-3.68c-.34,0-.61.27-.61.61v2.7c0,.33.27.61.61.61h3.68c.33,0,.61-.27.61-.61v-2.7c0-.33-.27-.61-.61-.61Z"/>
        <path class="uuid-5dbe3b2e-81f4-4627-8754-479ebd326fc9" d="M68.43,36.99h-3.68c-.34,0-.61.27-.61.61v2.7c0,.34.27.61.61.61h3.68c.33,0,.61-.27.61-.61v-2.7c0-.33-.27-.61-.61-.61Z"/>
        <path class="uuid-5dbe3b2e-81f4-4627-8754-479ebd326fc9" d="M61.75,36.99h-3.68c-.34,0-.61.27-.61.61v2.7c0,.34.27.61.61.61h3.68c.33,0,.61-.27.61-.61v-2.7c0-.33-.27-.61-.61-.61Z"/>
        <path class="uuid-5dbe3b2e-81f4-4627-8754-479ebd326fc9" d="M55.06,36.99h-3.68c-.34,0-.61.27-.61.61v2.7c0,.34.27.61.61.61h3.68c.33,0,.61-.27.61-.61v-2.7c0-.33-.27-.61-.61-.61Z"/>
        <path class="uuid-5dbe3b2e-81f4-4627-8754-479ebd326fc9" d="M68.43,19.99h-3.68c-.34,0-.61.27-.61.61v2.7c0,.33.27.61.61.61h3.68c.33,0,.61-.27.61-.61v-2.7c0-.33-.27-.61-.61-.61Z"/>
        <path class="uuid-5dbe3b2e-81f4-4627-8754-479ebd326fc9" d="M55.06,31.33h-3.68c-.34,0-.61.27-.61.61v2.7c0,.33.27.61.61.61h3.68c.33,0,.61-.27.61-.61v-2.7c0-.34-.27-.61-.61-.61Z"/>
        <path class="uuid-5dbe3b2e-81f4-4627-8754-479ebd326fc9" d="M58.07,23.91h3.68c.33,0,.61-.27.61-.61v-2.7c0-.33-.27-.61-.61-.61h-3.68c-.34,0-.61.27-.61.61v2.7c0,.33.27.61.61.61Z"/>
        <path class="uuid-5dbe3b2e-81f4-4627-8754-479ebd326fc9" d="M58.07,29.57h3.68c.33,0,.61-.27.61-.61v-2.7c0-.33-.27-.61-.61-.61h-3.68c-.34,0-.61.27-.61.61v2.7c0,.33.27.61.61.61Z"/>
        <path class="uuid-5dbe3b2e-81f4-4627-8754-479ebd326fc9" d="M21.63,25.66h-3.68c-.33,0-.61.27-.61.61v2.7c0,.33.27.61.61.61h3.68c.34,0,.61-.27.61-.61v-2.7c0-.33-.27-.61-.61-.61Z"/>
        <path class="uuid-5dbe3b2e-81f4-4627-8754-479ebd326fc9" d="M21.63,31.33h-3.68c-.33,0-.61.27-.61.61v2.7c0,.33.27.61.61.61h3.68c.34,0,.61-.27.61-.61v-2.7c0-.34-.27-.61-.61-.61Z"/>
        <path class="uuid-5dbe3b2e-81f4-4627-8754-479ebd326fc9" d="M21.63,36.99h-3.68c-.33,0-.61.27-.61.61v2.7c0,.34.27.61.61.61h3.68c.34,0,.61-.27.61-.61v-2.7c0-.33-.27-.61-.61-.61Z"/>
        <path class="uuid-5dbe3b2e-81f4-4627-8754-479ebd326fc9" d="M21.63,19.99h-3.68c-.33,0-.61.27-.61.61v2.7c0,.33.27.61.61.61h3.68c.34,0,.61-.27.61-.61v-2.7c0-.33-.27-.61-.61-.61Z"/>
        <path class="uuid-5dbe3b2e-81f4-4627-8754-479ebd326fc9" d="M28.31,25.66h-3.68c-.33,0-.61.27-.61.61v2.7c0,.33.27.61.61.61h3.68c.34,0,.61-.27.61-.61v-2.7c0-.33-.27-.61-.61-.61Z"/>
        <path class="uuid-5dbe3b2e-81f4-4627-8754-479ebd326fc9" d="M28.31,31.33h-3.68c-.33,0-.61.27-.61.61v2.7c0,.33.27.61.61.61h3.68c.34,0,.61-.27.61-.61v-2.7c0-.34-.27-.61-.61-.61Z"/>
        <path class="uuid-5dbe3b2e-81f4-4627-8754-479ebd326fc9" d="M28.31,36.99h-3.68c-.33,0-.61.27-.61.61v2.7c0,.34.27.61.61.61h3.68c.34,0,.61-.27.61-.61v-2.7c0-.33-.27-.61-.61-.61Z"/>
        <path class="uuid-5dbe3b2e-81f4-4627-8754-479ebd326fc9" d="M31.32,29.57h3.68c.34,0,.61-.27.61-.61v-2.7c0-.33-.27-.61-.61-.61h-3.68c-.33,0-.61.27-.61.61v2.7c0,.33.27.61.61.61Z"/>
        <path class="uuid-5dbe3b2e-81f4-4627-8754-479ebd326fc9" d="M31.32,23.91h3.68c.34,0,.61-.27.61-.61v-2.7c0-.33-.27-.61-.61-.61h-3.68c-.33,0-.61.27-.61.61v2.7c0,.33.27.61.61.61Z"/>
        <path class="uuid-5dbe3b2e-81f4-4627-8754-479ebd326fc9" d="M31.32,35.24h3.68c.34,0,.61-.27.61-.61v-2.7c0-.34-.27-.61-.61-.61h-3.68c-.33,0-.61.27-.61.61v2.7c0,.33.27.61.61.61Z"/>
        <path class="uuid-5dbe3b2e-81f4-4627-8754-479ebd326fc9" d="M38,23.91h3.68c.34,0,.61-.27.61-.61v-2.7c0-.33-.27-.61-.61-.61h-3.68c-.33,0-.61.27-.61.61v2.7c0,.33.27.61.61.61Z"/>
        <path class="uuid-5dbe3b2e-81f4-4627-8754-479ebd326fc9" d="M38,29.57h3.68c.34,0,.61-.27.61-.61v-2.7c0-.33-.27-.61-.61-.61h-3.68c-.33,0-.61.27-.61.61v2.7c0,.33.27.61.61.61Z"/>
      </g>
    </g>
  </g>
</svg>