<?xml version="1.0" encoding="UTF-8"?>
<svg xmlns="http://www.w3.org/2000/svg" viewBox="0 0 250 250">
  <defs>
    <style>
      .link-primary { fill: #1f7a8b; }
      .link-accent { fill: #be8e3f; }
    </style>
  </defs>
  <!-- Chain link 1 -->
  <path class="link-accent" d="M155,60c-22.09,0-40,17.91-40,40v10h20v-10c0-11.05,8.95-20,20-20h30c11.05,0,20,8.95,20,20v40c0,11.05-8.95,20-20,20h-30c-11.05,0-20-8.95-20-20v-10h-20v10c0,22.09,17.91,40,40,40h30c22.09,0,40-17.91,40-40v-40c0-22.09-17.91-40-40-40h-30Z"/>
  <!-- Chain link 2 -->
  <path class="link-primary" d="M95,190c22.09,0,40-17.91,40-40v-10h-20v10c0,11.05-8.95,20-20,20h-30c-11.05,0-20-8.95-20-20v-40c0-11.05,8.95-20,20-20h30c11.05,0,20,8.95,20,20v10h20v-10c0-22.09-17.91-40-40-40h-30c-22.09,0-40,17.91-40,40v40c0,22.09,17.91,40,40,40h30Z"/>
  <!-- Connecting diagonal line -->
  <rect class="link-primary" x="108" y="118" width="34" height="14" rx="7" transform="rotate(-45 125 125)"/>
</svg>
