<?xml version="1.0" encoding="UTF-8"?>
<svg id="uuid-2c47cc51-b12f-4ec0-8691-181100948014" data-name="Layer 1" xmlns="http://www.w3.org/2000/svg" viewBox="0 0 250 250">
  <defs>
    <style>
      .uuid-fcac8227-f1d2-4b4a-bee5-0c4fb99cdd4a {
        fill: #1f7a8b;
      }

      .uuid-16519f5a-7ad6-4048-980f-644727ebe81d {
        fill: #be8e3f;
      }
    </style>
  </defs>
  <path class="uuid-16519f5a-7ad6-4048-980f-644727ebe81d" d="M232.41,16.2H17.61C7.88,16.2,0,24.08,0,33.79v127.59c0,9.72,7.88,17.59,17.61,17.59h214.81c9.71,0,17.59-7.87,17.59-17.59V33.79c0-9.71-7.88-17.59-17.59-17.59ZM231.27,153.5c0,3.73-3.03,6.74-6.76,6.74H25.49c-3.73,0-6.76-3.01-6.76-6.74V41.69c0-3.73,3.03-6.76,6.76-6.76h199.03c3.73,0,6.76,3.03,6.76,6.76v111.81Z"/>
  <polygon class="uuid-fcac8227-f1d2-4b4a-bee5-0c4fb99cdd4a" points="136.1 211.6 136.1 191.46 113.9 191.46 113.9 211.6 60.72 211.6 60.72 233.8 113.9 233.8 136.1 233.8 189.28 233.8 189.28 211.6 136.1 211.6"/>
</svg>