<!--
unicode: "overtime-manager"
version: "1.0"
-->
<svg
  xmlns="http://www.w3.org/2000/svg"
  width="24"
  height="24"
  viewBox="0 0 24 24"
  fill="currentColor"
>
  <path d="M12 2a10 10 0 1 0 10 10A10 10 0 0 0 12 2zm0 18a8 8 0 1 1 8-8 8 8 0 0 1-8 8zm.5-13H11v6l5.25 3.15.75-1.23-4.5-2.67z" />
  <path d="M20.94 13.12a1 1 0 0 0-.62-.12h-.09a1 1 0 0 0-.77.58 7 7 0 0 1-1.22 1.91 1 1 0 0 0 .13 1.41 1 1 0 0 0 .64.23 1 1 0 0 0 .77-.36 9 9 0 0 0 1.56-2.44 1 1 0 0 0-.4-1.21z" />
  <path d="M3.06 13.12a1 1 0 0 0-.4 1.21 9 9 0 0 0 1.56 2.44 1 1 0 0 0 .77.36 1 1 0 0 0 .64-.23 1 1 0 0 0 .13-1.41 7 7 0 0 1-1.22-1.91 1 1 0 0 0-.77-.58h-.09a1 1 0 0 0-.62.12z" />
</svg>
