<?xml version="1.0" encoding="UTF-8"?>
<svg id="uuid-b95442b3-5352-4e5f-86a1-683be6aaf731" data-name="Layer 1" xmlns="http://www.w3.org/2000/svg" viewBox="0 0 250 250">
  <defs>
    <style>
      .uuid-5c33cc2a-2a3c-4352-a2a3-3cc5dee4342c {
        fill: #1f7a8b;
      }

      .uuid-41e269f0-e8cb-4d4e-b715-92579aab7de6 {
        fill: #be8e3f;
      }
    </style>
  </defs>
  <g>
    <path class="uuid-5c33cc2a-2a3c-4352-a2a3-3cc5dee4342c" d="M152.96,34.6h-55.93v11.15h18.05v15.92c6.58-.78,13.26-.77,19.84.03v-15.95h18.05v-11.15h0Z"/>
    <path class="uuid-5c33cc2a-2a3c-4352-a2a3-3cc5dee4342c" d="M187.72,89.25l-7.89-7.89,16.86-16.8,7.89,7.89-16.86,16.8Z"/>
    <path class="uuid-5c33cc2a-2a3c-4352-a2a3-3cc5dee4342c" d="M62.28,89.25l7.89-7.89-16.86-16.8-7.89,7.89,16.86,16.8Z"/>
  </g>
  <path class="uuid-41e269f0-e8cb-4d4e-b715-92579aab7de6" d="M182.91,149.02l.04-11.15,13.29.05c-2.9-34.86-30.85-62.71-65.75-65.44l-.05,13.68-11.17-.04.05-13.65c-35.21,2.71-63.37,31-65.9,66.27l14.3.06-.04,11.15-14.2-.06c2.92,35.16,31.34,63.19,66.66,65.5l.05-13.75,11.17.04-.05,13.57c34.79-3.12,62.49-31.22,64.99-66.19l-13.4-.05ZM171.74,149.48h-36.83c-1.93,3.29-5.5,5.5-9.6,5.5-6.14,0-11.11-4.96-11.11-11.08,0-4.09,2.22-7.66,5.53-9.58v-36.83h11.17v36.83c1.66.96,3.05,2.35,4.02,4h36.83v11.15h0Z"/>
</svg>