<?xml version="1.0" encoding="UTF-8"?>
<svg id="uuid-c3f2af34-2bb0-4e07-98fa-902609e81901" data-name="Layer 1" xmlns="http://www.w3.org/2000/svg" viewBox="0 0 250 250">
  <defs>
    <style>
      .uuid-dd1f2a72-f465-4219-957d-2ffa2a927552 {
        fill: #1f7a8b;
      }

      .uuid-5386be70-7fe6-40d2-a5db-4f82dae39b13 {
        fill: #be8e3f;
      }
    </style>
  </defs>
  <path class="uuid-dd1f2a72-f465-4219-957d-2ffa2a927552" d="M202.71,70.44l-69.08-39.89c-5.34-3.08-11.93-3.08-17.27,0l-69.08,39.89c-1.32.76-2.53,1.7-3.61,2.78l81.32,46.94,81.32-46.95c-1.07-1.08-2.29-2.01-3.61-2.77h0ZM134.65,76.55c-6.05,3.08-13.21,3.08-19.26,0-5.34-3.08-5.4-8.09-.09-11.17,6.07-3.08,13.25-3.08,19.32,0,3.09,1.05,4.74,4.4,3.69,7.49-.59,1.73-1.94,3.08-3.66,3.68Z"/>
  <path class="uuid-5386be70-7fe6-40d2-a5db-4f82dae39b13" d="M39.32,80.67c-.44,1.54-.67,3.13-.67,4.72v79.77c0,6.17,3.29,11.86,8.63,14.95l69.08,39.88c1.35.78,2.8,1.37,4.32,1.76v-94.12l-81.36-46.96ZM58.1,129.63c-4.76-3.08-7.75-8.26-8.04-13.92,0-5.1,3.63-7.16,8.1-4.58,4.73,3.08,7.71,8.24,8.01,13.88-.01,5.14-3.62,7.18-8.07,4.63h0ZM77.51,163.85c-4.76-3.08-7.75-8.26-8.04-13.93,0-5.1,3.62-7.16,8.09-4.58,4.74,3.08,7.72,8.23,8.01,13.88-.03,5.13-3.64,7.19-8.07,4.63ZM96.9,198.06c-4.76-3.08-7.75-8.26-8.04-13.92,0-5.1,3.62-7.16,8.09-4.58,4.74,3.08,7.72,8.24,8.01,13.88-.03,5.13-3.64,7.19-8.08,4.63h.01Z"/>
  <path class="uuid-5386be70-7fe6-40d2-a5db-4f82dae39b13" d="M210.68,80.67l-81.36,46.97v94.12c1.51-.39,2.97-.98,4.32-1.76l69.08-39.89c5.34-3.08,8.63-8.79,8.63-14.96v-79.76c0-1.6-.23-3.19-.67-4.72h0ZM156.28,131.8c4.47-2.59,8.08-.52,8.09,4.61-.29,5.66-3.28,10.83-8.03,13.91-4.44,2.56-8.08.52-8.1-4.58.29-5.67,3.29-10.85,8.04-13.94h0ZM156.43,187.35c-4.44,2.56-8.08.52-8.09-4.58.3-5.66,3.28-10.84,8.04-13.92,4.47-2.59,8.08-.52,8.1,4.61-.3,5.65-3.29,10.81-8.03,13.89h0ZM188.52,113.19c4.47-2.59,8.08-.52,8.1,4.61-.3,5.65-3.29,10.82-8.04,13.89-4.44,2.56-8.05.51-8.07-4.59.29-5.65,3.27-10.82,8.01-13.91h0ZM188.68,168.74c-4.44,2.56-8.05.51-8.07-4.59.29-5.65,3.27-10.83,8.01-13.91,4.47-2.59,8.08-.52,8.09,4.61-.3,5.65-3.29,10.82-8.04,13.89Z"/>
</svg>