<?xml version="1.0" encoding="UTF-8"?>
<svg id="uuid-a5718071-0cfd-4430-bd22-e0b97772a36c" data-name="Layer 1" xmlns="http://www.w3.org/2000/svg" viewBox="0 0 250 250">
  <defs>
    <style>
      .uuid-1d863b75-18b4-46be-9ef3-65615fae75f0 {
        fill: #1f7a8b;
      }

      .uuid-17bbdd55-d8ba-4a65-9127-cc33706c711e {
        fill: #be8e3f;
      }
    </style>
  </defs>
  <path class="uuid-17bbdd55-d8ba-4a65-9127-cc33706c711e" d="M103.24,118.51c-3.71-3.71-9.26-3.71-12.97,0s-3.71,9.26,0,12.97l27.79,27.79c1.85,1.85,3.71,2.78,6.49,2.78s4.63-.93,6.49-2.78l64.85-74.12c2.78-3.71,2.78-10.19-1.85-12.97-3.71-2.78-9.26-2.78-12.04.93l-57.44,65.78-21.31-20.38Z"/>
  <path class="uuid-1d863b75-18b4-46be-9ef3-65615fae75f0" d="M207.92,115.74c-5.56,0-9.26,3.71-9.26,9.26,0,40.76-33.35,74.12-74.12,74.12s-74.12-33.35-74.12-74.12c0-19.46,7.41-37.98,21.31-51.88,13.9-14.82,33.35-22.23,52.81-22.23,5.56,0,12.04.93,17.6,1.85,4.63,1.85,10.19-.93,12.04-6.49,1.85-5.56-1.85-9.26-6.49-11.12h-.93c-7.41-1.85-14.82-2.78-22.23-2.78-50.95,0-92.64,41.69-91.72,93.57,0,24.09,10.19,48.18,26.87,64.85,17.6,17.6,40.76,26.87,64.85,26.87,50.95,0,92.64-41.69,92.64-92.64,0-5.56-3.71-9.26-9.26-9.26Z"/>
</svg>