<?xml version="1.0" encoding="UTF-8"?>
<svg id="uuid-9611334a-2fbe-4b09-bf8e-ec03b3754cd8" data-name="Layer 1" xmlns="http://www.w3.org/2000/svg" viewBox="0 0 250 250">
  <defs>
    <style>
      .uuid-1493954a-8428-4c78-b1ec-b45e892ca2b0 {
        fill: #1f7a8b;
      }

      .uuid-08c9cd55-67a1-4e15-88de-0eaa85cd7d1c {
        fill: #be8e3f;
      }
    </style>
  </defs>
  <path class="uuid-08c9cd55-67a1-4e15-88de-0eaa85cd7d1c" d="M222.86,110.12l-21.5-2.14c-1.96-8.87-5.46-17.33-10.34-24.99l13.67-16.72c.95-1.22.87-2.96-.19-4.09l-16.63-16.69c-1.12-1.07-2.86-1.16-4.09-.22l-16.79,13.71c-7.7-4.92-16.22-8.42-25.15-10.34l-2.01-21.5c-.21-1.57-1.56-2.75-3.14-2.73h-23.51c-1.59-.01-2.94,1.16-3.14,2.73l-2.14,21.5c-8.85,1.95-17.27,5.45-24.9,10.34l-16.69-13.71c-1.23-.94-2.97-.85-4.09.22l-16.72,16.63c-1.07,1.12-1.16,2.86-.22,4.09l13.71,16.79c-4.91,7.7-8.42,16.22-10.34,25.15l-21.5,2.14c-1.57.21-2.75,1.56-2.73,3.14v23.61c-.01,1.59,1.16,2.94,2.73,3.14l21.5,2.14c1.93,8.93,5.43,17.45,10.34,25.15l-13.71,16.22c-1,1.25-.91,3.05.22,4.18l16.63,16.6c1.12,1.07,2.86,1.16,4.09.22l16.79-13.67c7.69,4.93,16.21,8.44,25.15,10.34l2.14,21.5c.19,1.59,1.54,2.78,3.14,2.77h23.64c1.6.01,2.95-1.18,3.14-2.77l2.14-21.5c8.94-1.91,17.46-5.41,25.15-10.34l16.69,13.71c1.23.94,2.97.85,4.09-.22l16.22-16.63c1.06-1.13,1.14-2.86.19-4.09l-13.67-16.82c4.9-7.71,8.4-16.22,10.34-25.15l21.5-2.14c1.57-.21,2.75-1.56,2.73-3.14v-23.36c-.03-1.55-1.2-2.85-2.73-3.05ZM169.01,124.98c0,24.31-19.7,44.01-44.01,44.01s-44.01-19.7-44.01-44.01,19.7-44.01,44.01-44.01,44.01,19.7,44.01,44.01Z"/>
  <circle class="uuid-1493954a-8428-4c78-b1ec-b45e892ca2b0" cx="125" cy="125" r="29.53"/>
</svg>