<?xml version="1.0" encoding="UTF-8"?>
<svg xmlns="http://www.w3.org/2000/svg" viewBox="0 0 250 250">
  <defs>
    <style>
      .shopman-primary { fill: #1f7a8b; }
      .shopman-accent { fill: #be8e3f; }
    </style>
  </defs>
  <!-- Shopping bag body -->
  <path class="shopman-accent" d="M175,215H35c-5.52,0-10-4.48-10-10V95c0-5.52,4.48-10,10-10h140c5.52,0,10,4.48,10,10v110c0,5.52-4.48,10-10,10Z"/>
  <!-- Bag opening/top -->
  <rect class="shopman-primary" x="25" y="85" width="160" height="25" rx="5"/>
  <!-- Handle -->
  <path class="shopman-primary" d="M145,85V60c0-22.09-17.91-40-40-40s-40,17.91-40,40v25h15V60c0-13.81,11.19-25,25-25s25,11.19,25,25v25h15Z"/>
  <!-- Gear/Settings icon for manager -->
  <circle class="shopman-primary" cx="190" cy="180" r="45"/>
  <path fill="#fff" d="M190,155c-13.81,0-25,11.19-25,25s11.19,25,25,25,25-11.19,25-25-11.19-25-25-25Zm0,40c-8.28,0-15-6.72-15-15s6.72-15,15-15,15,6.72,15,15-6.72,15-15,15Z"/>
  <!-- Gear teeth -->
  <rect fill="#fff" x="185" y="140" width="10" height="15"/>
  <rect fill="#fff" x="185" y="205" width="10" height="15"/>
  <rect fill="#fff" x="150" y="175" width="15" height="10"/>
  <rect fill="#fff" x="215" y="175" width="15" height="10"/>
  <rect fill="#fff" x="158" y="152" width="12" height="10" transform="rotate(45 164 157)"/>
  <rect fill="#fff" x="210" y="198" width="12" height="10" transform="rotate(45 216 203)"/>
  <rect fill="#fff" x="158" y="198" width="12" height="10" transform="rotate(-45 164 203)"/>
  <rect fill="#fff" x="210" y="152" width="12" height="10" transform="rotate(-45 216 157)"/>
</svg>
