<!--
unicode: "ticket"
version: "1.0"
-->
<svg
  xmlns="http://www.w3.org/2000/svg"
  width="24"
  height="24"
  viewBox="0 0 24 24"
  fill="currentColor"
>
  <path d="M4 4a2 2 0 0 0 -2 2v2a2 2 0 0 0 2 2a2 2 0 0 1 0 4a2 2 0 0 0 -2 2v2a2 2 0 0 0 2 2h16a2 2 0 0 0 2 -2v-2a2 2 0 0 0 -2 -2a2 2 0 0 1 0 -4a2 2 0 0 0 2 -2v-2a2 2 0 0 0 -2 -2zm11 4a1 1 0 0 1 .117 1.993l-.117 .007a1 1 0 0 1 0 -2zm0 4a1 1 0 0 1 .117 1.993l-.117 .007a1 1 0 0 1 0 -2zm0 4a1 1 0 0 1 .117 1.993l-.117 .007a1 1 0 0 1 0 -2z" />
</svg>
