<?xml version="1.0" encoding="UTF-8"?>
<svg id="uuid-e6ccc494-35b3-4517-b098-5ab75981fb3f" data-name="Layer 1" xmlns="http://www.w3.org/2000/svg" viewBox="0 0 250 250">
  <defs>
    <style>
      .uuid-cbd25503-3b1c-4472-80c5-67e3546ab019 {
        fill: #1f7a8b;
      }

      .uuid-e1760456-7cbd-4ae1-b268-0fbcab301b8c {
        fill: #be8e3f;
      }
    </style>
  </defs>
  <path class="uuid-e1760456-7cbd-4ae1-b268-0fbcab301b8c" d="M154.23,105.72c12.3-11.22,28.94-26.39,30.46-62.63h10.98v-10.87H54.33v10.87h10.98c1.52,36.24,18.15,51.41,30.46,62.63,8.25,7.52,12.92,12.13,12.92,19.28s-4.67,11.76-12.92,19.28c-12.3,11.22-28.94,26.39-30.46,62.63h-10.98v10.87h141.34v-10.87h-10.98c-1.52-36.24-18.15-51.41-30.46-62.63-8.25-7.52-12.92-12.13-12.92-19.28s4.67-11.76,12.92-19.28ZM119.56,165.75c-1.68.35-3.34.85-4.96,1.52l-33.3,13.78c5.44-13.83,14.2-21.81,21.78-28.73,8.47-7.72,16.47-15.02,16.47-27.31v40.75ZM146.9,152.31c7.59,6.92,16.35,14.91,21.78,28.73l-33.3-13.78c-1.62-.67-3.28-1.17-4.96-1.52v-40.75c0,12.3,8,19.59,16.47,27.31ZM81.12,68.46c-2.63-6.85-4.44-15.12-4.92-25.37h97.6c-.48,10.25-2.29,18.52-4.92,25.37h-87.76Z"/>
  <path class="uuid-cbd25503-3b1c-4472-80c5-67e3546ab019" d="M81.12,68.46s8.56,22.91,43.88,42.15c37.64-22.55,43.88-42.15,43.88-42.15h-87.76Z"/>
  <path class="uuid-cbd25503-3b1c-4472-80c5-67e3546ab019" d="M111.06,101.94s8.51,5.62,8.51,23.06v40.75l-38.25,15.3s-6.54,17.77-4.11,24.18h95.72s1.26-18.74-4.23-24.18c-4.5-1.86-38.25-15.3-38.25-15.3v-40.75s.98-17.87,7.79-23.06c6.81-5.19-27.17,0-27.17,0Z"/>
</svg>