<?xml version="1.0" encoding="UTF-8"?>
<svg id="b" data-name="Layer 2" xmlns="http://www.w3.org/2000/svg" width="430" height="325" xmlns:xlink="http://www.w3.org/1999/xlink" viewBox="0 0 430 325">
  <defs>
    <style>
      .h {
        opacity: .6;
      }

      .i {
        fill: #be8e3f;
        filter: url(#d);
      }

      .j {
        fill: #aecddd;
        filter: url(#f);
      }
    </style>
    <filter id="d" data-name="drop-shadow-1" x="0" y="0" width="430" height="325" filterUnits="userSpaceOnUse">
      <feOffset dx="12" dy="12"/>
      <feGaussianBlur result="e" stdDeviation="8.6"/>
      <feFlood flood-color="#000" flood-opacity=".8"/>
      <feComposite in2="e" operator="in"/>
      <feComposite in="SourceGraphic"/>
    </filter>
    <filter id="f" data-name="outer-glow-2" x="69.2" y="66.2" width="267" height="209" filterUnits="userSpaceOnUse">
      <feOffset dx="0" dy="0"/>
      <feGaussianBlur result="g" stdDeviation="10.5"/>
      <feFlood flood-color="#aecddd" flood-opacity=".8"/>
      <feComposite in2="g" operator="in"/>
      <feComposite in="SourceGraphic"/>
    </filter>
  </defs>
  <g id="c" data-name="Photos">
    <g>
      <g>
        <polygon class="h" points="206.5 25.7 29.3 274.6 375.9 274.6 206.5 25.7"/>
        <path class="i" d="M391,286H14.2L202.6,14.4l188.4,271.6ZM39.6,272.6h325.9L202.6,37.7,39.6,272.6Z"/>
      </g>
      <path class="j" d="M241.5,243.5h62.4c0-.1-101.3-145.2-101.3-145.2l-101.3,145.1h62.4c0,.1-10.4-13-10.4-13h-26.7l24.8-35.8c9.3,51.8,51.1,48.9,51.1,48.9,0,0,41.8,3,51.1-48.9l24.8,35.8h-26.7l-10.4,13.2ZM237.9,204.1c-4.6,11.7-14.5,27-35.3,27s-30.7-15.3-35.3-27c-3.8-9.6-3.2-20.3,1.4-29.6,2.5-5,5-8.8,5-8.8l28.9-43.7,7.9,12-8,12.2s-19.4,26.9-19.4,26.9c-4,5.6-6.7,12.5-6.6,19.5,0,3.5,1.3,7.1,2.8,10.3,4.2,8.7,12.2,14,21.9,14.4.4,0,.9,0,1.3,0,9.8,0,18.3-4.9,22.8-13.6,1.2-2.3,2.1-4.8,2.8-7.3.3-1.1.5-2.2.5-3.3.5-7.1-2.7-14.6-6.7-20.1,0,0-6.2-8.5-11.5-16l7.5-11.9,13.6,20.5s2.5,3.8,5,8.8c4.6,9.3,5.1,20,1.4,29.6Z"/>
    </g>
  </g>
</svg>