<?xml version="1.0" encoding="UTF-8"?>
<svg id="b" data-name="Layer 2" xmlns="http://www.w3.org/2000/svg" width="288.2" height="66.3" viewBox="0 0 288.2 66.3">
  <defs>
    <style>
      .d {
        fill-rule: evenodd;
      }

      .d, .e {
        fill: #ea2127;
      }

      .f {
        fill: #c22127;
      }

      .g {
        fill: #fff;
      }

      .h {
        fill: #9c1c20;
      }
    </style>
  </defs>
  <g id="c" data-name="Assets Foreground">
    <g>
      <g>
        <path class="f" d="M35,42.8l-14.9-5.9-14.3,11.8s9.5,3.8,17.8,7.2c8,3.2,26.7,10.4,26.7,10.4l-2.4-18.4-12.9-5.1h0Z"/>
        <polygon class="e" points="40.3 0 40.3 0 40.2 0 40.2 .1 0 31.5 5.7 48.7 42.8 19.8 50.3 66.3 66.2 57.5 58.2 7.2 58.3 7.1 40.3 0"/>
        <polygon class="h" points="23.9 38.4 20.6 37.1 5.7 48.7 23.9 38.4"/>
        <polygon class="h" points="43.9 46.3 47.3 47.6 50.3 66.2 43.9 46.3"/>
      </g>
      <g>
        <g>
          <path class="g" d="M77.2,33.7h-6.4V10.8h6.4v22.9Z"/>
          <path class="g" d="M96.8,10.8h6.4v22.9h-6.4l-8.6-12.3v12.3h-6.4V10.8h6.4l8.6,12.7v-12.7Z"/>
          <path class="g" d="M106.7,10.8h18.2v5.9h-5.9v17h-6.4v-17h-5.9v-5.9Z"/>
          <path class="g" d="M143.3,16.7h-8.6v3.1h6.9v5.3h-6.9v2.7h8.6v5.9h-15V10.8h15v5.9Z"/>
          <path class="g" d="M153.8,27.8h8.6v5.9h-15V10.8h6.4v17Z"/>
          <path class="g" d="M172.2,27.8h8.6v5.9h-15V10.8h6.4v17Z"/>
          <path class="g" d="M190.7,33.7h-6.4V10.8h6.4v22.9Z"/>
          <path class="g" d="M217.3,20.4c.1.7.2,1.4.2,2.1,0,3.3-1.1,6.1-3.3,8.3-2.2,2.3-4.9,3.4-8.2,3.4s-6.2-1.1-8.5-3.4c-2.3-2.3-3.5-5.1-3.5-8.3s1.2-6.5,3.5-8.7c2.3-2.3,5.2-3.4,8.5-3.4s4.4.6,6.1,1.7c1.8,1.1,3.2,2.7,4.2,4.7l-6,1.6c-1.1-1.4-2.6-2.2-4.3-2.2s-2.9.6-4,1.7c-1.1,1.1-1.6,3-1.6,4.6s.5,3,1.6,4.2c1.1,1.1,2.4,1.7,4,1.7s2.1-.3,2.9-.9c.9-.6,1.5-1.4,2-2.3h-6.2v-4.8h12.6Z"/>
          <path class="g" d="M235.7,16.7h-8.6v3.1h6.9v5.3h-6.9v2.7h8.6v5.9h-15V10.8h15v5.9Z"/>
          <path class="g" d="M254.7,10.8h6.4v22.9h-6.4l-8.6-12.3v12.3h-6.4V10.8h6.4l8.6,12.7v-12.7Z"/>
          <path class="g" d="M264.6,10.8h18.2v5.9h-5.9v17h-6.4v-17h-5.9v-5.9Z"/>
        </g>
        <g>
          <polygon class="g" points="70.9 55.4 76.2 55.4 76.2 54.1 72.1 54.1 72.1 51.3 75.6 51.3 75.6 50 72.1 50 72.1 47.2 76.2 47.2 76.2 46 70.9 46 70.9 55.4"/>
          <polygon class="g" points="93.1 52.6 86.9 45.4 86.9 55.4 88.1 55.4 88.1 48.8 94.3 55.9 94.3 46 93.1 46 93.1 52.6"/>
          <polygon class="g" points="104.8 47.2 107.1 47.2 107.1 55.4 108.4 55.4 108.4 47.2 110.8 47.2 110.8 46 104.8 46 104.8 47.2"/>
          <polygon class="g" points="121.2 55.4 126.5 55.4 126.5 54.1 122.5 54.1 122.5 51.3 125.9 51.3 125.9 50 122.5 50 122.5 47.2 126.5 47.2 126.5 46 121.2 46 121.2 55.4"/>
          <path class="g" d="M143,51c.4-.6.6-1.2.6-2s-.3-1.7-.9-2.2c-.6-.5-1.5-.8-2.7-.8h-2.8v9.4h1.3v-3.2h1.6l2.4,3.2h1.5l-2.5-3.4c.6-.2,1.1-.5,1.5-1ZM142.3,49.1c0,.6-.2,1.1-.5,1.4-.4.3-.8.4-1.4.4h-1.9v-3.7h1.9c.6,0,1.1.2,1.4.5.4.3.5.7.5,1.4Z"/>
          <polygon class="g" points="153.4 47.2 155.8 47.2 155.8 55.4 157 55.4 157 47.2 159.4 47.2 159.4 46 153.4 46 153.4 47.2"/>
          <path class="g" d="M167.6,55.4h1.4l.9-1.9h4.6l.9,1.9h1.4l-4.6-9.9-4.6,9.9ZM170.5,52.2l1.7-3.8,1.7,3.8h-3.4Z"/>
          <rect class="g" x="186.7" y="46" width="1.3" height="9.4"/>
          <polygon class="g" points="205 52.6 198.8 45.4 198.8 55.4 200.1 55.4 200.1 48.8 206.3 55.9 206.3 46 205 46 205 52.6"/>
          <polygon class="g" points="222 53 218.4 45.1 216.7 55.4 218 55.4 218.9 49.5 222 55.9 225 49.5 225.9 55.4 227.2 55.4 225.5 45.4 222 53"/>
          <polygon class="g" points="237.6 55.4 243 55.4 243 54.1 238.9 54.1 238.9 51.3 242.3 51.3 242.3 50 238.9 50 238.9 47.2 243 47.2 243 46 237.6 46 237.6 55.4"/>
          <polygon class="g" points="259.8 52.6 253.6 45.4 253.6 55.4 254.9 55.4 254.9 48.8 261.1 55.9 261.1 46 259.8 46 259.8 52.6"/>
          <polygon class="g" points="271.6 46 271.6 47.2 273.9 47.2 273.9 55.4 275.2 55.4 275.2 47.2 277.5 47.2 277.5 46 271.6 46"/>
        </g>
        <path class="d" d="M171.6,38.5c-7.8,0-100.7.8-100.7.9s93,.9,100.7.9,106-.8,106-.9-98.2-.9-106-.9"/>
      </g>
      <path class="g" d="M286.1,10.5h.2c.2,0,.3,0,.3-.2,0-.1,0-.2,0-.2,0,0,0-.2,0-.2,0,0-.2,0-.3,0h-.2v.7ZM285.6,11.6v-2.2h.7c.1,0,.2,0,.3,0s.1,0,.2.1c0,0,.1.1.2.2,0,0,0,.1,0,.2,0,0,0,0,0,0,0,.1,0,.3-.1.4,0,0-.2.2-.3.2h0s.6.9.6.9h-.5s-.6-1-.6-1v1h-.4ZM284.8,10.5c0,.4.1.8.3,1,.2.2.4.4.6.5.2,0,.4.1.6.1s.4,0,.6-.1c.2,0,.4-.2.6-.5.2-.2.3-.6.3-1s0-.4-.1-.6c0-.2-.2-.4-.3-.5-.1-.2-.3-.3-.5-.3-.2,0-.4-.1-.6-.1s-.4,0-.6.1c-.2,0-.4.2-.5.3-.1.1-.3.3-.3.5,0,.2-.1.4-.1.6ZM284.4,10.5c0-.5.2-1,.6-1.3.4-.4.8-.6,1.3-.6s1,.2,1.3.6.6.8.6,1.3-.2,1-.6,1.3-.8.6-1.3.6-1-.2-1.3-.6c-.4-.4-.6-.8-.6-1.3Z"/>
    </g>
  </g>
</svg>